<svg width="930" height="296" viewBox="0 0 930 296" fill="none" xmlns="http://www.w3.org/2000/svg">
<path d="M892.371 252.97L891.454 257.052L889.407 256.333C889.1 256.207 888.766 256.137 888.433 256.129C888.101 256.121 887.779 256.175 887.493 256.286C887.189 256.427 886.937 256.625 886.756 256.864C886.576 257.103 886.472 257.377 886.453 257.666L885.226 263.217C885.112 263.785 884.89 264.329 884.567 264.83C884.354 265.194 884.036 265.507 883.635 265.746C883.341 265.907 883.02 266.037 882.68 266.136C882.454 266.213 882.204 266.247 881.948 266.235L881.66 266.243L881.932 266.439C882.14 266.618 882.332 266.807 882.506 267.006C882.782 267.309 883.01 267.635 883.183 267.977C883.373 268.417 883.496 268.868 883.55 269.32C883.639 269.943 883.613 270.564 883.474 271.162L882.235 276.741C882.064 277.325 882.173 277.961 882.543 278.532C882.898 279.073 883.483 279.511 884.184 279.763L886.252 280.509L885.25 284.593L882.163 283.467C880.178 282.812 878.498 281.619 877.453 280.122C876.454 278.529 876.152 276.768 876.598 275.138L878.014 269.298C878.195 268.683 878.08 268.013 877.69 267.412C877.285 266.83 876.635 266.365 875.866 266.105L876.696 262.309C877.027 262.454 877.389 262.54 877.753 262.559C878.116 262.578 878.472 262.53 878.791 262.419C879.1 262.279 879.357 262.082 879.543 261.843C879.729 261.604 879.839 261.329 879.865 261.039L881.159 255.188C881.235 254.425 881.523 253.701 882.001 253.065C882.48 252.43 883.138 251.898 883.932 251.506C884.756 251.225 885.672 251.109 886.607 251.165C887.541 251.221 888.469 251.449 889.316 251.829L892.371 252.97Z" fill="#FFF2C4" fill-opacity="0.28"/>
<path d="M919.455 262.798C921.441 263.452 923.12 264.645 924.165 266.142C925.166 267.731 925.467 269.488 925.018 271.113L923.586 276.953C923.404 277.569 923.519 278.238 923.909 278.839C924.317 279.42 924.966 279.884 925.734 280.146L924.904 283.942C924.575 283.799 924.217 283.714 923.857 283.693C923.496 283.672 923.143 283.715 922.823 283.818C922.514 283.96 922.255 284.157 922.066 284.395C921.878 284.634 921.764 284.909 921.732 285.199L920.452 291.036C920.379 291.801 920.093 292.528 919.615 293.166C919.137 293.804 918.477 294.338 917.682 294.732C916.858 295.012 915.942 295.129 915.007 295.072C914.072 295.016 913.144 294.788 912.298 294.408L909.211 293.282L910.212 289.198L912.264 289.944C912.571 290.071 912.903 290.144 913.236 290.157C913.569 290.17 913.893 290.122 914.183 290.017C914.475 289.884 914.719 289.699 914.898 289.475C915.077 289.25 915.187 288.992 915.22 288.719L916.459 283.141C916.573 282.568 916.794 282.02 917.116 281.514C917.328 281.153 917.647 280.844 918.051 280.611C918.35 280.467 918.664 280.341 918.991 280.235C919.223 280.147 919.487 280.113 919.757 280.135L920.011 280.128L919.741 279.946C919.538 279.764 919.347 279.575 919.167 279.379C918.882 279.074 918.653 278.743 918.488 278.395C918.299 277.954 918.176 277.503 918.121 277.051C918.033 276.428 918.059 275.808 918.197 275.209L919.423 269.658C919.588 269.063 919.477 268.42 919.111 267.839C918.773 267.268 918.18 266.798 917.457 266.528L915.405 265.782L916.322 261.7L919.455 262.798Z" fill="#FFF2C4" fill-opacity="0.28"/>
<path d="M912.399 268.401L904.17 274.319L909.084 285.397L903.074 283.208L899.918 276.321L894.414 280.059L888.423 277.883L897.144 271.764L892.537 261.178L898.764 263.443L901.365 269.776L906.188 266.137L912.399 268.401Z" fill="#FFF2C4" fill-opacity="0.28"/>
<path d="M17.9439 18.406L20.1029 23.5455L17.8905 24.564C17.5452 24.6981 17.2184 24.9145 16.9367 25.1958C16.6551 25.4771 16.4264 25.8152 16.2694 26.1828C16.1177 26.5978 16.0499 27.0274 16.0714 27.4387C16.0928 27.85 16.2029 28.2321 16.3931 28.5557L19.3459 35.5272C19.6577 36.2316 19.8621 37.0031 19.9526 37.8172C20.0366 38.3892 19.9964 38.9997 19.8348 39.604C19.7057 40.0306 19.5335 40.4487 19.3216 40.8498C19.1895 41.1284 19.0064 41.3825 18.7858 41.5935L18.552 41.8523L18.9178 41.8239C19.2181 41.833 19.5128 41.8675 19.7996 41.927C20.2453 42.0085 20.6676 42.1571 21.0554 42.369C21.5279 42.6712 21.9528 43.0438 22.3206 43.4783C22.8399 44.0632 23.2625 44.7451 23.5753 45.5028L26.5373 52.5142C26.8138 53.2849 27.359 53.8659 28.0737 54.1516C28.7552 54.4168 29.5535 54.3735 30.3147 54.03L32.564 53.0209L34.6542 58.2366L31.2882 59.7289C29.173 60.7627 26.9269 60.9579 24.9893 60.2765C23.0207 59.4527 21.5109 57.8436 20.7153 55.7214L17.7125 48.2782C17.423 47.4657 16.8487 46.8536 16.0953 46.5546C15.3429 46.2888 14.4712 46.36 13.6475 46.7545L11.621 41.9953C11.9996 41.8607 12.3609 41.6362 12.6762 41.3394C12.9914 41.0427 13.2521 40.682 13.4374 40.2858C13.5931 39.8678 13.6653 39.4345 13.6486 39.0183C13.632 38.6022 13.5269 38.2139 13.3412 37.8824L10.2306 30.5335C9.74773 29.6556 9.46791 28.6354 9.41029 27.5427C9.35268 26.4499 9.51864 25.3103 9.8968 24.2018C10.3794 23.1863 11.0557 22.2642 11.8714 21.5094C12.6871 20.7546 13.6195 20.1882 14.5939 19.8555L17.9439 18.406Z" fill="#FFF2C4" fill-opacity="0.28"/>
<path d="M47.438 5.25831C49.5532 4.22449 51.7993 4.02922 53.7369 4.71068C55.7027 5.52859 57.2093 7.13428 57.9994 9.25347L60.9885 16.7118C61.278 17.5244 61.8523 18.1364 62.6057 18.4354C63.3591 18.6975 64.2296 18.6264 65.0535 18.2355L67.08 22.9947C66.7053 23.13 66.3476 23.3516 66.0335 23.6428C65.7194 23.934 65.4569 24.2874 65.2658 24.6767C65.11 25.0963 65.0366 25.531 65.0508 25.9493C65.0651 26.3675 65.1667 26.759 65.3482 27.0952L68.461 34.4166C68.9478 35.2947 69.2307 36.3164 69.2903 37.4115C69.3499 38.5066 69.1848 39.6491 68.8064 40.7607C68.3237 41.7762 67.6474 42.6983 66.8317 43.4531C66.016 44.2078 65.0836 44.7743 64.1091 45.107L60.7432 46.5993L58.6529 41.3836L60.8885 40.3898C61.2339 40.2581 61.5619 40.0458 61.847 39.7694C62.1321 39.493 62.3668 39.1597 62.5327 38.7955C62.6795 38.4 62.7494 37.9904 62.7377 37.5958C62.7259 37.2011 62.6326 36.831 62.4645 36.5118L59.5025 29.5004C59.1868 28.7923 58.9786 28.0167 58.8842 27.1981C58.8009 26.63 58.8452 26.0227 59.0135 25.4236C59.1583 25.01 59.3291 24.6028 59.5246 24.2053C59.654 23.9094 59.8486 23.6421 60.0879 23.4312L60.2942 23.2028L59.9399 23.2436C59.6413 23.2273 59.347 23.1929 59.0581 23.1405C58.6042 23.0655 58.1769 22.9123 57.7907 22.6862C57.319 22.3828 56.8943 22.0103 56.5256 21.5768C56.0071 20.9912 55.5845 20.3094 55.2709 19.5524L52.3181 12.5809C52.0292 11.8054 51.478 11.218 50.7587 10.9189C50.069 10.6063 49.2419 10.6234 48.4483 10.9665L46.2128 11.9604L44.0538 6.82087L47.438 5.25831Z" fill="#FFF2C4" fill-opacity="0.28"/>
<path d="M45.5927 17.3653L42.9999 30.8269L54.9988 38.3259L48.4483 41.235L40.904 36.6607L39.0121 45.4311L32.487 48.3373L35.3444 34.2315L23.9517 26.99L30.7365 23.9721L37.4243 28.4404L38.8217 20.368L45.5927 17.3653Z" fill="#FFF2C4" fill-opacity="0.28"/>
</svg>
