<svg width="320" height="358" viewBox="0 0 320 358" fill="none" xmlns="http://www.w3.org/2000/svg">
<rect width="320" height="358" fill="url(#paint0_linear)"/>
<g filter="url(#filter0_d)">
<path d="M160 207.992V210.241L161.124 211.636" fill="#ADCEE1"/>
<path d="M204.778 180.606L161.273 207.824C160.878 208.076 160.554 208.426 160.333 208.841C160.112 209.256 160 209.722 160.01 210.193C160.02 210.664 160.15 211.125 160.387 211.53C160.625 211.936 160.963 212.273 161.368 212.508L227.394 250.208C228.317 250.735 229.361 251.008 230.421 251C231.481 250.991 232.521 250.702 233.436 250.16L276.751 224.459C279.9 221.847 279.663 216.938 276.751 216.726L211.104 180.489C210.139 179.927 209.04 179.64 207.925 179.661C206.81 179.681 205.722 180.008 204.778 180.606Z" fill="#88D3D8"/>
<path d="M204.778 178.729L161.266 205.948C160.871 206.2 160.547 206.55 160.326 206.965C160.105 207.38 159.994 207.846 160.003 208.317C160.013 208.788 160.143 209.249 160.381 209.654C160.619 210.06 160.956 210.396 161.361 210.631L227.387 248.332C228.31 248.859 229.354 249.132 230.414 249.124C231.475 249.115 232.514 248.826 233.429 248.284L276.744 222.583C277.243 222.279 277.656 221.849 277.943 221.337C278.229 220.824 278.38 220.245 278.38 219.657C278.38 219.068 278.229 218.489 277.943 217.976C277.656 217.464 277.243 217.035 276.744 216.73L211.077 178.62C210.115 178.062 209.022 177.777 207.912 177.796C206.803 177.816 205.72 178.138 204.778 178.729Z" fill="white"/>
<path d="M206.25 174.884C206.25 174.884 224.294 116.729 224.179 116.729C224.064 116.729 224.74 114.142 227.966 115.608L297.205 156.305C297.205 156.305 300.587 157.656 299.911 160.783C299.234 163.91 282.246 217.689 282.246 217.689C281.891 218.2 281.382 218.585 280.794 218.788C280.205 218.99 279.567 219.001 278.972 218.817C276.862 218.141 207.846 178.126 207.846 178.126C207.218 177.888 206.705 177.421 206.408 176.819C206.112 176.217 206.056 175.526 206.25 174.884Z" fill="#112E7C"/>
<path d="M226.023 122.79L294.432 161.711L279.318 210.553L210.909 171.632L226.023 122.79Z" fill="#172D51"/>
<path d="M202.116 184.967L186.206 194.969C185.922 195.146 185.689 195.394 185.53 195.689C185.37 195.984 185.29 196.316 185.296 196.652C185.302 196.988 185.395 197.316 185.565 197.605C185.735 197.894 185.977 198.133 186.267 198.299L243.386 231.158C244.239 231.656 245.208 231.918 246.193 231.918C247.179 231.918 248.147 231.656 249.001 231.158C252.672 228.998 258.992 225.107 262.859 222.714C263.203 222.501 263.487 222.201 263.682 221.844C263.877 221.487 263.977 221.085 263.972 220.677C263.967 220.269 263.858 219.87 263.654 219.518C263.451 219.165 263.161 218.872 262.812 218.667C251.25 211.857 213.583 189.746 205.32 184.912C204.831 184.626 204.275 184.481 203.711 184.49C203.146 184.5 202.595 184.665 202.116 184.967Z" fill="#112E7C"/>
<path d="M202.97 212.124L222.917 223.446C223.221 223.622 223.473 223.876 223.649 224.182C223.825 224.489 223.917 224.836 223.917 225.19C223.917 225.544 223.825 225.891 223.649 226.197C223.473 226.503 223.221 226.757 222.917 226.933L211.186 233.866C210.783 234.101 210.326 234.224 209.861 234.224C209.396 234.224 208.94 234.101 208.537 233.866L188.156 222.113C187.902 221.966 187.69 221.753 187.543 221.497C187.395 221.241 187.318 220.95 187.318 220.653C187.318 220.357 187.395 220.066 187.543 219.81C187.69 219.553 187.902 219.341 188.156 219.194L200.348 212.117C200.748 211.889 201.2 211.769 201.66 211.77C202.119 211.771 202.571 211.893 202.97 212.124Z" fill="#112E7C"/>
<path opacity="0.1" d="M202.116 184.967L186.206 194.969C185.922 195.146 185.689 195.394 185.53 195.689C185.37 195.984 185.29 196.316 185.296 196.652C185.302 196.988 185.395 197.316 185.565 197.605C185.735 197.894 185.977 198.133 186.267 198.299L243.386 231.158C244.239 231.656 245.208 231.918 246.193 231.918C247.179 231.918 248.147 231.656 249.001 231.158C252.672 228.998 258.992 225.107 262.859 222.714C263.203 222.501 263.487 222.201 263.682 221.844C263.877 221.487 263.977 221.085 263.972 220.677C263.967 220.269 263.858 219.87 263.654 219.518C263.451 219.165 263.161 218.872 262.812 218.667C251.25 211.857 213.583 189.746 205.32 184.912C204.831 184.626 204.275 184.481 203.711 184.49C203.146 184.5 202.595 184.665 202.116 184.967Z" fill="#053855"/>
<path opacity="0.1" d="M202.97 212.124L222.917 223.446C223.221 223.622 223.473 223.876 223.649 224.182C223.825 224.489 223.917 224.836 223.917 225.19C223.917 225.544 223.825 225.891 223.649 226.197C223.473 226.503 223.221 226.757 222.917 226.933L211.186 233.866C210.783 234.101 210.326 234.224 209.861 234.224C209.396 234.224 208.94 234.101 208.537 233.866L188.156 222.113C187.902 221.966 187.69 221.753 187.543 221.497C187.395 221.241 187.318 220.95 187.318 220.653C187.318 220.357 187.395 220.066 187.543 219.81C187.69 219.553 187.902 219.341 188.156 219.194L200.348 212.117C200.748 211.889 201.2 211.769 201.66 211.77C202.119 211.771 202.571 211.893 202.97 212.124Z" fill="#053855"/>
<path d="M188.123 214.354C186.703 210.346 185.934 206.132 185.847 201.876C185.623 196.454 187.594 188.106 195.458 188.639C206.505 189.391 210.427 201.534 216.347 204.857C222.267 208.18 235.644 202.683 236.525 207.756C237.405 212.829 235.021 218.819 231.546 222.504C223.188 231.392 206.607 230.709 196.759 224.911C192.747 222.518 189.691 218.783 188.123 214.354Z" fill="#FA6D90"/>
<path d="M227.13 223.439C209.086 225.893 187.167 214.065 186.287 196.008C185.898 197.876 185.73 199.783 185.786 201.69C185.873 205.946 186.642 210.159 188.061 214.168C189.63 218.601 192.688 222.338 196.704 224.731C206.458 230.454 222.815 231.185 231.248 222.564C229.898 222.957 228.522 223.25 227.13 223.439Z" fill="#D64770"/>
<path d="M234.431 183.649C234.433 183.341 234.357 183.038 234.211 182.768C234.066 182.498 233.855 182.27 233.598 182.104C233.573 181.848 233.482 181.603 233.333 181.394C233.184 181.185 232.984 181.02 232.752 180.914C232.719 180.899 232.685 180.888 232.65 180.88C233.052 180.102 233.379 179.287 233.625 178.446C233.617 178.304 233.562 178.17 233.47 178.062C233.378 177.955 233.254 177.881 233.117 177.852C232.979 177.822 232.836 177.839 232.709 177.899C232.582 177.96 232.478 178.06 232.413 178.186C232.036 179.244 231.55 180.259 230.964 181.215C230.915 181.189 230.862 181.17 230.808 181.16C230.069 181.058 229.453 180.873 229.162 181.741C228.871 182.61 228.722 183.41 228.485 184.244C228.466 184.313 228.461 184.386 228.472 184.457C228.483 184.528 228.509 184.596 228.549 184.656C228.588 184.716 228.639 184.767 228.699 184.806C228.759 184.844 228.827 184.87 228.898 184.88C228.947 185.024 229.051 185.144 229.186 185.213C229.321 185.282 229.478 185.295 229.622 185.249C229.655 185.364 229.71 185.471 229.785 185.563L229.744 185.611C229.68 185.698 229.641 185.8 229.632 185.908C229.622 186.015 229.642 186.123 229.69 186.22C229.738 186.316 229.811 186.398 229.902 186.454C229.993 186.511 230.098 186.541 230.205 186.541C229.751 186.856 230.022 187.703 230.611 187.491C231.756 187.074 233.368 186.808 234.255 185.885C234.568 185.609 234.761 185.221 234.794 184.803C234.827 184.385 234.697 183.971 234.431 183.649Z" fill="#FFB5A9"/>
<path d="M230.97 185.405C231.014 185.32 231.04 185.227 231.046 185.132C231.052 185.037 231.039 184.942 231.006 184.852C230.973 184.763 230.923 184.681 230.857 184.613C230.792 184.544 230.712 184.49 230.625 184.454L230.733 184.276C230.801 184.156 230.831 184.018 230.818 183.88C230.806 183.742 230.753 183.611 230.666 183.504C230.579 183.397 230.461 183.32 230.329 183.282C230.197 183.244 230.057 183.248 229.927 183.292C229.861 183.207 229.775 183.139 229.678 183.094C229.58 183.049 229.474 183.028 229.367 183.033C229.259 183.037 229.155 183.068 229.062 183.121C228.968 183.174 228.889 183.249 228.83 183.34C228.108 184.626 227.298 185.86 226.405 187.032C226.321 187.138 226.269 187.267 226.254 187.403C226.24 187.538 226.264 187.675 226.324 187.798L226.148 188.064C226.093 188.142 226.058 188.232 226.044 188.326C226.03 188.42 226.038 188.516 226.068 188.607C226.097 188.697 226.148 188.779 226.214 188.847C226.281 188.914 226.363 188.964 226.453 188.994C226.559 189.145 226.715 189.252 226.893 189.295C226.703 189.753 227.157 190.15 227.604 190.136C227.657 190.215 227.727 190.281 227.809 190.329C227.891 190.376 227.983 190.405 228.077 190.412C228.172 190.419 228.266 190.405 228.354 190.37C228.443 190.335 228.522 190.281 228.586 190.211C229.684 189.074 230.569 187.747 231.201 186.293C231.27 186.141 231.285 185.969 231.243 185.807C231.201 185.645 231.105 185.503 230.97 185.405Z" fill="#FFB5A9"/>
<path d="M225.565 207.862C228.356 205.264 231.465 201.531 229.5 198.563C226.249 193.668 217.505 199.377 216.069 199.685C209.763 201.052 196.738 216.094 208.496 215.554C213.842 215.31 218.971 213.353 223.14 209.968C223.784 209.434 224.657 208.71 225.565 207.862Z" fill="#3E2928"/>
<path d="M225.478 207.757C225.559 207.492 225.736 207.268 225.973 207.128C227.084 206.495 228.297 206.065 229.556 205.856C229.748 205.81 229.949 205.814 230.139 205.869C230.328 205.925 230.501 206.028 230.639 206.171C231.134 201.46 229.488 198.547 229.488 198.547L225.112 208.119C225.241 208.003 225.349 207.88 225.478 207.757Z" fill="#3E2928"/>
<path d="M227.517 185.054C227.365 185.005 227.225 184.926 227.104 184.821L220.493 190.66C219.058 188.365 218.224 185.74 218.068 183.03C217.824 178.552 209.317 177.793 209.317 177.793L212.961 193.026C212.961 193.026 215.393 199.179 219.511 199.685C222.728 200.095 229.379 193.334 232.082 189.477C230.978 187.577 229.671 185.765 227.517 185.054Z" fill="#00A99D"/>
<path d="M205.313 172.645C202.287 175.289 200 178.689 198.682 182.504C196.345 189.027 202.191 199.693 202.191 199.693L211.294 192.432" fill="#006D62"/>
<path d="M198.154 208.216C198.09 209.511 198.409 210.796 199.068 211.908C199.912 213.256 201.189 214.269 202.685 214.78C204.549 215.418 206.518 215.685 208.483 215.566C212.547 215.299 216.049 213.399 219.009 210.78C218.447 203.567 216.428 198.535 214.708 196.073L203.694 190.706C203.762 190.706 201.547 195.178 201.446 195.417C200.311 198.09 199.435 200.867 198.831 203.71C198.464 205.187 198.237 206.696 198.154 208.216Z" fill="#3E2928"/>
<path d="M214.511 183.578L202.861 183.038L199.948 198.572C203.423 200.993 213.983 200.063 216.062 199.694C215.419 194.996 215.005 188.289 214.511 183.578Z" fill="#00A99D"/>
<path d="M214.627 176.836C215.532 175.582 216.178 174.158 216.527 172.648C216.876 171.137 216.921 169.571 216.659 168.043C216.218 164.939 214.518 162.361 211.24 161.801C206.16 160.939 202.469 165.267 202.55 170.108C202.591 172.809 202.882 174.634 200.911 175.762C198.94 176.89 197.524 179.865 199.394 182.244C201.263 184.623 199.583 183.769 198.33 185.888C197.077 188.008 197.402 190.674 199.976 191.631C202.55 192.588 214.505 190.79 215.602 189.662C215.993 189.212 216.194 188.626 216.164 188.028C215.884 186.524 215.073 185.174 213.882 184.227C212.913 183.403 212.114 182.394 211.531 181.259C210.576 179.27 213.502 178.292 214.627 176.836Z" fill="#FF8A00"/>
<path d="M245.717 140.432V142.272L230.491 133.336V131.544L245.717 140.432Z" fill="#F7931E"/>
<path d="M289.547 166.007L247.214 141.312V143.158L289.208 167.771C289.208 167.771 289.432 166.568 289.547 166.007Z" fill="#00A99D"/>
<path d="M288.531 171.415L283.404 168.42V170.375L288.213 173.199C288.339 172.607 288.445 172.012 288.531 171.415Z" fill="#8CC63F"/>
<path d="M281.92 167.54V169.495L257.888 155.397V153.517L281.92 167.54Z" fill="#F7931E"/>
<path d="M256.371 152.634V154.508L240.65 145.285V143.459L256.371 152.634Z" fill="#F15A24"/>
<path d="M239.141 142.577V144.396L230.491 139.323V137.531L239.141 142.577Z" fill="#8CC63F"/>
<path d="M285.958 176.757L245.156 152.95V154.796L285.586 178.507C285.707 177.926 285.836 177.345 285.958 176.757Z" fill="#00A99D"/>
<path d="M240.712 156.212V158.051L225.485 149.122V147.33L240.712 156.212Z" fill="#F7931E"/>
<path d="M284.548 181.801L242.229 157.105V158.951L284.223 183.565C284.325 182.984 284.433 182.389 284.548 181.801Z" fill="#00A99D"/>
<path d="M283.56 187.199L278.433 184.205V186.16L283.242 188.984C283.35 188.391 283.456 187.796 283.56 187.199Z" fill="#8CC63F"/>
<path d="M276.915 183.326V185.275L252.883 171.177V169.303L276.915 183.326Z" fill="#F7931E"/>
<path d="M251.373 168.421V170.287L235.652 161.071V159.245L251.373 168.421Z" fill="#F15A24"/>
<path d="M234.135 158.363V160.182L225.485 155.108V153.317L234.135 158.363Z" fill="#8CC63F"/>
<path d="M282.543 192.556L241.74 168.749V170.595L282.163 194.306C282.299 193.711 282.434 193.13 282.543 192.556Z" fill="#00A99D"/>
<path d="M220.73 146.156L223.635 144.707L221.502 143.476L220.73 146.156Z" fill="#066D0A"/>
<path d="M205.707 108.033L209.235 106.234L208.822 108.778L206.621 109.441" fill="#066D0A"/>
<path d="M225.03 143.04L231.715 120.382C231.888 119.793 231.859 119.162 231.633 118.591C231.407 118.021 230.997 117.543 230.469 117.237L211.68 106.359C211.319 106.151 210.916 106.03 210.501 106.005C210.086 105.98 209.671 106.051 209.288 106.214C208.905 106.376 208.564 106.626 208.292 106.943C208.02 107.259 207.823 107.635 207.718 108.041L201.757 131.397C201.609 131.98 201.657 132.597 201.892 133.151C202.127 133.705 202.537 134.165 203.058 134.46L221.129 144.647C221.483 144.844 221.876 144.958 222.279 144.982C222.682 145.005 223.085 144.938 223.459 144.784C223.833 144.63 224.169 144.393 224.44 144.092C224.712 143.79 224.914 143.431 225.03 143.04Z" fill="#066D0A"/>
<path d="M221.888 144.626L228.573 121.968C228.746 121.379 228.717 120.748 228.491 120.177C228.264 119.607 227.855 119.129 227.327 118.823L208.538 107.931C208.177 107.723 207.773 107.602 207.359 107.577C206.944 107.552 206.529 107.624 206.146 107.786C205.763 107.949 205.422 108.198 205.15 108.515C204.877 108.832 204.681 109.207 204.576 109.613L198.615 132.969C198.467 133.553 198.515 134.17 198.75 134.723C198.985 135.277 199.395 135.737 199.916 136.032L217.987 146.219C218.34 146.416 218.732 146.531 219.134 146.556C219.537 146.58 219.94 146.514 220.313 146.361C220.687 146.208 221.023 145.973 221.295 145.673C221.567 145.373 221.77 145.015 221.888 144.626Z" fill="#139E20"/>
<path d="M211.606 116.789L210.963 118.84L210.197 118.451C210.083 118.383 209.955 118.344 209.824 118.335C209.692 118.327 209.56 118.35 209.439 118.403C209.308 118.47 209.194 118.567 209.106 118.685C209.018 118.804 208.958 118.941 208.931 119.087L208.064 121.876C207.979 122.162 207.854 122.434 207.691 122.683C207.582 122.864 207.434 123.018 207.258 123.134C207.13 123.211 206.993 123.273 206.851 123.319C206.756 123.355 206.654 123.369 206.553 123.36H206.438L206.533 123.462C206.603 123.555 206.667 123.654 206.722 123.756C206.812 123.913 206.88 124.081 206.926 124.256C206.971 124.48 206.99 124.71 206.98 124.939C206.973 125.255 206.92 125.568 206.824 125.869L205.95 128.672C205.842 128.966 205.842 129.288 205.95 129.582C206.055 129.859 206.258 130.088 206.519 130.224L207.291 130.628L206.614 132.679L205.463 132.07C204.717 131.714 204.13 131.09 203.817 130.32C203.528 129.502 203.528 128.608 203.817 127.79L204.779 124.857C204.893 124.549 204.893 124.209 204.779 123.9C204.657 123.601 204.43 123.357 204.142 123.216L204.731 121.309C204.853 121.386 204.991 121.434 205.135 121.448C205.278 121.462 205.423 121.443 205.557 121.391C205.69 121.324 205.806 121.228 205.896 121.109C205.986 120.991 206.049 120.853 206.079 120.707L206.993 117.767C207.076 117.382 207.239 117.02 207.473 116.705C207.707 116.39 208.005 116.129 208.348 115.942C208.695 115.81 209.067 115.763 209.435 115.804C209.804 115.844 210.157 115.971 210.468 116.174L211.606 116.789Z" fill="white"/>
<path d="M221.711 122.101C222.457 122.457 223.044 123.082 223.357 123.851C223.647 124.667 223.647 125.559 223.357 126.374L222.389 129.308C222.274 129.616 222.274 129.956 222.389 130.265C222.511 130.563 222.738 130.806 223.025 130.948L222.436 132.856C222.315 132.78 222.178 132.732 222.036 132.717C221.894 132.702 221.751 132.719 221.617 132.767C221.484 132.834 221.368 132.931 221.276 133.049C221.185 133.167 221.121 133.304 221.088 133.451L220.181 136.384C220.099 136.77 219.936 137.134 219.702 137.45C219.468 137.766 219.169 138.028 218.826 138.216C218.479 138.347 218.107 138.395 217.739 138.354C217.37 138.314 217.017 138.187 216.706 137.984L215.554 137.375L216.232 135.324L216.997 135.728C217.11 135.796 217.238 135.837 217.369 135.848C217.501 135.858 217.633 135.838 217.756 135.789C217.881 135.726 217.991 135.635 218.077 135.524C218.164 135.413 218.225 135.284 218.257 135.146L219.131 132.343C219.215 132.055 219.34 131.781 219.503 131.53C219.612 131.35 219.76 131.198 219.937 131.085C220.065 131.016 220.199 130.957 220.336 130.907C220.435 130.866 220.542 130.852 220.648 130.866H220.75L220.655 130.771C220.586 130.676 220.523 130.578 220.465 130.477C220.372 130.319 220.304 130.149 220.262 129.971C220.217 129.746 220.198 129.516 220.208 129.287C220.215 128.971 220.268 128.658 220.363 128.357L221.23 125.568C221.336 125.269 221.336 124.943 221.23 124.645C221.135 124.351 220.931 124.107 220.662 123.961L219.896 123.557L220.54 121.506L221.711 122.101Z" fill="white"/>
<path d="M218.522 124.843L214.844 127.729L216.043 133.39L213.801 132.207L213.015 128.686L210.57 130.504L208.334 129.328L212.222 126.347L211.112 120.939L213.435 122.163L214.038 125.397L216.205 123.619L218.522 124.843Z" fill="white"/>
</g>
<defs>
<filter id="filter0_d" x="145" y="94" width="180" height="185" filterUnits="userSpaceOnUse" color-interpolation-filters="sRGB">
<feFlood flood-opacity="0" result="BackgroundImageFix"/>
<feColorMatrix in="SourceAlpha" type="matrix" values="0 0 0 0 0 0 0 0 0 0 0 0 0 0 0 0 0 0 127 0"/>
<feOffset dx="5" dy="8"/>
<feGaussianBlur stdDeviation="10"/>
<feColorMatrix type="matrix" values="0 0 0 0 0 0 0 0 0 0 0 0 0 0 0 0 0 0 0.25 0"/>
<feBlend mode="normal" in2="BackgroundImageFix" result="effect1_dropShadow"/>
<feBlend mode="normal" in="SourceGraphic" in2="effect1_dropShadow" result="shape"/>
</filter>
<linearGradient id="paint0_linear" x1="160" y1="358" x2="160" y2="-1.10974e-05" gradientUnits="userSpaceOnUse">
<stop stop-color="#F1E80F"/>
<stop offset="0.331156" stop-color="#FFE600"/>
<stop offset="1" stop-color="#FFA800"/>
</linearGradient>
</defs>
</svg>
