<svg width="68" height="29" viewBox="0 0 68 29" fill="none" xmlns="http://www.w3.org/2000/svg">
<path d="M15.1082 20.3631C15.6181 22.3245 15.3536 23.9569 14.3148 25.2602C13.2726 26.5506 11.6739 27.4759 9.5189 28.0361C7.97037 28.4387 6.58393 28.5374 5.35957 28.3321C4.14477 28.1106 3.16096 27.6914 2.40815 27.0742C1.66824 26.4538 1.19765 25.7564 0.996371 24.9821C0.966179 24.866 0.979733 24.7592 1.03703 24.6616C1.10388 24.5478 1.19537 24.4758 1.31151 24.4456L5.68612 23.3084C5.80226 23.2782 5.9091 23.2917 6.00666 23.349C6.11712 23.403 6.20848 23.4894 6.28073 23.6084C6.7272 24.3189 7.44725 24.5451 8.44089 24.2868C9.0474 24.1291 9.48796 23.863 9.76258 23.4885C10.0501 23.1107 10.1251 22.6573 9.98755 22.1282L8.85537 17.7729L1.79019 19.6096C1.64824 19.6465 1.51223 19.6267 1.38216 19.5503C1.25209 19.4739 1.1686 19.3648 1.1317 19.2228L0.371878 16.3C0.334977 16.158 0.354726 16.022 0.431124 15.8919C0.507522 15.7619 0.616696 15.6784 0.758645 15.6415L12.5275 12.5821C12.6694 12.5452 12.8054 12.5649 12.9355 12.6413C13.0656 12.7177 13.1491 12.8269 13.186 12.9688L15.1082 20.3631ZM23.6139 23.4628C23.5602 23.9451 23.3268 24.24 22.9139 24.3473L19.2555 25.2984C19.1393 25.3286 19.026 25.3167 18.9156 25.2628C18.8147 25.1925 18.7491 25.0994 18.7189 24.9832L18.7081 24.8621L19.7124 11.3962C19.7204 11.215 19.7787 11.0415 19.8871 10.8755C19.9955 10.7096 20.1723 10.5947 20.4174 10.531L25.7986 9.13212C26.0438 9.06838 26.2541 9.08259 26.4296 9.17473C26.6051 9.26687 26.7405 9.39011 26.8357 9.54445L34.2708 20.8164L34.3204 20.9275C34.3506 21.0436 34.3323 21.1586 34.2654 21.2724C34.2081 21.37 34.1214 21.4339 34.0052 21.464L30.3468 22.4151C29.9339 22.5224 29.5865 22.3785 29.3047 21.9834L28.4686 20.7542L23.7455 21.982L23.6139 23.4628ZM24.0792 13.5674L23.7515 17.9508L26.5001 17.2363L24.0792 13.5674ZM46.8704 3.65431C46.9865 3.62412 47.0951 3.64412 47.196 3.71433C47.3064 3.76827 47.3768 3.85331 47.407 3.96945L47.4228 4.10998L46.1812 17.6169C46.1636 17.8143 46.1006 17.996 45.9922 18.1619C45.8805 18.315 45.7085 18.4217 45.4762 18.4821L40.9661 19.6545C40.7338 19.7149 40.5316 19.7055 40.3594 19.6262C40.184 19.5341 40.0519 19.4237 39.9634 19.2952L32.2472 8.05502L32.1926 7.92455C32.1624 7.80841 32.176 7.70157 32.2333 7.60401C32.3001 7.4902 32.3916 7.4182 32.5078 7.388L36.592 6.32627C36.8243 6.26588 37.0299 6.28822 37.2087 6.39326C37.3971 6.48205 37.5373 6.59716 37.6291 6.7386L41.7824 13.5735L42.0812 5.58125C42.0892 5.40008 42.1474 5.22652 42.2558 5.06057C42.3642 4.89463 42.541 4.77979 42.7862 4.71605L46.8704 3.65431ZM56.8922 14.8118C56.8384 15.2941 56.6051 15.589 56.1922 15.6963L52.5338 16.6474C52.4176 16.6776 52.3043 16.6657 52.1939 16.6118C52.093 16.5416 52.0274 16.4484 51.9972 16.3322L51.9864 16.2111L52.9907 2.74521C52.9987 2.56403 53.057 2.39047 53.1654 2.22453C53.2738 2.05858 53.4506 1.94374 53.6957 1.88L59.0769 0.481125C59.3221 0.417388 59.5324 0.43159 59.7079 0.523734C59.8834 0.615878 60.0188 0.739119 60.114 0.893457L67.5491 12.1654L67.5987 12.2765C67.6289 12.3926 67.6106 12.5076 67.5437 12.6214C67.4864 12.719 67.3997 12.7829 67.2835 12.813L63.6251 13.7641C63.2122 13.8714 62.8648 13.7275 62.583 13.3324L61.7469 12.1032L57.0238 13.331L56.8922 14.8118ZM57.3575 4.9164L57.0298 9.29985L59.7784 8.58531L57.3575 4.9164Z" fill="#355698" fill-opacity="0.09"/>
</svg>
