<svg width="24" height="33" viewBox="0 0 24 33" fill="none" xmlns="http://www.w3.org/2000/svg">
<path d="M12.6185 16.3872L15.0066 13.4314C17.8555 9.88319 20.7059 6.33313 23.5579 2.78117C23.7412 2.58094 23.8748 2.31976 23.9432 2.02824C24.0116 1.73672 24.0119 1.42695 23.9441 1.13523C23.888 0.860287 23.7697 0.61125 23.6031 0.417856C23.4366 0.224462 23.2289 0.0948807 23.0049 0.0445805C22.786 -0.0222294 22.5568 -0.0138132 22.3414 0.0689301C22.1261 0.151673 21.9329 0.305644 21.7823 0.514441C20.5635 2.03318 19.3485 3.55193 18.1373 5.07067C15.4286 8.44987 12.7175 11.8262 10.0042 15.1997C9.87287 15.351 9.76769 15.5342 9.69512 15.7379C9.62255 15.9416 9.58413 16.1616 9.58221 16.3845C9.58028 16.6074 9.61489 16.8284 9.68392 17.0341C9.75295 17.2397 9.85495 17.4256 9.98366 17.5804C13.9051 22.4669 17.8273 27.3535 21.7503 32.24C22.2713 32.8893 22.9203 32.9918 23.4573 32.5248C23.6128 32.3902 23.742 32.2138 23.8355 32.0085C23.9289 31.8033 23.9841 31.5746 23.997 31.3392C24.01 31.1038 23.9803 30.8679 23.9102 30.6487C23.8402 30.4295 23.7315 30.2328 23.5922 30.073C22.7535 29.0108 21.9011 27.9629 21.0556 26.9064L14.1176 18.2667C13.6354 17.6573 13.1396 17.0422 12.6185 16.3872Z" fill="url(#paint0_linear)"/>
<path d="M3.04021 16.5754C3.44469 16.0799 3.84232 15.5958 4.23538 15.106C6.15345 12.714 8.07076 10.321 9.9873 7.92712C11.3127 6.27548 12.6397 4.62765 13.9682 2.98361C14.5258 2.29163 14.5646 1.3035 14.0596 0.665626C13.5545 0.0277521 12.7501 0.0362969 12.1834 0.742512L0.473898 15.331C-0.156826 16.1198 -0.159109 17.0709 0.473898 17.8597L12.1834 32.4482C12.7501 33.1544 13.5363 33.1857 14.0596 32.5251C14.5829 31.8644 14.5166 30.9019 13.9682 30.2071L3.2276 16.8232C3.17047 16.7577 3.1179 16.6808 3.04021 16.5754Z" fill="url(#paint1_linear)"/>
<defs>
<linearGradient id="paint0_linear" x1="12" y1="6.90081e-09" x2="12.3184" y2="34.0538" gradientUnits="userSpaceOnUse">
<stop stop-color="#99BAED"/>
<stop offset="1" stop-color="#1E58B1"/>
</linearGradient>
<linearGradient id="paint1_linear" x1="12" y1="6.90081e-09" x2="12.3184" y2="34.0538" gradientUnits="userSpaceOnUse">
<stop stop-color="#99BAED"/>
<stop offset="1" stop-color="#1E58B1"/>
</linearGradient>
</defs>
</svg>
