<svg width="45" height="45" viewBox="0 0 45 45" fill="none" xmlns="http://www.w3.org/2000/svg">
<path d="M22.4885 45H22.5115C28.4757 44.9995 34.1955 42.6301 38.4128 38.4128C42.6301 34.1955 44.9995 28.4757 45 22.5115V22.4991C45 16.532 42.6296 10.8092 38.4102 6.58984C34.1908 2.37044 28.468 6.98969e-08 22.5009 6.98968e-08C19.5461 -0.000232828 16.6202 0.581552 13.8903 1.71213C11.1604 2.84272 8.67989 4.49995 6.59046 6.58921C4.50104 8.67847 2.84361 11.1588 1.71281 13.8887C0.582016 16.6185 -9.1786e-09 19.5443 0 22.4991L0 22.5115C0.000470268 28.4757 2.36994 34.1955 6.58724 38.4128C10.8045 42.6301 16.5243 44.9995 22.4885 45Z" fill="url(#paint0_linear)"/>
<path fill-rule="evenodd" clip-rule="evenodd" d="M21.6621 31.3588H23.3681C23.3681 31.3588 23.8824 31.3021 24.1467 31.0183C24.4109 30.7346 24.3808 30.2699 24.3808 30.2699C24.3808 30.2699 24.3471 27.9805 25.4093 27.6435C26.4716 27.3066 27.8016 29.855 29.2257 30.8357C30.3039 31.5752 31.1232 31.4138 31.1232 31.4138L34.9343 31.3606C34.9343 31.3606 36.9276 31.2364 35.9823 29.6705C35.9043 29.5411 35.4308 28.5107 33.1449 26.3915C30.7544 24.173 31.0753 24.533 33.9536 20.6954C35.7075 18.3598 36.408 16.934 36.1881 16.3222C35.9806 15.7405 34.6913 15.893 34.6913 15.893L30.3997 15.9214C30.2096 15.8982 30.017 15.9321 29.8464 16.0189C29.6834 16.1379 29.553 16.2958 29.4669 16.4782C29.0225 17.6316 28.4926 18.7502 27.8815 19.8246C25.975 23.0664 25.2107 23.2313 24.8986 23.0362C24.1715 22.5663 24.3542 21.1511 24.3542 20.1438C24.3542 16.9996 24.8312 15.6891 23.4249 15.3557C22.9585 15.2422 22.6145 15.1677 21.4227 15.1553C19.8905 15.1411 18.5959 15.1553 17.8617 15.5206C17.3794 15.7529 16.9963 16.2867 17.2269 16.3151C17.5106 16.3523 18.1526 16.4924 18.4931 16.9517C18.9329 17.5493 18.9169 18.9025 18.9169 18.9025C18.9169 18.9025 19.1705 22.6035 18.3264 23.0628C17.7482 23.3785 16.9555 22.7348 15.2513 19.7909C14.6732 18.7669 14.162 17.7066 13.7209 16.6165C13.6417 16.4319 13.5202 16.2684 13.3662 16.1395C13.167 16.0074 12.9432 15.9169 12.7082 15.8735L8.62943 15.8983C8.62943 15.8983 8.0176 15.916 7.79238 16.1821C7.59376 16.4197 7.77642 16.9092 7.77642 16.9092C7.77642 16.9092 10.9685 24.3769 14.5845 28.1419C17.899 31.5929 21.6621 31.3659 21.6621 31.3659V31.3588Z" fill="white"/>
<defs>
<linearGradient id="paint0_linear" x1="22.5" y1="0" x2="22.5" y2="45" gradientUnits="userSpaceOnUse">
<stop stop-color="#2391FC"/>
<stop offset="1" stop-color="#0011AC"/>
</linearGradient>
</defs>
</svg>
