<svg width="20" height="28" viewBox="0 0 20 28" fill="none" xmlns="http://www.w3.org/2000/svg">
<path d="M19.5768 0.127506C19.5299 0.170002 19.3502 0.330542 19.1783 0.483999C17.4049 2.06815 15.4783 4.26848 13.5768 6.87961C12.5658 8.27017 11.3846 10.0479 10.4049 11.6509C8.70957 14.4273 6.99863 17.6074 5.54082 20.6907L5.46582 20.8489L5.41582 20.8041C5.38769 20.7781 4.23144 19.7889 2.84394 18.6037C0.798632 16.859 0.318945 16.4577 0.30332 16.4837C0.206445 16.6442 0.0595699 16.9346 0.0642574 16.9558C0.0673824 16.97 1.48301 19.4607 3.21113 22.4897L6.35019 27.9976H6.46738L6.58613 28L6.82519 27.2729C9.54863 18.9956 12.4174 12.4914 15.9502 6.57506C16.9814 4.84926 18.4877 2.55921 19.6705 0.923122C19.8033 0.738974 19.9111 0.573711 19.9111 0.554825C19.908 0.519413 19.6846 0.0495987 19.6705 0.0495987C19.6658 0.0495987 19.6236 0.0826492 19.5768 0.127506Z" fill="#FFC700"/>
</svg>
