<svg width="182" height="180" viewBox="0 0 182 180" fill="none" xmlns="http://www.w3.org/2000/svg">
<g clip-path="url(#clip0)">
<g filter="url(#filter0_d)">
<path d="M13 114.026V116.43L14.2047 117.921" fill="#ADCEE1"/>
<path d="M60.9762 84.7511L14.3638 113.847C13.9408 114.116 13.5939 114.49 13.3568 114.934C13.1197 115.377 13.0005 115.875 13.0107 116.379C13.021 116.883 13.1603 117.375 13.4151 117.809C13.67 118.242 14.0318 118.602 14.4655 118.853L85.2077 159.153C86.1964 159.717 87.315 160.009 88.4512 160C89.5873 159.991 90.7012 159.681 91.681 159.102L138.09 131.629C141.465 128.837 141.211 123.589 138.09 123.363L67.7544 84.6268C66.7199 84.0256 65.5424 83.7194 64.3482 83.7413C63.154 83.7632 61.9883 84.1123 60.9762 84.7511V84.7511Z" fill="#88D3D8"/>
<path d="M60.9761 82.7449L14.3565 111.841C13.9335 112.11 13.5866 112.484 13.3495 112.928C13.1124 113.371 12.9932 113.869 13.0034 114.373C13.0136 114.877 13.1529 115.369 13.4078 115.803C13.6627 116.236 14.0245 116.596 14.4581 116.847L85.2003 157.147C86.1891 157.711 87.3076 158.003 88.4438 157.994C89.5799 157.985 90.6938 157.675 91.6736 157.096L138.083 129.623C138.618 129.297 139.06 128.839 139.367 128.291C139.674 127.743 139.835 127.124 139.835 126.495C139.835 125.865 139.674 125.247 139.367 124.699C139.06 124.151 138.618 123.692 138.083 123.367L67.7252 82.6279C66.6948 82.0312 65.5231 81.727 64.3346 81.7476C63.1462 81.7682 61.9855 82.1128 60.9761 82.7449V82.7449Z" fill="white"/>
<path d="M62.5535 78.6348C62.5535 78.6348 81.886 16.4686 81.7628 16.4686C81.6396 16.4686 82.3642 13.7035 85.8206 15.2701L160.006 58.7743C160.006 58.7743 163.629 60.2181 162.904 63.5607C162.18 66.9033 143.977 124.391 143.977 124.391C143.597 124.938 143.053 125.349 142.422 125.566C141.791 125.783 141.108 125.794 140.47 125.597C138.21 124.875 64.2636 82.1001 64.2636 82.1001C63.5911 81.8456 63.0406 81.3464 62.7232 80.7032C62.4058 80.06 62.3452 79.3208 62.5535 78.6348V78.6348Z" fill="#112E7C"/>
<path d="M83.7386 22.9473L157.034 64.5525L140.841 116.763L67.5454 75.1578L83.7386 22.9473Z" fill="#172D51"/>
<path d="M58.1245 89.4127L41.0775 100.105C40.7739 100.294 40.5244 100.559 40.3534 100.874C40.1825 101.19 40.0961 101.544 40.1026 101.904C40.1092 102.263 40.2086 102.614 40.391 102.923C40.5734 103.232 40.8325 103.487 41.1428 103.665L102.342 138.79C103.257 139.322 104.294 139.602 105.35 139.602C106.406 139.602 107.443 139.322 108.358 138.79C112.291 136.481 119.062 132.322 123.206 129.764C123.575 129.536 123.878 129.215 124.087 128.833C124.296 128.452 124.404 128.022 124.398 127.586C124.393 127.15 124.276 126.723 124.058 126.347C123.84 125.97 123.529 125.657 123.155 125.437C110.767 118.158 70.4107 94.5215 61.5571 89.3542C61.0335 89.0492 60.4374 88.8935 59.8327 88.9038C59.228 88.9141 58.6374 89.09 58.1245 89.4127V89.4127Z" fill="#112E7C"/>
<path d="M59.0388 118.443L80.411 130.546C80.7366 130.734 81.0072 131.005 81.1954 131.333C81.3836 131.66 81.4826 132.031 81.4826 132.409C81.4826 132.788 81.3836 133.159 81.1954 133.486C81.0072 133.814 80.7366 134.085 80.411 134.273L67.8416 141.684C67.4103 141.935 66.921 142.067 66.4229 142.067C65.9248 142.067 65.4355 141.935 65.0041 141.684L43.1675 129.121C42.8945 128.963 42.6677 128.736 42.5099 128.462C42.3521 128.188 42.269 127.877 42.269 127.56C42.269 127.243 42.3521 126.932 42.5099 126.658C42.6677 126.384 42.8945 126.157 43.1675 126L56.2303 118.435C56.6588 118.191 57.143 118.063 57.6355 118.064C58.1279 118.066 58.6115 118.196 59.0388 118.443V118.443Z" fill="#112E7C"/>
<path opacity="0.1" d="M58.1245 89.4127L41.0775 100.105C40.7739 100.294 40.5244 100.559 40.3534 100.874C40.1825 101.19 40.0961 101.544 40.1026 101.904C40.1092 102.263 40.2086 102.614 40.391 102.923C40.5734 103.232 40.8325 103.487 41.1428 103.665L102.342 138.79C103.257 139.322 104.294 139.602 105.35 139.602C106.406 139.602 107.443 139.322 108.358 138.79C112.291 136.481 119.062 132.322 123.206 129.764C123.575 129.536 123.878 129.215 124.087 128.833C124.296 128.452 124.404 128.022 124.398 127.586C124.393 127.15 124.276 126.723 124.058 126.347C123.84 125.97 123.529 125.657 123.155 125.437C110.767 118.158 70.4107 94.5215 61.5571 89.3542C61.0335 89.0492 60.4374 88.8935 59.8327 88.9038C59.228 88.9141 58.6374 89.09 58.1245 89.4127V89.4127Z" fill="#053855"/>
<path opacity="0.1" d="M59.0388 118.443L80.411 130.546C80.7366 130.734 81.0072 131.005 81.1954 131.333C81.3836 131.66 81.4826 132.031 81.4826 132.409C81.4826 132.788 81.3836 133.159 81.1954 133.486C81.0072 133.814 80.7366 134.085 80.411 134.273L67.8416 141.684C67.4103 141.935 66.921 142.067 66.4229 142.067C65.9248 142.067 65.4355 141.935 65.0041 141.684L43.1675 129.121C42.8945 128.963 42.6677 128.736 42.5099 128.462C42.3521 128.188 42.269 127.877 42.269 127.56C42.269 127.243 42.3521 126.932 42.5099 126.658C42.6677 126.384 42.8945 126.157 43.1675 126L56.2303 118.435C56.6588 118.191 57.143 118.063 57.6355 118.064C58.1279 118.066 58.6115 118.196 59.0388 118.443V118.443Z" fill="#053855"/>
<path d="M43.1315 120.827C41.6103 116.542 40.7869 112.038 40.6931 107.488C40.4536 101.692 42.5654 92.7684 50.9909 93.3385C62.8272 94.1425 67.029 107.123 73.3717 110.675C79.7144 114.227 94.0471 108.351 94.9906 113.774C95.934 119.197 93.3795 125.599 89.6566 129.539C80.7014 139.04 62.936 138.309 52.3843 132.111C48.0855 129.554 44.8118 125.561 43.1315 120.827V120.827Z" fill="#FA6D90"/>
<path d="M84.9248 130.538C65.5919 133.162 42.1079 120.518 41.1644 101.216C40.7482 103.212 40.5679 105.251 40.6274 107.289C40.7212 111.839 41.5446 116.343 43.0658 120.628C44.7465 125.366 48.0231 129.362 52.3259 131.92C62.7761 138.037 80.302 138.819 89.3371 129.603C87.8912 130.023 86.4164 130.336 84.9248 130.538V130.538Z" fill="#D64770"/>
<path d="M92.748 88.0038C92.7494 87.6751 92.6684 87.3513 92.5123 87.0625C92.3563 86.7738 92.1303 86.5294 91.8554 86.3521C91.8285 86.0785 91.7305 85.8169 91.5712 85.5937C91.412 85.3704 91.1971 85.1933 90.9483 85.0803C90.9134 85.0642 90.8769 85.052 90.8394 85.0438C91.2701 84.2124 91.6201 83.3411 91.8844 82.4419C91.8749 82.2906 91.8165 82.1467 91.7181 82.032C91.6197 81.9172 91.4868 81.8381 91.3396 81.8066C91.1924 81.7752 91.0389 81.7931 90.9028 81.8576C90.7666 81.9222 90.6552 82.0298 90.5854 82.1642C90.181 83.2949 89.6605 84.38 89.0324 85.4019C88.98 85.3741 88.9238 85.3544 88.8655 85.3435C88.0745 85.2338 87.4141 85.0365 87.1021 85.9647C86.79 86.8929 86.6304 87.748 86.3764 88.6397C86.356 88.7139 86.3516 88.7915 86.3634 88.8676C86.3752 88.9436 86.403 89.0162 86.4449 89.0805C86.4868 89.1448 86.5419 89.1994 86.6064 89.2406C86.6709 89.2818 86.7434 89.3087 86.819 89.3194C86.872 89.474 86.9828 89.6017 87.1278 89.6754C87.2728 89.7491 87.4406 89.763 87.5955 89.7141C87.6306 89.8368 87.6898 89.9511 87.7697 90.0503L87.7262 90.1014C87.6574 90.1937 87.6156 90.3035 87.6053 90.4184C87.595 90.5333 87.6167 90.6488 87.6679 90.752C87.7192 90.8552 87.7979 90.942 87.8953 91.0027C87.9928 91.0633 88.1051 91.0954 88.2196 91.0954C87.7334 91.4316 88.0237 92.3379 88.6551 92.1113C89.8815 91.6655 91.6087 91.3805 92.5593 90.3938C92.894 90.0988 93.101 89.6839 93.1362 89.2375C93.1715 88.791 93.0322 88.3483 92.748 88.0038V88.0038Z" fill="#FFB5A9"/>
<path d="M89.0397 89.881C89.0866 89.7907 89.1142 89.6915 89.1208 89.5898C89.1274 89.4881 89.1127 89.3862 89.0779 89.2905C89.043 89.1948 88.9887 89.1076 88.9184 89.0343C88.8481 88.961 88.7633 88.9034 88.6696 88.865L88.7857 88.675C88.858 88.5462 88.8899 88.3984 88.877 88.251C88.8641 88.1036 88.8071 87.9636 88.7135 87.8495C88.6199 87.7354 88.4941 87.6527 88.3528 87.6122C88.2115 87.5716 88.0613 87.5753 87.9221 87.6226C87.8509 87.5318 87.7593 87.4593 87.6548 87.4111C87.5504 87.3629 87.4361 87.3404 87.3213 87.3454C87.2065 87.3504 87.0945 87.3828 86.9946 87.4398C86.8947 87.4969 86.8096 87.5771 86.7464 87.6737C85.973 89.0488 85.1049 90.3676 84.1484 91.6204C84.0582 91.7344 84.0021 91.872 83.9867 92.0169C83.9713 92.1619 83.9971 92.3083 84.0613 92.439L83.8727 92.724C83.8142 92.8072 83.776 92.903 83.7611 93.0037C83.7462 93.1045 83.755 93.2074 83.7867 93.3041C83.8185 93.4008 83.8724 93.4886 83.944 93.5605C84.0157 93.6324 84.1031 93.6864 84.1992 93.718C84.3128 93.879 84.4803 93.9932 84.6709 94.0396C84.4677 94.5293 84.954 94.9532 85.4329 94.9386C85.49 95.023 85.5652 95.0934 85.6529 95.1445C85.7407 95.1956 85.8387 95.2262 85.9398 95.2339C86.0409 95.2416 86.1425 95.2263 86.2369 95.1891C86.3313 95.1519 86.4162 95.0937 86.4852 95.019C87.6609 93.8036 88.6098 92.3851 89.2864 90.8311C89.3606 90.6684 89.3766 90.4848 89.3316 90.3116C89.2866 90.1384 89.1835 89.9862 89.0397 89.881V89.881Z" fill="#FFB5A9"/>
<path d="M83.2482 113.887C86.2381 111.11 89.5691 107.119 87.4646 103.947C83.9812 98.714 74.6123 104.817 73.0738 105.146C66.3174 106.607 52.3621 122.686 64.9604 122.109C70.6875 121.848 76.1832 119.757 80.6502 116.138C81.3396 115.568 82.2757 114.793 83.2482 113.887Z" fill="#3E2928"/>
<path d="M83.1551 113.774C83.2419 113.491 83.4309 113.252 83.6848 113.102C84.8755 112.426 86.175 111.966 87.5239 111.743C87.7298 111.693 87.9449 111.698 88.1484 111.757C88.3519 111.816 88.5367 111.927 88.685 112.079V112.079C89.2148 107.043 87.4513 103.93 87.4513 103.93L82.7632 114.162C82.9011 114.038 83.0172 113.906 83.1551 113.774Z" fill="#3E2928"/>
<path d="M85.3394 89.5055C85.1769 89.4531 85.0264 89.3686 84.8967 89.257L77.8138 95.4986C76.2765 93.0449 75.3826 90.2385 75.2158 87.3421C74.9545 82.5549 65.8396 81.7437 65.8396 81.7437L69.7439 98.0274C69.7439 98.0274 72.3492 104.605 76.7615 105.146C80.2086 105.584 87.3351 98.3562 90.2307 94.2342C89.0478 92.2023 87.6472 90.2656 85.3394 89.5055Z" fill="#00A99D"/>
<path d="M61.5499 76.2412C58.3071 79.0679 55.8573 82.7019 54.4453 86.7803C51.9416 93.7528 58.2044 105.154 58.2044 105.154L67.958 97.3925" fill="#006D62"/>
<path d="M53.8791 114.265C53.8111 115.65 54.152 117.023 54.8588 118.212C55.763 119.652 57.1312 120.736 58.7341 121.282C60.7314 121.964 62.841 122.249 64.9462 122.122C69.3004 121.837 73.0524 119.805 76.2237 117.006C75.6214 109.296 73.4588 103.916 71.6155 101.285L59.8154 95.5479C59.888 95.5479 57.5149 100.328 57.4061 100.584C56.1902 103.441 55.2521 106.41 54.6048 109.449C54.2116 111.028 53.9686 112.64 53.8791 114.265V114.265Z" fill="#3E2928"/>
<path d="M71.4046 87.9289L58.9224 87.3516L55.8019 103.957C59.5248 106.544 70.8386 105.55 73.0665 105.155C72.3771 100.134 71.9344 92.9646 71.4046 87.9289Z" fill="#00A99D"/>
<path d="M71.5286 80.7207C72.4982 79.3809 73.1906 77.8584 73.5646 76.2438C73.9386 74.6292 73.9866 72.9554 73.7057 71.3218C73.234 68.0036 71.4125 65.2482 67.9001 64.6489C62.4573 63.728 58.5022 68.3544 58.5893 73.529C58.6328 76.4159 58.9449 78.3673 56.8331 79.5732C54.7213 80.7792 53.2045 83.9584 55.2075 86.5019C57.2104 89.0453 55.4107 88.1317 54.0681 90.3974C52.7256 92.6631 53.0739 95.5135 55.8316 96.5367C58.5893 97.5599 71.398 95.6377 72.5736 94.4318C72.9921 93.9504 73.2081 93.3239 73.176 92.685C72.8753 91.0773 72.0065 89.6337 70.7304 88.6214C69.6924 87.7407 68.8367 86.6629 68.2122 85.4494C67.1889 83.3226 70.324 82.2774 71.5286 80.7207Z" fill="#FF8A00"/>
<path d="M104.84 41.807V43.773L88.5261 34.2205V32.3057L104.84 41.807Z" fill="#F7931E"/>
<path d="M151.8 69.146L106.443 42.7471V44.7204L151.437 71.0316C151.437 71.0316 151.677 69.7453 151.8 69.146Z" fill="#00A99D"/>
<path d="M150.712 74.9258L145.218 71.7246V73.8149L150.371 76.8334C150.506 76.2 150.62 75.5641 150.712 74.9258Z" fill="#8CC63F"/>
<path d="M143.628 70.7841V72.8744L117.88 57.8038V55.7939L143.628 70.7841Z" fill="#F7931E"/>
<path d="M116.255 54.8508V56.8533L99.4111 46.9939V45.0425L116.255 54.8508Z" fill="#F15A24"/>
<path d="M97.7934 44.0999V46.044L88.5261 40.6209V38.7061L97.7934 44.0999Z" fill="#8CC63F"/>
<path d="M147.955 80.6364L104.239 55.1875V57.1608L147.556 82.5075C147.687 81.8862 147.824 81.265 147.955 80.6364Z" fill="#00A99D"/>
<path d="M99.4767 58.6747V60.6407L83.1627 51.0955V49.1807L99.4767 58.6747Z" fill="#F7931E"/>
<path d="M146.445 86.0283L101.102 59.6294V61.6027L146.096 87.9139C146.205 87.2927 146.321 86.6568 146.445 86.0283Z" fill="#00A99D"/>
<path d="M145.386 91.7994L139.892 88.5981V90.6885L145.045 93.707C145.161 93.0736 145.274 92.4377 145.386 91.7994Z" fill="#8CC63F"/>
<path d="M138.266 87.659V89.742L112.518 74.6715V72.6689L138.266 87.659Z" fill="#F7931E"/>
<path d="M110.899 71.7253V73.7206L94.0558 63.8684V61.917L110.899 71.7253Z" fill="#F15A24"/>
<path d="M92.43 60.9744V62.9186L83.1627 57.4955V55.5806L92.43 60.9744Z" fill="#8CC63F"/>
<path d="M144.296 97.525L100.579 72.0762V74.0495L143.889 99.396C144.034 98.7602 144.18 98.139 144.296 97.525Z" fill="#00A99D"/>
<path d="M78.0676 47.9255L81.1809 46.3761L78.8949 45.0605L78.0676 47.9255Z" fill="#066D0A"/>
<path d="M61.9712 7.17267L65.7522 5.25049L65.3095 7.96931L62.9509 8.67825" fill="#066D0A"/>
<path d="M82.6753 44.5947L89.838 20.3738C90.0229 19.7438 89.9917 19.0695 89.7494 18.4595C89.5072 17.8496 89.068 17.3396 88.5027 17.0118L68.3716 5.38368C67.9848 5.16163 67.5525 5.03216 67.1081 5.00526C66.6637 4.97837 66.2192 5.05478 65.8088 5.22858C65.3984 5.40238 65.0332 5.66891 64.7414 6.00757C64.4497 6.34622 64.2392 6.74793 64.1262 7.18161L57.7399 32.1481C57.5816 32.7722 57.6323 33.4315 57.8842 34.0236C58.1362 34.6157 58.5753 35.1074 59.1333 35.4223L78.4952 46.3123C78.8743 46.5226 79.2953 46.6449 79.7273 46.6701C80.1594 46.6954 80.5916 46.6231 80.9924 46.4585C81.3931 46.2938 81.7522 46.041 82.0434 45.7185C82.3346 45.3961 82.5505 45.0121 82.6753 44.5947V44.5947Z" fill="#066D0A"/>
<path d="M79.3086 46.2901L86.4714 22.0691C86.6562 21.4391 86.625 20.7648 86.3828 20.1548C86.1405 19.5449 85.7013 19.0349 85.1361 18.7071L65.0049 7.06434C64.6181 6.8423 64.1858 6.71282 63.7414 6.68593C63.297 6.65903 62.8525 6.73544 62.4421 6.90924C62.0317 7.08304 61.6665 7.34958 61.3747 7.68823C61.083 8.02689 60.8725 8.42859 60.7595 8.86228L54.3733 33.8288C54.2149 34.4529 54.2656 35.1122 54.5175 35.7043C54.7695 36.2964 55.2086 36.7882 55.7666 37.1031L75.1285 47.993C75.5067 48.2035 75.9267 48.3264 76.358 48.3526C76.7893 48.3788 77.2209 48.3078 77.6214 48.1446C78.022 47.9814 78.3813 47.7302 78.6732 47.4094C78.9651 47.0886 79.1822 46.7062 79.3086 46.2901V46.2901Z" fill="#139E20"/>
<path d="M68.2921 16.5336L67.6027 18.7262L66.7826 18.3096C66.6607 18.2373 66.5235 18.195 66.3823 18.1861C66.2411 18.1772 66.0998 18.202 65.9698 18.2584C65.8297 18.3304 65.7079 18.4336 65.6135 18.5603C65.5192 18.687 65.4549 18.8337 65.4255 18.9893L64.4966 21.9712C64.4063 22.2769 64.2718 22.5675 64.0975 22.8337C63.9803 23.0273 63.8217 23.1922 63.6331 23.316C63.496 23.3986 63.3499 23.4649 63.1976 23.5134C63.0958 23.5519 62.9867 23.5669 62.8783 23.5572H62.7549L62.8565 23.6669C62.932 23.7663 63 23.8714 63.0597 23.9811C63.1553 24.1485 63.2285 24.3279 63.2775 24.5147C63.3264 24.755 63.3459 25.0004 63.3355 25.2455C63.3279 25.5832 63.2717 25.9181 63.1686 26.2395L62.2324 29.2361C62.1168 29.5496 62.1168 29.8946 62.2324 30.2081C62.3444 30.5051 62.5616 30.7498 62.842 30.8951L63.6693 31.3264L62.9436 33.519L61.7099 32.8685C60.9113 32.4877 60.2825 31.8205 59.9465 30.9975C59.637 30.123 59.637 29.1677 59.9465 28.2933L60.977 25.1578C61.0994 24.8279 61.0994 24.4645 60.977 24.1346C60.8468 23.8147 60.6038 23.5544 60.2948 23.4037L60.9262 21.3646C61.0568 21.4475 61.2049 21.4985 61.3586 21.5138C61.5123 21.529 61.6673 21.508 61.8115 21.4523C61.9533 21.3808 62.0773 21.2779 62.174 21.1513C62.2708 21.0248 62.3379 20.8778 62.3703 20.7215L63.35 17.5787C63.4383 17.1674 63.6136 16.7801 63.8641 16.4434C64.1146 16.1066 64.4343 15.8282 64.8014 15.6273C65.173 15.4872 65.572 15.4367 65.9665 15.4798C66.3609 15.523 66.7399 15.6586 67.0729 15.8758L68.2921 16.5336Z" fill="white"/>
<path d="M79.1194 22.2115C79.918 22.5924 80.5468 23.2595 80.8829 24.0826C81.193 24.9544 81.193 25.9076 80.8829 26.7795L79.8451 29.9149C79.7227 30.2448 79.7227 30.6082 79.8451 30.9381C79.9765 31.2573 80.219 31.5172 80.5273 31.669L79.8959 33.7081C79.7661 33.6267 79.6197 33.5759 79.4676 33.5595C79.3156 33.543 79.1618 33.5614 79.0178 33.6131C78.8755 33.6851 78.751 33.788 78.6531 33.9144C78.5552 34.0408 78.4864 34.1875 78.4517 34.344L77.4792 37.4794C77.392 37.892 77.2171 38.2807 76.9665 38.6188C76.716 38.9569 76.3957 39.2364 76.0278 39.4381C75.6562 39.5782 75.2572 39.6288 74.8627 39.5856C74.4683 39.5425 74.0893 39.4068 73.7563 39.1896L72.5226 38.5391L73.2483 36.3465L74.0684 36.7777C74.1898 36.8508 74.3262 36.8947 74.4671 36.9061C74.6081 36.9175 74.7498 36.8961 74.8812 36.8435C75.0152 36.7757 75.1328 36.6789 75.2256 36.5602C75.3184 36.4415 75.3842 36.3037 75.4182 36.1565L76.3544 33.1599C76.4447 32.852 76.5791 32.559 76.7535 32.2902C76.8699 32.0979 77.0289 31.9354 77.218 31.8152C77.3559 31.7414 77.499 31.6779 77.6462 31.6251C77.7515 31.5807 77.8668 31.5656 77.98 31.5813H78.0888L77.9872 31.479C77.9139 31.378 77.8461 31.2731 77.784 31.1647C77.6848 30.9965 77.6114 30.8142 77.5663 30.6238C77.5179 30.3834 77.4984 30.1381 77.5083 29.893C77.5163 29.5553 77.5725 29.2205 77.6752 28.899L78.6041 25.917C78.7176 25.5981 78.7176 25.2493 78.6041 24.9304C78.5015 24.617 78.2833 24.3554 77.9945 24.1995L77.1744 23.7683L77.8639 21.5757L79.1194 22.2115Z" fill="white"/>
<path d="M75.7018 25.143L71.7611 28.2273L73.0457 34.2789L70.6435 33.0145L69.8017 29.2505L67.1819 31.1946L64.787 29.9375L68.9526 26.7509L67.7624 20.9697L70.2516 22.278L70.8975 25.735L73.2198 23.8347L75.7018 25.143Z" fill="white"/>
</g>
</g>
<defs>
<filter id="filter0_d" x="-2" y="-7" width="190" height="195" filterUnits="userSpaceOnUse" color-interpolation-filters="sRGB">
<feFlood flood-opacity="0" result="BackgroundImageFix"/>
<feColorMatrix in="SourceAlpha" type="matrix" values="0 0 0 0 0 0 0 0 0 0 0 0 0 0 0 0 0 0 127 0"/>
<feOffset dx="5" dy="8"/>
<feGaussianBlur stdDeviation="10"/>
<feColorMatrix type="matrix" values="0 0 0 0 0 0 0 0 0 0 0 0 0 0 0 0 0 0 0.25 0"/>
<feBlend mode="normal" in2="BackgroundImageFix" result="effect1_dropShadow"/>
<feBlend mode="normal" in="SourceGraphic" in2="effect1_dropShadow" result="shape"/>
</filter>
<clipPath id="clip0">
<rect width="182" height="180" fill="white"/>
</clipPath>
</defs>
</svg>
