<svg width="200" height="201" viewBox="0 0 200 201" fill="none" xmlns="http://www.w3.org/2000/svg">
<path d="M103.482 198.306L197.697 142.202C198.381 141.796 198.953 141.208 199.357 140.495C199.761 139.783 199.982 138.971 199.999 138.139C200.016 137.308 199.828 136.487 199.454 135.756C199.079 135.026 198.532 134.412 197.865 133.975L106.535 73.9352C105.842 73.4784 105.045 73.2302 104.229 73.2171C103.413 73.204 102.609 73.4267 101.904 73.8611L2.24671 135.235C1.56353 135.654 0.996299 136.256 0.601947 136.982C0.207595 137.707 0 138.53 0 139.367C0 140.204 0.207595 141.027 0.601947 141.752C0.996299 142.478 1.56353 143.08 2.24671 143.499L91.1108 198.217C92.9878 199.371 95.116 199.986 97.2854 200.002C99.4548 200.018 101.591 199.433 103.482 198.306Z" fill="#F8997C"/>
<path d="M175.365 132.466V135.283L174.023 137.025" fill="#ADCEE1"/>
<path d="M122.006 98.1664L173.84 132.263C174.313 132.575 174.702 133.012 174.968 133.532C175.234 134.052 175.368 134.637 175.357 135.228C175.346 135.82 175.19 136.398 174.904 136.906C174.618 137.414 174.213 137.834 173.728 138.126L95.0769 185.327C93.9774 185.986 92.7338 186.327 91.4709 186.316C90.208 186.304 88.9702 185.94 87.8817 185.26L36.2789 153.084C32.5276 149.815 32.7861 143.663 36.2789 143.403L114.483 98.0404C115.63 97.3361 116.936 96.9758 118.261 96.998C119.586 97.0202 120.881 97.4241 122.006 98.1664Z" fill="#88D3D8"/>
<path d="M122.012 95.8141L173.845 129.911C174.319 130.223 174.708 130.66 174.974 131.18C175.24 131.7 175.373 132.284 175.362 132.876C175.351 133.467 175.195 134.045 174.909 134.554C174.624 135.062 174.218 135.482 173.733 135.774L95.0753 182.982C93.9758 183.642 92.7322 183.982 91.4693 183.971C90.2064 183.959 88.9687 183.595 87.8801 182.916L36.2775 150.732C35.6729 150.359 35.1711 149.824 34.8224 149.181C34.4736 148.537 34.29 147.808 34.29 147.066C34.29 146.324 34.4736 145.595 34.8224 144.952C35.1711 144.309 35.6729 143.774 36.2775 143.401L114.481 95.6881C115.629 94.9824 116.937 94.6213 118.263 94.6435C119.59 94.6657 120.885 95.0704 122.012 95.8141Z" fill="white"/>
<path d="M125.232 103.63L144.184 116.156C144.52 116.378 144.796 116.689 144.985 117.058C145.174 117.427 145.27 117.842 145.262 118.262C145.254 118.682 145.144 119.093 144.941 119.454C144.739 119.815 144.451 120.114 144.107 120.322L76.0811 161.468C75.0646 162.089 73.9118 162.417 72.7384 162.417C71.5651 162.417 70.4123 162.089 69.3958 161.468C65.0228 158.762 57.5203 153.892 52.8888 150.898C52.4811 150.628 52.1456 150.252 51.9149 149.805C51.6841 149.358 51.5659 148.856 51.5715 148.346C51.5771 147.836 51.7064 147.337 51.9469 146.896C52.1875 146.455 52.5311 146.087 52.9447 145.828C66.7064 137.341 111.624 109.641 121.404 103.578C121.986 103.215 122.65 103.029 123.325 103.038C123.999 103.047 124.659 103.252 125.232 103.63Z" fill="#112E7C"/>
<path d="M124.17 137.636L100.419 151.816C100.054 152.033 99.7502 152.349 99.5374 152.731C99.3246 153.113 99.2107 153.548 99.2071 153.992C99.2036 154.436 99.3105 154.873 99.5172 155.259C99.7238 155.644 100.023 155.965 100.384 156.189L114.355 164.869C114.835 165.163 115.38 165.318 115.934 165.318C116.488 165.318 117.033 165.163 117.513 164.869L141.83 150.156C142.135 149.972 142.388 149.706 142.565 149.384C142.741 149.063 142.834 148.697 142.834 148.325C142.834 147.953 142.741 147.587 142.565 147.266C142.388 146.944 142.135 146.678 141.83 146.494L127.293 137.599C126.814 137.318 126.274 137.173 125.727 137.18C125.179 137.186 124.643 137.344 124.17 137.636Z" fill="#112E7C"/>
<path opacity="0.1" d="M125.232 103.63L144.184 116.156C144.52 116.378 144.796 116.689 144.985 117.058C145.174 117.427 145.27 117.842 145.262 118.262C145.254 118.682 145.144 119.093 144.941 119.454C144.739 119.815 144.451 120.114 144.107 120.322L76.0811 161.468C75.0646 162.089 73.9118 162.417 72.7384 162.417C71.5651 162.417 70.4123 162.089 69.3958 161.468C65.0228 158.762 57.5203 153.892 52.8888 150.898C52.4811 150.628 52.1456 150.252 51.9149 149.805C51.6841 149.358 51.5659 148.856 51.5715 148.346C51.5771 147.836 51.7064 147.337 51.9469 146.896C52.1875 146.455 52.5311 146.087 52.9447 145.828C66.7064 137.341 111.624 109.641 121.404 103.578C121.986 103.215 122.65 103.029 123.325 103.038C123.999 103.047 124.659 103.252 125.232 103.63Z" fill="#053855"/>
<path opacity="0.1" d="M124.17 137.636L100.419 151.816C100.054 152.033 99.7502 152.349 99.5374 152.731C99.3246 153.113 99.2107 153.548 99.2071 153.992C99.2036 154.436 99.3105 154.873 99.5172 155.259C99.7238 155.644 100.023 155.965 100.384 156.189L114.355 164.869C114.835 165.163 115.38 165.318 115.934 165.318C116.488 165.318 117.033 165.163 117.513 164.869L141.83 150.156C142.135 149.972 142.388 149.706 142.565 149.384C142.741 149.063 142.834 148.697 142.834 148.325C142.834 147.953 142.741 147.587 142.565 147.266C142.388 146.944 142.135 146.678 141.83 146.494L127.293 137.599C126.814 137.318 126.274 137.173 125.727 137.18C125.179 137.186 124.643 137.344 124.17 137.636Z" fill="#053855"/>
<path opacity="0.32" d="M162.663 131.766L126.68 155.047L91.7168 132.892L125.904 110.566" fill="url(#paint0_linear)"/>
<path d="M148.619 119.706V136.977H149.821L150.079 119.262" fill="#808080"/>
<path d="M155.473 113.06L157.883 131.836H156.674L154.152 113.757" fill="#808080"/>
<path d="M131.134 126.191C131.134 126.191 130.009 130.098 129.737 130.498C129.465 130.898 125.804 133.463 125.867 134.271C125.93 135.079 127.32 135.397 128.186 135.331C129.052 135.264 134.04 133.055 134.355 132.403C134.669 131.751 134.669 126.191 134.669 126.191H131.134Z" fill="#5C2D1D"/>
<path d="M137.053 130.764C137.053 130.764 135.928 134.67 135.656 135.07C135.384 135.47 131.723 138.035 131.786 138.843C131.849 139.651 133.239 139.97 134.105 139.903C134.971 139.836 139.959 137.627 140.273 136.975C140.588 136.323 140.588 130.764 140.588 130.764H137.053Z" fill="#5C2D1D"/>
<path d="M156.124 95.2067C155.803 96.1555 154.028 110.557 154.028 110.557L152.212 109.913L154.566 95.1326" fill="#808080"/>
<path d="M155.473 113.063L155.501 110.743L153.566 111.447L154.153 113.759" fill="#A9CBF8"/>
<path d="M151.081 109.465C151.081 109.465 155.97 111.444 155.454 113.394C154.937 115.343 151.088 120.117 148.601 119.701C146.114 119.286 143.082 116.996 143.082 116.996" fill="#4A42A4"/>
<path d="M151.081 107.096C151.081 107.096 155.97 109.076 155.454 111.025C154.937 112.974 151.088 117.748 148.601 117.333C146.114 116.918 143.082 114.627 143.082 114.627" fill="#A6ACED"/>
<path d="M153.028 89.0078C153.028 89.0078 157.723 90.2531 158.198 93.1216C158.673 95.9902 158.812 101.275 152.141 99.2219C145.47 97.1687 148.648 91.8541 148.648 91.8541" fill="#A6ACED"/>
<path d="M146.763 95.1326C146.763 95.1326 148.419 102.545 147.19 106.481C145.96 110.417 138.974 113.611 138.974 113.611L136.027 129.525C134.813 129.894 133.543 130.003 132.289 129.845C131.036 129.688 129.825 129.266 128.727 128.606C128.727 128.606 129.544 114.568 130.78 111.002C132.017 107.437 141.629 100.44 141.629 100.44" fill="#895851"/>
<path d="M147.031 104.534C147.031 104.534 137.419 111.532 136.183 115.097C134.946 118.662 134.129 132.701 134.129 132.701C135.224 133.356 136.431 133.774 137.679 133.93C138.927 134.087 140.192 133.979 141.401 133.613L144.349 117.699C144.349 117.699 149.351 116.216 150.573 112.228C151.796 108.24 151.272 102.259 151.272 102.259" fill="#895851"/>
<path d="M150.858 104.681C152.5 100.449 153.206 89.4493 152.193 88.1225C150.097 85.3725 145.654 85.7135 145.654 85.7135C145.654 85.7135 143.076 84.0754 140.918 86.01C139.311 87.4554 140.457 96.3056 140.918 101.932C143.719 104.681 146.828 105.452 150.858 104.681Z" fill="#8CC63F"/>
<path d="M143.977 105.944C142.244 107.775 140.393 109.539 138.786 111.496C137.389 113.193 136.837 115.343 136.292 117.477C135.145 122.473 134.346 127.552 133.903 132.673C133.903 132.984 134.329 132.976 134.357 132.673C134.792 127.748 135.548 122.861 136.621 118.048C137.201 115.698 137.773 113.364 139.359 111.54C140.945 109.717 142.649 108.034 144.298 106.285C144.329 106.238 144.344 106.18 144.339 106.123C144.335 106.065 144.311 106.011 144.273 105.971C144.234 105.93 144.183 105.905 144.129 105.9C144.075 105.895 144.021 105.911 143.977 105.944Z" fill="#5C2D1D"/>
<path d="M162.957 118.08L163.851 117.562L122.825 92.6267L96.1396 108.689L96.4959 108.911V130.111C96.5046 130.16 96.5293 130.204 96.5657 130.236C96.602 130.268 96.6478 130.286 96.695 130.286C96.7422 130.286 96.788 130.268 96.8243 130.236C96.8607 130.204 96.8854 130.16 96.8941 130.111V109.156L136.363 133.617L136.461 133.557V148.819C136.469 148.868 136.494 148.913 136.53 148.945C136.567 148.977 136.613 148.994 136.66 148.994C136.707 148.994 136.753 148.977 136.789 148.945C136.825 148.913 136.85 148.868 136.859 148.819V133.335L162.706 118.251V131.764C162.714 131.813 162.739 131.857 162.775 131.889C162.812 131.921 162.858 131.939 162.905 131.939C162.952 131.939 162.998 131.921 163.034 131.889C163.07 131.857 163.095 131.813 163.104 131.764V118.273C163.105 118.228 163.09 118.184 163.064 118.148C163.037 118.113 162.999 118.089 162.957 118.08Z" fill="#DD654A"/>
<path d="M162.957 118.08L163.851 117.562L122.825 92.6267L96.1396 108.689L96.4959 108.911V130.111C96.5046 130.16 96.5293 130.204 96.5657 130.236C96.602 130.268 96.6478 130.286 96.695 130.286C96.7422 130.286 96.788 130.268 96.8243 130.236C96.8607 130.204 96.8854 130.16 96.8941 130.111V109.156L136.363 133.617L136.461 133.557V148.819C136.469 148.868 136.494 148.913 136.53 148.945C136.567 148.977 136.613 148.994 136.66 148.994C136.707 148.994 136.753 148.977 136.789 148.945C136.825 148.913 136.85 148.868 136.859 148.819V133.335L162.706 118.251V131.764C162.714 131.813 162.739 131.857 162.775 131.889C162.812 131.921 162.858 131.939 162.905 131.939C162.952 131.939 162.998 131.921 163.034 131.889C163.07 131.857 163.095 131.813 163.104 131.764V118.273C163.105 118.228 163.09 118.184 163.064 118.148C163.037 118.113 162.999 118.089 162.957 118.08Z" fill="#DD654A"/>
<path opacity="0.32" d="M121.779 107.901L108.891 115.521C111.049 116.966 119.711 121.91 121.793 123.467L135.115 114.424L132.914 108.761L121.779 107.901Z" fill="url(#paint1_linear)"/>
<path d="M132.423 116.084L141.811 110.28L129.58 102.824L119.988 108.057" fill="#B3B3B3"/>
<path d="M129.997 104.642C129.997 104.642 132.463 116.235 132.428 116.087C132.393 115.939 120.273 109.03 120.189 108.786C120.105 108.541 116.982 96.7778 116.982 96.7778L129.997 104.642Z" fill="white"/>
<path d="M126.445 102.502L128.974 100.886L131.985 103.547L129.722 104.556L126.445 102.502Z" fill="#FFE0CE"/>
<path d="M127.855 100.662C127.855 100.662 131.202 101.915 130.922 105.206C130.922 105.206 136.14 102.9 137.3 101.433C138.46 99.9652 140.919 96.7853 140.919 96.7853V86.0005C140.919 86.0005 134.632 96.3777 133.234 97.66C132.145 98.6755 127.855 100.662 127.855 100.662Z" fill="#8CC63F"/>
<path d="M145.127 84.2386C145.127 85.1429 145.127 86.0472 145.127 86.9515C145.281 87.3665 145.497 87.6556 145.826 87.6186C146.845 87.5 148.054 85.8915 148.054 85.8915L148.236 83.3713L145.127 84.2386Z" fill="#F9C7AF"/>
<path d="M150.08 77.9816C149.445 76.4991 148.194 76.2545 146.902 76.4991C146.607 76.2763 146.275 76.1152 145.924 76.0247C145.365 75.8798 144.78 75.9045 144.234 76.0958C143.688 76.2872 143.204 76.6375 142.836 77.1069C142.484 77.0595 142.125 77.1079 141.795 77.2478C140.824 77.6851 140.706 78.7821 140.929 79.7457C140.929 79.7827 140.929 79.8198 140.929 79.8569C140.987 80.3792 141.171 80.8769 141.464 81.3015C141.756 81.7262 142.147 82.0634 142.599 82.2807L147.642 84.9491C148.189 84.6324 148.651 84.1733 148.984 83.6149C149.093 83.3955 149.164 83.1569 149.193 82.9107L149.291 82.7995C149.822 82.1482 150.177 81.3556 150.316 80.5068C150.455 79.658 150.373 78.785 150.08 77.9816Z" fill="#895851"/>
<path d="M142.517 80.9263C142.642 81.497 143.551 86.9228 145.856 86.4632C148.161 86.0036 148.308 82.3939 148.308 82.3939C148.308 82.3939 146.212 81.7935 146.051 80.9633C145.891 80.1331 145.968 79.7699 144.948 79.5476C143.928 79.3252 142.3 79.9775 142.517 80.9263Z" fill="#FFE0CE"/>
<path d="M140.494 97.3176L140.159 92.0178L138.657 99.6895L140.494 97.3176Z" fill="#6D9928"/>
<path d="M140.661 106.351C140.459 106.375 140.262 106.438 140.081 106.536C139.536 106.818 138.929 107.003 138.391 107.278C137.498 107.844 136.773 108.663 136.295 109.642C136.183 109.894 135.722 110.828 135.96 111.088C136.197 111.347 136.749 111.088 136.749 111.088C136.749 111.088 136.749 111.621 136.896 111.74C137.042 111.858 137.594 111.429 137.594 111.429C137.594 111.429 137.832 112.081 138.167 111.925C138.502 111.769 139.089 110.843 139.089 110.843C139.089 110.843 139.026 111.584 139.32 111.584C139.613 111.584 140.85 109.768 140.85 109.768L143.476 108.286C143.476 108.286 142.701 107.396 142.624 107.315C142.27 106.941 141.853 106.642 141.394 106.433C141.16 106.342 140.908 106.314 140.661 106.351Z" fill="#FFE0CE"/>
<path d="M140.224 108.704C139.631 109.384 139.185 110.194 138.918 111.076C138.918 111.187 139.044 111.232 139.079 111.121C139.337 110.268 139.769 109.486 140.343 108.83C140.413 108.749 140.301 108.623 140.224 108.704Z" fill="#5C2D1D"/>
<path d="M139.458 108.163C138.507 109.075 137.833 110.267 137.523 111.587C137.521 111.608 137.526 111.63 137.537 111.648C137.548 111.665 137.566 111.678 137.585 111.683C137.605 111.689 137.625 111.687 137.644 111.677C137.662 111.668 137.676 111.651 137.684 111.632C137.987 110.342 138.646 109.178 139.577 108.289C139.654 108.237 139.535 108.081 139.458 108.163Z" fill="#5C2D1D"/>
<path d="M138.67 107.969C137.737 108.817 137.039 109.919 136.651 111.156C136.651 111.267 136.777 111.312 136.812 111.201C137.192 109.992 137.876 108.915 138.789 108.088C138.873 108.021 138.754 107.895 138.67 107.969Z" fill="#5C2D1D"/>
<path d="M152.35 97.1807C152.35 97.1807 151.386 103.703 150.093 105.208C148.801 106.713 143.108 109.389 143.108 109.389C143.108 109.389 141.711 106.728 140.174 106.105C140.174 106.105 145.972 102.644 146.119 101.991" fill="#8CC63F"/>
<path d="M147.583 92.8062C147.485 94.2145 147.352 95.6154 147.157 97.0089C147.052 98.2629 146.837 99.5036 146.514 100.715C146.088 101.997 144.474 102.761 143.447 103.465C142.42 104.169 141.268 104.947 140.171 105.689C139.92 105.852 140.171 106.267 140.402 106.104C141.687 105.274 142.961 104.419 144.223 103.539C145.075 102.946 146.374 102.331 146.828 101.315C147.235 100.058 147.484 98.75 147.569 97.424C147.785 95.9416 147.939 94.3924 148.044 92.8655C148.051 92.4949 147.583 92.5023 147.583 92.8062Z" fill="#6D9928"/>
<path d="M27.9308 64.1065C27.5062 64.3605 27.1529 64.7299 26.9074 65.1767C26.6619 65.6235 26.5329 66.1316 26.5337 66.6489V138.259C26.4359 139.741 27.9937 141.068 29.2581 140.305L56.8932 123.612C58.0039 122.938 108.587 92.7401 108.587 91.3836L111.374 16.3269C111.383 16.0766 111.329 15.8282 111.218 15.6073C111.106 15.3865 110.941 15.2012 110.74 15.0705C110.539 14.9398 110.308 14.8686 110.072 14.864C109.836 14.8595 109.603 14.9218 109.397 15.0446C97.0605 22.4717 33.5403 60.6523 27.9308 64.1065Z" fill="#112E7C"/>
<path opacity="0.6" d="M33.4238 70.7407V130.854L39.5223 126.733V67.0049L33.4238 70.7407Z" fill="white"/>
<path d="M41.7023 57.7529L29.0723 65.6099C28.9504 65.6854 28.8494 65.7937 28.7795 65.9238C28.7096 66.0539 28.6733 66.2013 28.6741 66.3511V137.887C28.6748 137.988 28.7004 138.087 28.7485 138.175C28.7966 138.262 28.8655 138.334 28.9482 138.385C29.0309 138.435 29.1246 138.461 29.2199 138.461C29.3153 138.461 29.4089 138.434 29.4914 138.384L108.694 89.4625C108.689 90.0618 108.552 90.6514 108.294 91.1843C108.035 91.7171 107.663 92.1784 107.206 92.5312C105.691 93.5541 29.2888 140.237 29.2888 140.237C29.2888 140.237 27.1932 141.252 26.5645 138.576V66.6476C26.5655 66.1823 26.6698 65.7237 26.8688 65.3091C27.0678 64.8945 27.356 64.5354 27.7101 64.2608C28.9326 63.3195 107.591 14.7024 107.591 14.7024C107.591 14.7024 110.455 13.5905 111.405 15.4436L49.7846 52.8089" fill="#124577"/>
<path d="M113.777 0.18108C109.362 2.95327 98.4089 9.81703 95.1746 11.8258C94.896 11.9973 94.6652 12.244 94.5057 12.5408C94.3462 12.8377 94.2636 13.1741 94.2664 13.5158V61.1026C94.252 61.3379 94.2947 61.5732 94.3904 61.786C94.4861 61.9989 94.6317 62.1821 94.8132 62.3182C94.9947 62.4543 95.2061 62.5387 95.4271 62.5633C95.6482 62.588 95.8715 62.5521 96.0757 62.459L114.441 51.3406C114.798 51.1636 115.101 50.8833 115.315 50.5319C115.528 50.1805 115.644 49.7723 115.649 49.3541V1.31516C115.649 1.08319 115.59 0.855516 115.48 0.655094C115.37 0.454671 115.212 0.288583 115.022 0.173575C114.833 0.0585664 114.618 -0.00129628 114.399 2.12886e-05C114.18 0.00133885 113.966 0.0637905 113.777 0.18108Z" fill="#FFA513"/>
<path d="M97.6084 16.3384L112.222 7.49561" stroke="#F2F2F2" stroke-miterlimit="10"/>
<path d="M97.6084 19.8729L112.222 11.0227" stroke="#F2F2F2" stroke-miterlimit="10"/>
<path d="M97.2539 24.3039L111.868 15.4536" stroke="#F2F2F2" stroke-miterlimit="10"/>
<path d="M97.2539 27.828L111.868 18.9778" stroke="#F2F2F2" stroke-miterlimit="10"/>
<path d="M98.6582 43.0093L113.272 34.1665" stroke="#F2F2F2" stroke-miterlimit="10"/>
<path d="M98.6582 46.5446L113.272 37.6943" stroke="#F2F2F2" stroke-miterlimit="10"/>
<path d="M98.291 50.96L112.905 42.1172" stroke="#F2F2F2" stroke-miterlimit="10"/>
<path d="M98.291 54.4953L112.905 45.645" stroke="#F2F2F2" stroke-miterlimit="10"/>
<path opacity="0.6" d="M42.7236 65.6642V114.77L47.7044 111.405V62.6104L42.7236 65.6642Z" fill="white"/>
<path d="M32.4053 98.9254L47.0192 90.0752" stroke="white" stroke-miterlimit="10"/>
<path d="M32.4053 102.459L47.0192 93.6157" stroke="white" stroke-miterlimit="10"/>
<path d="M32.0566 106.88L46.6706 98.0293" stroke="white" stroke-miterlimit="10"/>
<path d="M32.0566 110.418L46.6706 101.568" stroke="white" stroke-miterlimit="10"/>
<path d="M20.8291 113.613V121.448L22.7641 120.143V112.471C22.1005 112.827 21.4508 113.198 20.8291 113.613Z" fill="white"/>
<path d="M24.6943 108.599V119.183L26.6294 117.871V107.598L24.6943 108.599Z" fill="white"/>
<path d="M28.5703 103.139V117.007L30.5053 115.702V102.308C29.8696 102.597 29.227 102.879 28.5703 103.139Z" fill="white"/>
<path opacity="0.32" d="M76.7306 144.493L61.7743 155.048L54.2578 150.327L69.3258 141.039" fill="url(#paint2_linear)"/>
<path d="M53.3087 89.2954L71.8345 98.9907C71.8345 98.9907 72.582 101.563 70.9683 102.215C69.3546 102.867 50.4795 92.0676 50.4795 92.0676" fill="#112E7C"/>
<path d="M63.4131 94.9919C62.314 94.399 61.2313 93.7739 60.1648 93.1166C59.9761 92.6829 59.7662 92.2598 59.5361 91.8491C59.3819 91.5202 59.1348 91.2505 58.8292 91.0778C58.5237 90.9051 58.1749 90.8378 57.8316 90.8855C57.6971 90.9128 57.5763 90.9903 57.4911 91.1039C57.4058 91.2176 57.3617 91.3599 57.3668 91.505C57.3718 91.6502 57.4257 91.7886 57.5187 91.8953C57.6116 92.0019 57.7375 92.0697 57.8735 92.0863L57.9643 92.1975C56.644 92.2642 54.255 92.4718 54.7929 93.8504C54.7449 93.8905 54.7005 93.9352 54.6601 93.9839C54.5248 94.1588 54.4573 94.382 54.4716 94.6078C54.4859 94.8337 54.5808 95.0453 54.737 95.1995C54.8545 95.3196 54.9987 95.4063 55.1562 95.4517C55.3137 95.497 55.4795 95.4995 55.6381 95.4589C55.7409 95.6787 55.9188 95.8486 56.1356 95.934C56.3524 96.0194 56.5917 96.0139 56.8047 95.9185L57.133 95.8147C57.1205 95.9022 57.1284 95.9917 57.1561 96.0753C57.1837 96.1588 57.2303 96.2339 57.2917 96.2939C57.353 96.3539 57.4274 96.397 57.5081 96.4194C57.5889 96.4419 57.6735 96.4429 57.7548 96.4225L58.8445 96.2001C61.3244 97.0377 62.5609 97.3416 63.4899 98.0161C63.8742 98.2978 63.4899 98.4016 63.4899 98.0161C63.5337 97.9568 63.5654 97.8885 63.5832 97.8156C63.601 97.7426 63.6044 97.6666 63.5933 97.5921C63.5821 97.5177 63.5567 97.4465 63.5185 97.383C63.4802 97.3195 63.4301 97.2651 63.3712 97.223L63.2664 97.1415C63.3247 97.0957 63.3735 97.0378 63.4099 96.9713C63.4463 96.9048 63.4695 96.831 63.478 96.7547C63.4865 96.6783 63.4802 96.6008 63.4594 96.5271C63.4386 96.4534 63.4039 96.385 63.3572 96.3261L63.2245 96.1631C63.3455 96.141 63.4571 96.0796 63.5439 95.9874C63.6307 95.8952 63.6884 95.7767 63.7091 95.6483C63.7298 95.5198 63.7124 95.3877 63.6594 95.2702C63.6064 95.1526 63.5204 95.0554 63.4131 94.9919Z" fill="#FF7D09"/>
<path d="M76.1272 135.437L76.728 144.494L75.6312 145.473L74.4437 145.147C74.4437 145.147 74.5973 142.752 74.1782 142.226C73.7591 141.7 73.0535 144.302 72.6483 144.287C72.2432 144.272 67.4091 142.901 67.3393 142.271C67.2485 141.433 68.3312 140.477 70.385 141.003C72.6064 141.574 72.9906 138.92 73.3469 136.378" fill="#F8997C"/>
<path d="M72.661 137.247C72.661 137.247 74.7567 138.196 78.3892 135.764C78.3892 135.764 77.1388 123.756 77.2436 121.681C77.3484 119.606 79.5279 104.677 76.8384 101.386C74.1489 98.0952 69.3498 129.731 69.5594 129.916" fill="#A1C3FC"/>
<path d="M74.4096 142.577L74.207 142.229C74.0538 142.073 73.8643 141.964 73.6581 141.912C73.4518 141.86 73.2362 141.867 73.0334 141.932C72.4536 142.221 72.5374 144.371 72.5374 144.371L74.5493 143.57C74.5712 143.232 74.5235 142.893 74.4096 142.577Z" fill="#9E005D"/>
<path d="M69.5505 139.879L69.341 148.952L68.1883 149.819L67.0357 149.374C67.0357 149.374 67.399 147.002 67.0357 146.409C66.6725 145.816 65.7294 148.366 65.3242 148.307C64.9191 148.248 60.2317 146.402 60.2178 145.764C60.2178 144.919 61.3704 144.082 63.3613 144.816C65.5198 145.609 66.1555 143.007 66.7214 140.509" fill="#F8997C"/>
<path d="M67.2101 146.782L67.0424 146.412C66.9036 146.24 66.7242 146.112 66.5228 146.039C66.3214 145.966 66.1053 145.951 65.8968 145.997C65.2891 146.226 65.1982 148.369 65.1982 148.369L67.2939 147.776C67.3337 147.442 67.3051 147.103 67.2101 146.782Z" fill="#9E005D"/>
<path d="M68.8534 104.908C68.8534 104.908 65.2698 115.151 64.4595 119.591C63.6491 124.031 63.6142 140.664 63.9076 141.087C64.201 141.509 67.6799 142.332 70.041 142.332C72.4021 142.332 72.0668 122.667 72.0668 122.667C72.0668 122.667 78.4587 105.478 76.7472 103.596C75.0357 101.713 68.8534 104.908 68.8534 104.908Z" fill="#A1C3FC"/>
<path d="M68.7052 105.103C71.9536 106.192 76.0821 104.888 78.066 101.923C77.6887 97.0752 76.9063 89.0625 75.7328 87.8395C74.0353 86.105 70.3608 88.5807 69.0336 90.9971C68.2606 92.8529 67.6003 94.7593 67.0566 96.7046L62.0549 93.6804L60.5391 97.4532C60.5391 97.4532 63.969 104.31 68.6005 102.746L68.7052 105.103Z" fill="#F8997C"/>
<path d="M71.8365 96.2148C71.8365 96.1608 71.8163 96.1089 71.7803 96.0707C71.7442 96.0325 71.6954 96.011 71.6444 96.011C71.5935 96.011 71.5446 96.0325 71.5086 96.0707C71.4726 96.1089 71.4523 96.1608 71.4523 96.2148C71.5633 97.7814 71.3065 99.3527 70.7049 100.788C70.4387 101.377 70.0354 101.884 69.533 102.262C69.0306 102.639 68.4457 102.874 67.8338 102.945C67.5893 102.945 67.5893 103.36 67.8338 103.353C68.4871 103.286 69.1146 103.047 69.6596 102.659C70.2047 102.271 70.6503 101.745 70.9563 101.129C71.7737 99.6615 71.8435 97.8603 71.8365 96.2148Z" fill="white"/>
<path d="M70.0797 79.0544C69.8143 79.1137 69.3812 79.5585 68.7594 81.1447C68.1377 82.7309 69.6466 84.747 70.3033 85.1695C70.9428 85.7668 71.4897 86.4672 71.9239 87.245C71.9239 87.245 74.3479 87.8676 75.9826 84.7174C77.6172 81.5672 74.0196 78.1427 70.0797 79.0544Z" fill="#FFB468"/>
<path d="M69.3992 80.8088C69.3992 80.8088 68.1768 86.0789 69.9791 87.2797C71.7813 88.4805 74.2123 85.2858 74.4429 84.0109C74.6734 82.736 73.3601 79.9712 69.3992 80.8088Z" fill="#FF7D09"/>
<path d="M69.4053 80.8119C69.4053 80.8119 69.1049 84.2512 70.8024 85.0072C72.4999 85.7633 72.5139 86.8454 72.5139 86.8454C72.5139 86.8454 75.5876 85.1036 75.9089 83.5618C76.2302 82.0201 71.7594 79.4332 69.4053 80.8119Z" fill="#FFB468"/>
<path d="M75.0428 84.9456C74.4281 90.1342 75.6575 96.7163 73.6457 101.557C73.5199 101.853 73.2545 103.195 73.0449 103.195L77.9349 100.356C79.9048 99.066 81.3299 98.2284 80.6313 94.9522C79.9327 91.676 75.9719 84.6936 75.9719 84.6936L75.0428 84.9456Z" fill="#FFB468"/>
<path d="M67.5609 94.1567C67.259 95.5262 67.0258 96.9118 66.8623 98.3075C66.8623 98.5669 67.2116 98.5669 67.2465 98.3075C67.4119 96.9488 67.6451 95.6003 67.9451 94.2678C67.994 94.001 67.6237 93.8898 67.5609 94.1567Z" fill="white"/>
<path d="M74.4725 87.2858L74.0114 86.2407C73.1092 86.7343 72.1755 87.1603 71.2172 87.5156C70.0646 87.8862 70.3859 89.302 70.3859 89.302C70.3859 89.302 73.0544 89.3094 74.4725 87.2858Z" fill="#5FAD00"/>
<defs>
<linearGradient id="paint0_linear" x1="121.483" y1="142.854" x2="137.857" y2="116.009" gradientUnits="userSpaceOnUse">
<stop stop-opacity="0"/>
<stop offset="0.99" stop-color="#006837"/>
</linearGradient>
<linearGradient id="paint1_linear" x1="119.635" y1="117.982" x2="130.021" y2="106.276" gradientUnits="userSpaceOnUse">
<stop stop-opacity="0"/>
<stop offset="0.99" stop-color="#1A1A1A"/>
</linearGradient>
<linearGradient id="paint2_linear" x1="3425.39" y1="3221.8" x2="3521.58" y2="2953.52" gradientUnits="userSpaceOnUse">
<stop stop-opacity="0"/>
<stop offset="0.99" stop-color="#006837"/>
</linearGradient>
</defs>
</svg>
