<svg width="45" height="45" viewBox="0 0 45 45" fill="none" xmlns="http://www.w3.org/2000/svg">
<path d="M22.4885 45H22.5115C28.4757 44.9995 34.1955 42.6301 38.4128 38.4128C42.6301 34.1955 44.9995 28.4757 45 22.5115V22.4991C45 16.532 42.6296 10.8092 38.4102 6.58984C34.1908 2.37044 28.468 6.98969e-08 22.5009 6.98968e-08C19.5461 -0.000232828 16.6202 0.581552 13.8903 1.71213C11.1604 2.84272 8.67989 4.49995 6.59046 6.58921C4.50104 8.67847 2.84361 11.1588 1.71281 13.8887C0.582016 16.6185 -9.1786e-09 19.5443 0 22.4991L0 22.5115C0.000470268 28.4757 2.36994 34.1955 6.58724 38.4128C10.8045 42.6301 16.5243 44.9995 22.4885 45Z" fill="url(#paint0_linear)"/>
<path fill-rule="evenodd" clip-rule="evenodd" d="M33.1449 21.2309V18.1967H30.9813V21.2309H27.947V23.3945H30.9813V26.4288H33.1449V23.3945H36.1809V21.2309H33.1449Z" fill="white"/>
<path fill-rule="evenodd" clip-rule="evenodd" d="M17.5229 21.0003V24.4727H22.1675C22.0387 25.2032 21.7082 25.8832 21.2134 26.4358C19.3495 28.4699 15.8755 28.4486 13.8857 26.4021C12.9297 25.4109 12.3996 24.0849 12.4089 22.7078C12.4182 21.3307 12.9661 20.0119 13.9354 19.0336C15.8524 17.1131 18.9417 17.0297 20.8091 18.8563L23.3432 16.3221C21.6599 14.8571 19.4774 14.0958 17.248 14.196C15.0187 14.2963 12.9133 15.2504 11.3683 16.8607C9.82325 18.4709 8.95692 20.6139 8.94885 22.8455C8.94077 25.0771 9.79156 27.2262 11.3249 28.8476C14.6944 32.2685 20.5466 32.3022 23.7086 28.9044C25.6167 26.8543 26.1647 23.914 25.709 20.9986L17.5229 21.0003Z" fill="white"/>
<defs>
<linearGradient id="paint0_linear" x1="22.5" y1="0" x2="22.5" y2="45" gradientUnits="userSpaceOnUse">
<stop stop-color="#DD4B39"/>
<stop offset="1" stop-color="#CA1600"/>
</linearGradient>
</defs>
</svg>
