<svg width="15" height="18" viewBox="0 0 15 18" fill="none" xmlns="http://www.w3.org/2000/svg">
<path d="M1.82003 7.10371C1.82003 7.03493 1.82003 6.97598 1.82003 6.90721C1.80781 3.58624 4.4096 0.933406 7.60993 0.933406C10.8103 0.933406 13.4365 3.58624 13.4365 6.90721C13.4365 6.97598 13.4365 7.03493 13.4365 7.10371H14.4015C14.4015 7.02511 14.4015 6.95633 14.4015 6.87773C14.4015 3.04585 11.3599 0 7.60993 0C3.85993 0 0.830612 3.05568 0.830612 6.87773C0.830612 6.95633 0.830612 7.02511 0.830612 7.10371H1.82003Z" fill="white"/>
<path d="M0 7.1037V17.9509H0.989414V17.0764V16.7325V8.18448H14.0594V17.0764H5.22801V17.9509H15V7.1037H0Z" fill="white"/>
<path fill-rule="evenodd" clip-rule="evenodd" d="M9 10.4509C9 11.2794 8.32843 11.9509 7.5 11.9509C6.67157 11.9509 6 11.2794 6 10.4509C6 9.6225 6.67157 8.95093 7.5 8.95093C8.32843 8.95093 9 9.6225 9 10.4509ZM8 10.4509C8 10.7271 7.77614 10.9509 7.5 10.9509C7.22386 10.9509 7 10.7271 7 10.4509C7 10.1748 7.22386 9.95093 7.5 9.95093C7.77614 9.95093 8 10.1748 8 10.4509Z" fill="white"/>
</svg>
