<svg width="32" height="30" viewBox="0 0 32 30" fill="none" xmlns="http://www.w3.org/2000/svg">
<ellipse cx="16.4442" cy="15" rx="15.5556" ry="15" fill="url(#paint0_linear)"/>
<path d="M24.6876 5.44408L5.36139 12.8783C4.30446 13.1895 4.33814 14.2502 5.11921 14.5076L9.96119 16.0472L11.8152 21.818C12.0398 22.4485 12.2242 22.688 12.6091 22.6929C12.994 22.6978 13.1673 22.5479 13.5875 22.1715C14.0798 21.7023 14.8288 20.9643 16.0108 19.7961L21.0485 23.5759C21.9755 24.0957 22.6523 23.8269 22.8753 22.701L26.0396 6.82568C26.3716 5.44734 25.5745 5.03677 24.6876 5.44408ZM10.7214 15.6871L21.7317 8.66999C22.2738 8.30015 22.4438 8.71235 22.2 8.99584L13.0614 17.3506L12.5931 21.515L10.7214 15.6871Z" fill="#74510C"/>
<defs>
<linearGradient id="paint0_linear" x1="16.4442" y1="0" x2="16.4442" y2="30" gradientUnits="userSpaceOnUse">
<stop stop-color="#FFF7B1"/>
<stop offset="1" stop-color="#FFF500"/>
</linearGradient>
</defs>
</svg>
