<svg width="28" height="27" viewBox="0 0 28 27" fill="none" xmlns="http://www.w3.org/2000/svg">
<ellipse cx="13.8888" cy="13.3929" rx="13.8888" ry="13.3929" fill="url(#paint0_linear)"/>
<path d="M21.2491 4.86076L3.99357 11.4985C3.04988 11.7763 3.07996 12.7233 3.77734 12.9532L8.10052 14.3278L9.75591 19.4803C9.95639 20.0433 10.1211 20.2571 10.4647 20.2615C10.8084 20.2659 10.9631 20.132 11.3383 19.796C11.7779 19.377 12.4466 18.7181 13.502 17.6751L17.9999 21.0499C18.8276 21.514 19.4319 21.274 19.6309 20.2688L22.4563 6.09433C22.7527 4.86367 22.041 4.49709 21.2491 4.86076ZM8.77929 14.0064L18.6099 7.74104C19.0939 7.41082 19.2457 7.77886 19.0281 8.03197L10.8686 15.4916L10.4504 19.2098L8.77929 14.0064Z" fill="#DAE7FB"/>
<defs>
<linearGradient id="paint0_linear" x1="13.8888" y1="0" x2="13.8888" y2="26.7857" gradientUnits="userSpaceOnUse">
<stop stop-color="#3F94F8"/>
<stop offset="1" stop-color="#183AB3"/>
</linearGradient>
</defs>
</svg>
