<svg width="28" height="27" viewBox="0 0 28 27" fill="none" xmlns="http://www.w3.org/2000/svg">
<ellipse cx="13.8889" cy="13.3929" rx="13.8889" ry="13.3929" fill="url(#paint0_linear)"/>
<path d="M12.4366 7.17963C12.8345 7.17966 15.6194 7.09677 15.6194 7.17966V13.6422C15.6194 15.3656 18.8022 7.1797 19.2 7.17966H22.3828C23.5763 7.17967 19.5979 14.0731 19.5979 14.0731C19.5979 14.0731 21.9849 17.5198 22.7806 18.8123C23.5763 20.1049 23.1785 20.5357 22.3828 20.5357H19.5979C19.0742 20.5357 18.4043 18.8123 17.2108 17.089C16.0172 15.3656 15.6194 16.2273 15.6194 16.2273V20.5357H13.6302C13.6302 20.5357 12.5001 20.5357 11.1608 19.1964C11.1608 19.1964 10.0495 17.9506 7.26462 13.2114C4.4797 8.47218 3.6841 7.17959 5.27539 7.17966L8.45817 7.17963C9.65182 7.17965 12.0536 14.5441 12.0536 13.8392C12.0536 13.1344 12.0388 11.0572 12.0388 9.33386C12.0388 7.61053 12.0388 7.1796 12.4366 7.17963Z" stroke="#DAE7FB" stroke-width="1.5"/>
<defs>
<linearGradient id="paint0_linear" x1="13.8889" y1="0" x2="13.8889" y2="26.7857" gradientUnits="userSpaceOnUse">
<stop stop-color="#3F94F8"/>
<stop offset="1" stop-color="#183AB3"/>
</linearGradient>
</defs>
</svg>
