<svg width="214" height="161" viewBox="0 0 214 161" fill="none" xmlns="http://www.w3.org/2000/svg">
<g filter="url(#filter0_d)">
<path d="M21.8261 100.25C41.4372 111.628 84.9369 136.752 97.2693 143.876C98.2737 144.461 99.4155 144.769 100.578 144.769C101.741 144.769 102.882 144.461 103.887 143.876L203.753 85.169C204.749 84.5846 205.574 83.7481 206.144 82.7437C206.714 81.7393 207.009 80.6024 207 79.4476C206.99 78.2928 206.677 77.1609 206.091 76.1658C205.505 75.1707 204.667 74.3476 203.661 73.7795L127.511 30.6592C126.508 30.0914 125.374 29.7972 124.221 29.8063C123.069 29.8154 121.939 30.1274 120.945 30.711L21.7973 88.8888C20.8048 89.4695 19.9821 90.3005 19.4112 91.2987C18.8404 92.297 18.5415 93.4275 18.5445 94.5774C18.5474 95.7274 18.852 96.8564 19.4278 97.8517C20.0037 98.8471 20.8306 99.6739 21.8261 100.25V100.25Z" fill="#FFD15B"/>
<path d="M89.9504 127.697L139.924 100.577L144.707 96.2647L146.202 93.1888L144.684 77.3321C144.684 77.3321 143.535 74.5839 142.04 74.0837C140.545 73.5835 64.7739 113.139 64.7739 113.139L89.9504 127.697Z" fill="url(#paint0_linear)"/>
<path d="M128.57 33.8328C129.254 34.1662 129.979 34.5112 130.726 34.7929C132.032 34.8295 133.339 34.7969 134.641 34.6952C135.181 34.5637 135.738 34.521 136.291 34.5687C136.396 34.5691 136.499 34.5932 136.593 34.6393C136.687 34.6854 136.769 34.7523 136.833 34.8348C136.898 34.9173 136.942 35.0133 136.964 35.1156C136.986 35.218 136.984 35.3239 136.958 35.4253C136.872 35.6739 136.719 35.8941 136.516 36.0622C136.313 36.2304 136.069 36.3401 135.809 36.3797C135.383 36.489 134.946 36.581 134.515 36.6729C135.757 37.2678 137.04 37.7712 138.355 38.1793C139.183 38.4553 138.844 39.7834 138.005 39.5016L137.108 39.1969C137.606 39.4866 138.088 39.8033 138.551 40.1456C139.126 40.5653 138.844 41.6749 138.039 41.4047C136.956 41.0379 135.903 40.5881 134.889 40.0593C135.517 40.5039 136.159 40.9313 136.815 41.3414C137.562 41.8071 136.889 42.9973 136.136 42.5316C135.216 41.9604 134.319 41.3529 133.446 40.709C133.652 41.0885 133.859 41.4737 134.049 41.8589C134.44 42.6465 133.267 43.3537 132.899 42.5603C132.531 41.7669 132.117 41.0655 131.686 40.3468L131.6 40.3123C129.415 39.2774 127.253 38.2004 125.115 37.0811C124.333 36.6729 125.011 35.4828 125.793 35.891L126.782 36.4027C126.803 36.2973 126.844 36.1972 126.905 36.1083C126.965 36.0194 127.042 35.9435 127.133 35.8853C127.065 35.7858 127.024 35.6701 127.015 35.5498C127.006 35.4295 127.029 35.309 127.081 35.2005C127.134 35.0919 127.214 34.9992 127.314 34.9316C127.414 34.8641 127.53 34.8242 127.65 34.8159C127.581 34.6849 127.555 34.5357 127.575 34.3891C127.595 34.2424 127.66 34.1056 127.761 33.9976C127.862 33.8895 127.994 33.8156 128.139 33.7861C128.284 33.7565 128.435 33.7729 128.57 33.8328Z" fill="#FFC285"/>
<path d="M134.171 37.386C133.395 38.2024 132.447 39.0131 131.251 38.7716C131.009 38.7256 131.072 38.3404 131.314 38.3922C132.378 38.6049 133.188 37.8517 133.867 37.1388C134.039 36.9606 134.344 37.2078 134.171 37.386Z" fill="#6D320B"/>
<path d="M134.986 38.2193C136.019 38.6324 137.075 38.9856 138.148 39.2772C138.326 39.3232 138.28 39.6107 138.102 39.5647C137.005 39.2686 135.926 38.9096 134.871 38.4896C134.693 38.4091 134.796 38.1503 134.986 38.2193Z" fill="#6D320B"/>
<path d="M134.348 39.5763C135.522 40.2892 136.787 40.8422 138.108 41.2206C138.286 41.2723 138.24 41.554 138.062 41.508C136.717 41.127 135.43 40.5682 134.233 39.8465C134.072 39.7487 134.187 39.4843 134.348 39.5763Z" fill="#6D320B"/>
<path d="M132.921 40.3069C133.819 40.9926 134.782 41.5877 135.796 42.0835C135.963 42.164 135.842 42.4284 135.675 42.3479C134.644 41.8399 133.666 41.2313 132.755 40.5311C132.594 40.4162 132.778 40.1919 132.921 40.3069Z" fill="#6D320B"/>
<path d="M133.548 25.6458C134.031 24.3522 134.463 23.0413 134.894 21.7132C135.594 19.8396 136.084 17.894 136.354 15.9121C136.009 14.9865 134.767 14.2793 133.893 14.0723C132.795 13.8078 131.668 14.2793 130.553 14.2563C129.098 14.2563 127.949 13.6814 126.592 13.2674C125.187 12.9147 123.709 12.9826 122.343 13.4629C119.721 14.2735 117.048 13.9918 114.869 12.2613C113.633 11.2781 112.667 10.4732 111.103 10.065C108.688 9.42683 106.199 9.88103 104.606 11.9106C103.175 13.7446 102.881 16.1478 104.382 18.0221C105.198 18.8893 106.262 19.482 107.429 19.7182C108.493 20.0229 109.487 20.6496 110.58 20.8681H110.7C111.734 20.9406 112.761 21.0788 113.776 21.282C115.059 21.6615 116.249 22.2997 117.508 22.7539C119.181 23.3288 120.802 23.1218 122.521 22.9033C124.712 22.6274 125.873 23.3058 127.569 24.5534L127.874 24.7661C129.072 25.4916 130.452 25.8587 131.852 25.824C132.422 25.8147 132.989 25.7551 133.548 25.6458Z" fill="#653200"/>
<path d="M132.802 70.7843C132.802 70.7843 138.983 70.5716 139.978 72.2101C140.972 73.8487 141.674 78.4999 143.266 78.7299C144.859 78.9599 145.319 75.0158 145.537 72.3021C145.756 69.5884 145.273 68.2776 144.686 68.1798C144.1 68.0821 139.661 66.4205 139.472 65.6271C139.282 64.8337 144.876 65.7133 144.876 65.7133L144.635 62.9651L131.348 63.6781L132.802 70.7843Z" fill="#F77819"/>
<path d="M115.306 74.0898L137.016 74.0496C137.016 74.0496 135.785 65.7533 132.703 61.6712L116.973 59.6647" fill="#F28830"/>
<path d="M133.837 91.0045C133.837 91.0045 136.511 93.9942 135.648 95.9433C134.786 97.8923 130.98 101.514 131.791 103.118C132.601 104.723 136.499 102.624 139.121 101.083C141.743 99.5424 142.645 98.2603 142.346 97.6681C142.047 97.0759 140.742 91.9187 141.346 91.269C141.95 90.6193 144.727 96.2652 144.727 96.2652L146.221 93.1893L137.937 82.6105L133.837 91.0045Z" fill="#F77819"/>
<path d="M92.3845 9.92698C92.005 9.27155 91.6141 8.56438 91.2806 7.83996C91.1597 6.53851 91.1079 5.23157 91.1254 3.92464C91.2153 3.37636 91.2153 2.8171 91.1254 2.26882C91.1183 2.16401 91.0874 2.06219 91.035 1.97113C90.9826 1.88007 90.9101 1.80218 90.8231 1.74339C90.736 1.68461 90.6367 1.64648 90.5326 1.63192C90.4286 1.61737 90.3226 1.62676 90.2227 1.65939C89.9883 1.76569 89.7865 1.93251 89.638 2.14269C89.4894 2.35287 89.3995 2.59882 89.3776 2.85526C89.2971 3.28646 89.2338 3.72916 89.1706 4.16611C88.506 2.96576 87.9296 1.71869 87.4458 0.434776C87.1123 -0.375885 85.813 0.0495673 86.1464 0.871727L86.5086 1.74563C86.1872 1.26706 85.8398 0.806421 85.468 0.365782C85.0138 -0.168909 83.9214 0.176053 84.2491 0.940718C84.6853 1.99852 85.2023 3.02111 85.7957 3.99938C85.3089 3.40145 84.8413 2.78818 84.3929 2.15959C83.8812 1.44666 82.7371 2.19408 83.243 2.91275C83.8754 3.79432 84.5404 4.64906 85.238 5.47697C84.8471 5.29299 84.4504 5.11476 84.0479 4.94803C83.2372 4.60881 82.6106 5.82768 83.4212 6.16689C84.2319 6.5061 84.9621 6.85107 85.721 7.23053L85.7612 7.31676C86.9111 9.4402 88.1165 11.5253 89.3776 13.5721C89.8375 14.3252 90.9817 13.5721 90.5275 12.8189L89.9525 11.8645C90.0566 11.8369 90.1541 11.7886 90.2391 11.7224C90.324 11.6562 90.3948 11.5735 90.447 11.4793C90.5499 11.5408 90.6672 11.5741 90.7871 11.576C90.907 11.5779 91.0252 11.5482 91.13 11.49C91.2349 11.4318 91.3225 11.347 91.3843 11.2442C91.446 11.1415 91.4797 11.0243 91.4818 10.9044C91.6157 10.9575 91.7625 10.9688 91.903 10.9369C92.0434 10.9049 92.1708 10.8312 92.2686 10.7254C92.3663 10.6196 92.4296 10.4867 92.4503 10.3442C92.471 10.2016 92.4481 10.0562 92.3845 9.92698V9.92698Z" fill="#FFC285"/>
<path d="M88.4745 4.57407C87.7155 5.40198 86.9624 6.38513 87.2786 7.57525C87.3418 7.81672 87.7156 7.72473 87.6523 7.48326C87.3706 6.43687 88.0663 5.57447 88.7332 4.85005C88.9057 4.67181 88.6412 4.37285 88.4745 4.57407Z" fill="#6D320B"/>
<path d="M87.5893 3.79782C87.1109 2.79559 86.6905 1.76667 86.3302 0.716162C86.2727 0.543681 85.991 0.606923 86.0485 0.785153C86.4168 1.86114 86.8468 2.91502 87.3363 3.94156C87.4168 4.11404 87.6525 3.97605 87.5893 3.79782Z" fill="#6D320B"/>
<path d="M86.2719 4.53949C85.4862 3.42271 84.8521 2.20665 84.3861 0.923132C84.3229 0.750651 84.0412 0.813893 84.1044 0.992124C84.5725 2.30959 85.2145 3.55866 86.0132 4.70622C86.1224 4.82696 86.3812 4.69472 86.2719 4.53949Z" fill="#6D320B"/>
<path d="M85.6405 6.00563C84.8985 5.16013 84.2418 4.24346 83.68 3.26893C83.588 3.10795 83.3292 3.26893 83.427 3.40692C84.0023 4.40205 84.6744 5.33798 85.4335 6.20111C85.5542 6.34484 85.7612 6.14937 85.6405 6.00563Z" fill="#6D320B"/>
<path d="M99.0876 32.9703C99.0876 32.9703 91.9527 54.9961 93.1083 65.0345C94.2639 75.0729 113.392 73.9805 113.392 73.9805L128.812 93.9538C134.699 93.0552 140.016 89.9286 143.662 85.2205C143.662 85.2205 138.718 78.2696 135.211 74.7567C131.704 71.2438 122.189 58.9057 121.792 55.1628C121.395 51.42 117.054 37.3973 112.656 35.0918" fill="#F99943"/>
<path d="M111.184 18.4992L106.51 17.5678C102.558 17.4107 98.8173 15.7439 96.0577 12.9109C94.4175 11.2182 92.9818 9.33871 91.7802 7.31097C90.3631 8.15101 89.1009 9.22842 88.0489 10.4961C87.4916 11.1295 86.9806 11.802 86.5195 12.5084C88.5548 16.7399 92.4414 22.8573 98.6737 25.226C98.6737 25.226 98.8979 27.5603 99.0819 32.9704C100.978 34.7324 103.329 35.9272 105.87 36.4191C108.411 36.911 111.039 36.6803 113.455 35.7531C113.455 35.7531 112.765 20.7932 111.184 18.4992Z" fill="#021E6A"/>
<path d="M110.075 18.3495C110.075 18.3495 119.165 29.923 131.808 33.8153C131.808 33.8153 130.974 38.4838 129.008 40.2546C129.008 40.2546 111.863 32.4872 107.914 25.5534" fill="#021E6A"/>
<path d="M104.721 14.1064C104.721 14.1064 103.071 18.8842 106.118 21.0459C109.165 23.2077 113.299 18.6887 112.166 14.4342C111.034 10.1796 106.658 10.0129 104.721 14.1064Z" fill="#FFC285"/>
<path d="M112.569 20.3797C112.319 20.4343 112.059 20.4244 111.813 20.351C111.568 20.2776 111.345 20.143 111.166 19.96C110.718 19.5058 110.758 18.8619 110.752 18.2697C110.772 17.8853 110.69 17.5026 110.515 17.1596C110.341 16.8167 110.08 16.5254 109.757 16.3149C108.958 15.7744 107.952 15.6192 107.228 14.958C107.153 14.889 107.078 14.8143 107.015 14.7396C107.11 14.8282 107.214 14.9071 107.325 14.9753C108.475 15.6882 110.252 15.8607 110.775 16.1252C111.298 16.3896 110.447 18.5801 111.431 19.5345C112.414 20.4889 114.736 14.5096 113.391 12.8825C112.046 11.2554 107.607 9.3524 105.681 12.0546C105.734 12.2955 105.799 12.5335 105.877 12.7675C105.923 13.4984 106.194 14.1971 106.653 14.7683C107.371 15.6595 108.412 15.8607 109.361 16.4069C109.666 16.5564 109.926 16.7842 110.115 17.0669C110.304 17.3497 110.415 17.6774 110.436 18.0167C110.395 18.5768 110.456 19.1395 110.614 19.6783C110.792 20.0449 111.089 20.3399 111.457 20.5145C111.825 20.6891 112.242 20.7328 112.638 20.6384C112.839 20.6154 112.747 20.3394 112.569 20.3797Z" fill="#653200"/>
<path d="M113.851 74.153C110.213 68.6638 107.323 62.7145 105.256 56.4622C104.666 54.6722 104.146 52.8631 103.698 51.0348C103.665 50.8983 103.579 50.7804 103.46 50.7071C103.34 50.6338 103.196 50.611 103.06 50.6438C102.923 50.6766 102.805 50.7622 102.732 50.8819C102.659 51.0016 102.636 51.1455 102.669 51.282C104.272 57.7635 106.732 64.0027 109.982 69.8352C110.898 71.4795 111.877 73.0874 112.92 74.6589C113.294 75.2223 114.231 74.7279 113.851 74.153Z" fill="#F77819"/>
<path d="M41.0544 47.8959L40.6577 105.809L35.8972 108.402V46.9875L41.0544 47.8959Z" fill="#021E6A"/>
<path d="M28.7432 20.8676L34.8432 17.4352L55.7882 50.977L50.4873 54.6566" fill="#021E6A"/>
<g opacity="0.5">
<path opacity="0.5" d="M41.0544 47.8959L40.6577 105.809L35.8972 108.402V46.9875L41.0544 47.8959Z" fill="#647CCF"/>
<path opacity="0.5" d="M28.7432 20.8676L34.8432 17.4352L55.7882 50.977L50.4873 54.6566" fill="#647CCF"/>
</g>
<path d="M7 30.2398L28.7441 20.8683L50.4883 54.6573L35.8963 46.9877V108.402L20.9882 99.6748L20.2408 38.1681L7 30.2398Z" fill="#042170"/>
<path d="M71.1869 83.8409L70.9051 124.874L67.5303 126.714V83.1912L71.1869 83.8409Z" fill="#021E6A"/>
<path d="M62.4587 64.3907L66.7823 61.9587L81.6271 85.7266L77.867 88.3311" fill="#021E6A"/>
<path opacity="0.5" d="M71.1869 83.8409L70.9051 124.874L67.5303 126.714V83.1912L71.1869 83.8409Z" fill="#647CCF"/>
<path opacity="0.5" d="M62.4587 64.3907L66.7823 61.9587L81.6271 85.7266L77.867 88.3311" fill="#647CCF"/>
<path d="M46.957 71.02L62.4573 64.345L77.9576 88.4291L67.557 82.9614V126.714L56.3975 120.143V76.6716L46.957 71.02Z" fill="#042170"/>
<path d="M95.6835 112.755L95.511 140.564L93.4182 141.703V111.777L95.6835 112.755Z" fill="#021E6A"/>
<path d="M90.0032 100.106L92.6594 98.6224L102.669 114.703L100.398 116.256" fill="#021E6A"/>
<path opacity="0.5" d="M95.6835 112.755L95.511 140.564L93.4182 141.703V111.777L95.6835 112.755Z" fill="#647CCF"/>
<path opacity="0.5" d="M90.0032 100.106L92.6594 98.6224L102.669 114.703L100.398 116.256" fill="#647CCF"/>
<path d="M79.6028 104.585L90.0034 100.106L100.398 116.256L93.4243 112.593V141.702L85.9386 137.528V108.373L79.6028 104.585Z" fill="#042170"/>
</g>
<defs>
<filter id="filter0_d" x="0" y="0" width="214" height="160.77" filterUnits="userSpaceOnUse" color-interpolation-filters="sRGB">
<feFlood flood-opacity="0" result="BackgroundImageFix"/>
<feColorMatrix in="SourceAlpha" type="matrix" values="0 0 0 0 0 0 0 0 0 0 0 0 0 0 0 0 0 0 127 0"/>
<feOffset dy="9"/>
<feGaussianBlur stdDeviation="3.5"/>
<feColorMatrix type="matrix" values="0 0 0 0 0 0 0 0 0 0 0 0 0 0 0 0 0 0 0.25 0"/>
<feBlend mode="normal" in2="BackgroundImageFix" result="effect1_dropShadow"/>
<feBlend mode="normal" in="SourceGraphic" in2="effect1_dropShadow" result="shape"/>
</filter>
<linearGradient id="paint0_linear" x1="92.7274" y1="113.467" x2="152.377" y2="72.5486" gradientUnits="userSpaceOnUse">
<stop stop-color="#F2C526"/>
<stop offset="0.98" stop-color="#DCA926"/>
</linearGradient>
</defs>
</svg>
