<svg width="41" height="41" viewBox="0 0 41 41" fill="none" xmlns="http://www.w3.org/2000/svg">
<path d="M20.4734 40.7804C15.0985 40.7758 9.94565 38.6362 6.14831 34.8323C2.35097 31.0285 0.22024 25.8719 0.224861 20.497C0.229482 15.1222 2.36907 9.96927 6.17295 6.17193C9.97682 2.37459 15.1334 0.243861 20.5083 0.248482C25.8831 0.253103 31.036 2.39269 34.8334 6.19657C38.6307 10.0004 40.7614 15.157 40.7568 20.5319C40.7522 25.9068 38.6126 31.0596 34.8087 34.857C31.0049 38.6543 25.8483 40.7851 20.4734 40.7804Z" fill="url(#paint0_radial)"/>
<path d="M20.5084 0V0.497813C24.273 0.503372 27.9598 1.57045 31.1454 3.57655C34.3311 5.58264 36.8864 8.44643 38.5181 11.8391C40.1497 15.2318 40.7916 19.0158 40.3699 22.7568C39.9483 26.4978 38.4802 30.044 36.1343 32.9884C33.7884 35.9327 30.6597 38.1559 27.1074 39.4025C23.5552 40.6492 19.7234 40.8688 16.0519 40.0363C12.3805 39.2037 9.01826 37.3527 6.35124 34.6956C3.68423 32.0386 1.82055 28.6834 0.974178 25.0151C0.381256 22.4517 0.299509 19.7966 0.733614 17.2016C1.16772 14.6065 2.10916 12.1226 3.50408 9.8917C4.89901 7.66083 6.72005 5.72686 8.86305 4.20039C11.0061 2.67391 13.429 1.5849 15.9932 0.995626C17.4746 0.659367 18.9893 0.49236 20.5084 0.497813V0ZM20.5084 0C18.9503 0.00226033 17.3973 0.179261 15.8787 0.527682C10.7785 1.7078 6.32304 4.79435 3.42582 9.15448C0.528602 13.5146 -0.590815 18.8179 0.297098 23.977C1.18501 29.1361 4.01297 33.76 8.20113 36.9007C12.3893 40.0414 17.6203 41.4608 22.8215 40.868C28.0228 40.2752 32.8002 37.715 36.1742 33.7124C39.5482 29.7098 41.263 24.568 40.9672 19.3415C40.6714 14.1149 38.3873 9.19953 34.5832 5.60321C30.7791 2.00689 25.7433 0.00213244 20.5084 0V0Z" fill="#5C960B"/>
<g style="mix-blend-mode:multiply" opacity="0.8">
<path style="mix-blend-mode:multiply" opacity="0.8" d="M30.6288 3.44049C34.9944 6.27544 38.072 10.7116 39.1987 15.7935C40.3254 20.8755 39.411 26.1967 36.6526 30.6111C33.8942 35.0254 29.5124 38.1799 24.4508 39.395C19.3893 40.6101 14.053 39.7887 9.59119 37.1076C11.8021 38.578 14.2854 39.59 16.8942 40.0839C19.5031 40.5777 22.1845 40.5434 24.7798 39.9829C27.3752 39.4224 29.8318 38.3471 32.0043 36.8206C34.1768 35.2941 36.0211 33.3474 37.4281 31.0957C38.8352 28.8439 39.7764 26.3329 40.196 23.7111C40.6156 21.0893 40.5052 18.4099 39.8713 15.8315C39.2374 13.2531 38.0928 10.8281 36.5053 8.69974C34.9177 6.57141 32.9195 4.78307 30.6288 3.44049Z" fill="url(#paint1_linear)"/>
</g>
<g style="mix-blend-mode:screen">
<path style="mix-blend-mode:screen" d="M16.5408 25.1792C21.9819 17.7667 29.5088 10.2796 38.0364 12.6442C36.9381 10.2 35.341 8.01244 33.3475 6.22178C31.354 4.43112 29.0083 3.07695 26.4607 2.24616C23.9131 1.41536 21.22 1.12629 18.5542 1.39749C15.8883 1.66868 13.3086 2.49416 10.9805 3.82095C8.65247 5.14775 6.62746 6.94655 5.03544 9.10196C3.44342 11.2574 2.31955 13.7218 1.73594 16.3371C1.15233 18.9523 1.12187 21.6607 1.64651 24.2885C2.17115 26.9162 3.23931 29.4053 4.78245 31.596C7.94356 31.6557 12.5533 30.6103 16.5408 25.1792Z" fill="url(#paint2_linear)"/>
</g>
<g style="mix-blend-mode:screen">
<path style="mix-blend-mode:screen" d="M3.2991 25.801C2.45809 22.1712 2.6905 18.3752 3.96804 14.8751C5.24558 11.3751 7.51314 8.32188 10.4947 6.08733C13.4762 3.85277 17.043 2.53322 20.761 2.28933C24.479 2.04544 28.1876 2.88773 31.4355 4.71366C29.2979 3.22874 26.8809 2.19345 24.3312 1.67058C21.7814 1.14771 19.1521 1.14814 16.6025 1.67186C14.053 2.19557 11.6363 3.23166 9.49919 4.71728C7.36204 6.20291 5.54889 8.10712 4.16969 10.3145C2.79049 12.5218 1.87397 14.9862 1.47572 17.5584C1.07747 20.1305 1.20577 22.7568 1.85286 25.2778C2.49995 27.7989 3.65234 30.1623 5.24014 32.2246C6.82795 34.287 8.81808 36.0054 11.0899 37.2756C7.14805 34.5609 4.36798 30.4663 3.2991 25.801Z" fill="url(#paint3_linear)"/>
</g>
<path d="M32.6054 14.4173L28.1052 9.92206L17.3225 20.7047L12.7626 16.1397L8.26233 20.645L17.3176 29.7002L17.3225 29.6902L17.3375 29.7002L32.6054 14.4173Z" fill="white"/>
<defs>
<radialGradient id="paint0_radial" cx="0" cy="0" r="1" gradientUnits="userSpaceOnUse" gradientTransform="translate(23.7399 34.6897) rotate(-13) scale(20.9155)">
<stop stop-color="#1ABA1B"/>
<stop offset="1" stop-color="#22AC00"/>
</radialGradient>
<linearGradient id="paint1_linear" x1="18.3059" y1="13.6262" x2="37.8161" y2="50.9091" gradientUnits="userSpaceOnUse">
<stop stop-color="white"/>
<stop offset="1" stop-color="#FBAE17"/>
</linearGradient>
<linearGradient id="paint2_linear" x1="10.769" y1="2.51098" x2="23.9079" y2="26.8469" gradientUnits="userSpaceOnUse">
<stop stop-color="#FFFBD4"/>
<stop offset="1"/>
</linearGradient>
<linearGradient id="paint3_linear" x1="6.6096" y1="-0.192328" x2="28.7994" y2="35.2866" gradientUnits="userSpaceOnUse">
<stop stop-color="white"/>
<stop offset="1"/>
</linearGradient>
</defs>
</svg>
