<svg width="60" height="60" viewBox="0 0 60 60" fill="none" xmlns="http://www.w3.org/2000/svg">
<path d="M29.9846 59.9858H30.0154C37.9676 59.9852 45.5939 56.8259 51.217 51.2028C56.8401 45.5798 59.9994 37.9534 60 30.0012C60.0003 26.0615 59.2246 22.1603 57.7172 18.5204C56.2097 14.8805 54.0001 11.5732 51.2144 8.78729C48.4287 6.00139 45.1216 3.79148 41.4818 2.28375C37.842 0.776021 33.9409 8.09577e-08 30.0012 9.31958e-08C26.0615 -0.000310437 22.1603 0.775403 18.5204 2.28285C14.8805 3.79029 11.5732 5.99994 8.78729 8.78561C6.00139 11.5713 3.79148 14.8784 2.28375 18.5182C0.776021 22.158 -1.22381e-08 26.0591 0 29.9988H0C-2.47232e-08 37.9515 3.15901 45.5784 8.78215 51.202C14.4053 56.8256 22.032 59.9852 29.9846 59.9858Z" fill="#EE8208"/>
<path d="M29.883 30.8737C31.5513 30.8737 33.182 30.379 34.5691 29.4521C35.9562 28.5252 37.0372 27.2078 37.6755 25.6665C38.3138 24.1252 38.4807 22.4293 38.1551 20.7931C37.8294 19.1569 37.0259 17.6541 35.8461 16.4746C34.6663 15.2952 33.1633 14.4921 31.527 14.1669C29.8908 13.8417 28.1948 14.0091 26.6537 14.6478C25.1126 15.2866 23.7955 16.368 22.869 17.7553C21.9425 19.1426 21.4483 20.7735 21.4487 22.4418C21.4512 24.6777 22.3407 26.8213 23.922 28.4021C25.5032 29.9829 27.6471 30.8718 29.883 30.8737ZM29.883 18.9494C30.5738 18.9494 31.249 19.1542 31.8233 19.5379C32.3976 19.9217 32.8453 20.4671 33.1096 21.1053C33.3739 21.7435 33.4431 22.4457 33.3083 23.1231C33.1736 23.8006 32.841 24.4229 32.3525 24.9113C31.8641 25.3997 31.2418 25.7323 30.5644 25.8671C29.8869 26.0019 29.1847 25.9327 28.5465 25.6684C27.9084 25.404 27.3629 24.9564 26.9792 24.3821C26.5954 23.8077 26.3906 23.1325 26.3906 22.4418C26.3912 21.5157 26.7594 20.6278 27.4142 19.973C28.069 19.3181 28.957 18.95 29.883 18.9494Z" fill="white"/>
<path d="M33.2949 37.7545C35.0303 37.3602 36.6861 36.6742 38.1919 35.7257C38.4665 35.5529 38.7045 35.3277 38.8921 35.063C39.0797 34.7982 39.2133 34.4991 39.2853 34.1827C39.3574 33.8663 39.3663 33.5388 39.3118 33.2189C39.2573 32.8991 39.1402 32.5931 38.9674 32.3184C38.7946 32.0438 38.5694 31.8058 38.3047 31.6182C38.0399 31.4306 37.7408 31.297 37.4244 31.225C37.108 31.1529 36.7805 31.144 36.4607 31.1985C36.1408 31.253 35.8348 31.3701 35.5602 31.5429C33.8583 32.606 31.8919 33.1697 29.8853 33.1697C27.8786 33.1697 25.9123 32.606 24.2104 31.5429C23.6557 31.1939 22.9851 31.0795 22.3461 31.225C21.7071 31.3704 21.1521 31.7637 20.8031 32.3184C20.4541 32.8731 20.3398 33.5437 20.4852 34.1827C20.6307 34.8217 21.024 35.3767 21.5787 35.7257C23.085 36.6732 24.7406 37.3591 26.4756 37.7545L21.7537 42.4694C21.2902 42.9328 21.0299 43.5614 21.0299 44.2167C21.0299 44.8721 21.2902 45.5007 21.7537 45.9641C22.2171 46.4276 22.8456 46.6879 23.501 46.6879C24.1564 46.6879 24.785 46.4276 25.2484 45.9641L29.8805 41.3297L34.5221 45.9641C34.7497 46.2018 35.0225 46.3915 35.3244 46.5223C35.6263 46.6531 35.9514 46.7222 36.2804 46.7257C36.6094 46.7292 36.9358 46.6669 37.2404 46.5426C37.545 46.4182 37.8218 46.2343 38.0543 46.0016C38.2869 45.7688 38.4707 45.492 38.5948 45.1872C38.719 44.8825 38.781 44.5561 38.7773 44.2271C38.7736 43.8981 38.7042 43.5731 38.5732 43.2713C38.4423 42.9694 38.2523 42.6968 38.0145 42.4694L33.2949 37.7545Z" fill="white"/>
</svg>
