<svg width="45" height="45" viewBox="0 0 45 45" fill="none" xmlns="http://www.w3.org/2000/svg">
<path d="M22.4885 45H22.5115C28.4757 44.9995 34.1955 42.6301 38.4128 38.4128C42.6301 34.1955 44.9995 28.4757 45 22.5115V22.4991C45 16.532 42.6296 10.8092 38.4102 6.58984C34.1908 2.37044 28.468 6.98969e-08 22.5009 6.98968e-08C19.5461 -0.000232828 16.6202 0.581552 13.8903 1.71213C11.1604 2.84272 8.67989 4.49995 6.59046 6.58921C4.50104 8.67847 2.84361 11.1588 1.71281 13.8887C0.582016 16.6185 -9.1786e-09 19.5443 0 22.4991L0 22.5115C0.000470268 28.4757 2.36994 34.1955 6.58724 38.4128C10.8045 42.6301 16.5243 44.9995 22.4885 45Z" fill="url(#paint0_linear)"/>
<path d="M24.6164 36.7804V24.3081H28.8034L29.4294 19.4489H24.6164V16.3455C24.6164 14.9392 25.0066 13.9798 27.0247 13.9798H29.5997V9.63141C28.3538 9.49975 27.1017 9.43581 25.849 9.43988C22.1372 9.43988 19.5977 11.7045 19.5977 15.8649V19.4489H15.4001V24.3081H19.5977V36.7804H24.6164Z" fill="white"/>
<defs>
<linearGradient id="paint0_linear" x1="22.5" y1="0" x2="22.5" y2="45" gradientUnits="userSpaceOnUse">
<stop stop-color="#6B8ACD"/>
<stop offset="1" stop-color="#001A50"/>
</linearGradient>
</defs>
</svg>
