<svg width="28" height="27" viewBox="0 0 28 27" fill="none" xmlns="http://www.w3.org/2000/svg">
<ellipse cx="13.8889" cy="13.3929" rx="13.8889" ry="13.3929" fill="url(#paint0_linear)"/>
<path d="M13.8668 7.00502C16.0422 7.00502 16.3002 7.01392 17.1593 7.05334C17.676 7.05957 18.1877 7.15592 18.6722 7.33819C19.0264 7.47033 19.3467 7.68203 19.609 7.95748C19.8799 8.22418 20.0883 8.54924 20.2189 8.90867C20.3976 9.40077 20.4916 9.92038 20.4969 10.4448C20.5358 11.3172 20.5445 11.5791 20.5445 13.788C20.5445 15.9968 20.5358 16.2588 20.4969 17.1311C20.4908 17.6557 20.3959 18.1753 20.2164 18.6673C20.0806 19.0241 19.8729 19.3481 19.6065 19.6185C19.3402 19.889 19.0211 20.0999 18.6697 20.2378C18.1859 20.4189 17.675 20.5144 17.1593 20.5201C16.3002 20.5595 16.0422 20.5684 13.8668 20.5684C11.6914 20.5684 11.4334 20.5595 10.5743 20.5201C10.0576 20.5138 9.54587 20.4175 9.06138 20.2352C8.70739 20.1026 8.38725 19.891 8.12459 19.6159C7.85331 19.3496 7.64482 19.0244 7.51468 18.6647C7.33545 18.1736 7.24056 17.6549 7.23414 17.1311C7.19532 16.2588 7.18655 15.9968 7.18655 13.788C7.18655 11.5791 7.19532 11.3172 7.23414 10.4448C7.24027 9.92023 7.33517 9.40062 7.51468 8.90867C7.64528 8.54924 7.85371 8.22418 8.12459 7.95748C8.38725 7.68244 8.70739 7.4708 9.06138 7.33819C9.54587 7.15592 10.0576 7.05957 10.5743 7.05334C11.4334 7.01392 11.6914 7.00502 13.8668 7.00502ZM13.8668 5.51465C11.6538 5.51465 11.377 5.52355 10.5079 5.56424C9.83182 5.57709 9.16277 5.70608 8.52911 5.94574C7.98563 6.15337 7.49328 6.47884 7.08636 6.89947C6.6721 7.31264 6.35156 7.81257 6.14707 8.36441C5.91104 9.00781 5.78401 9.68714 5.77135 10.3736C5.72752 11.2599 5.71875 11.541 5.71875 13.788C5.71875 16.035 5.72752 16.3236 5.76759 17.1998C5.78034 17.8858 5.90738 18.5648 6.14331 19.2077C6.34718 19.7599 6.66781 20.2599 7.0826 20.6727C7.48968 21.0934 7.98196 21.4193 8.52535 21.6277C9.15919 21.8667 9.82813 21.9956 10.5041 22.0092C11.3733 22.0499 11.6501 22.0588 13.863 22.0588C16.076 22.0588 16.354 22.0499 17.2232 22.0092C17.8988 21.9955 18.5673 21.8666 19.2007 21.6277C19.7407 21.4145 20.2311 21.0897 20.6407 20.6737C21.0504 20.2578 21.3703 19.7598 21.5803 19.2116C21.8155 18.5684 21.9425 17.8896 21.956 17.2036C21.9961 16.3211 22.0048 16.0388 22.0048 13.7918C22.0048 11.5448 21.9961 11.2638 21.956 10.3812C21.9427 9.69484 21.8156 9.01562 21.5803 8.37204C21.375 7.82029 21.0541 7.32043 20.6397 6.9071C20.2332 6.48593 19.7408 6.16038 19.197 5.95337C18.5637 5.7138 17.8951 5.58482 17.2194 5.57187C16.3641 5.52355 16.0798 5.51465 13.8668 5.51465Z" fill="#DAE7FB"/>
<path d="M13.8669 9.53967C13.0393 9.53967 12.2303 9.78885 11.5422 10.2557C10.8541 10.7225 10.3178 11.3861 10.0011 12.1624C9.68443 12.9387 9.60157 13.793 9.76302 14.6171C9.92447 15.4412 10.323 16.1983 10.9082 16.7924C11.4933 17.3866 12.2389 17.7913 13.0505 17.9552C13.8622 18.1191 14.7035 18.035 15.4681 17.7134C16.2327 17.3919 16.8861 16.8473 17.3459 16.1486C17.8057 15.45 18.0511 14.6285 18.0511 13.7882C18.0511 13.2303 17.9429 12.6778 17.7326 12.1624C17.5223 11.6469 17.2141 11.1786 16.8256 10.7841C16.437 10.3895 15.9757 10.0766 15.4681 9.86308C14.9604 9.64957 14.4163 9.53967 13.8669 9.53967ZM13.8669 16.5464C13.3296 16.5464 12.8044 16.3847 12.3577 16.0816C11.911 15.7785 11.5628 15.3478 11.3572 14.8438C11.1516 14.3398 11.0978 13.7852 11.2026 13.2501C11.3074 12.7151 11.5661 12.2236 11.946 11.8379C12.3259 11.4522 12.81 11.1895 13.3369 11.083C13.8638 10.9766 14.41 11.0312 14.9064 11.24C15.4027 11.4488 15.827 11.8023 16.1255 12.2559C16.424 12.7095 16.5833 13.2427 16.5833 13.7882C16.5833 14.5198 16.2971 15.2213 15.7877 15.7386C15.2782 16.2559 14.5873 16.5464 13.8669 16.5464Z" fill="#DAE7FB"/>
<path d="M18.2164 10.3651C18.7566 10.3651 19.1945 9.92045 19.1945 9.37194C19.1945 8.82344 18.7566 8.37878 18.2164 8.37878C17.6762 8.37878 17.2383 8.82344 17.2383 9.37194C17.2383 9.92045 17.6762 10.3651 18.2164 10.3651Z" fill="#DAE7FB"/>
<defs>
<linearGradient id="paint0_linear" x1="13.8889" y1="0" x2="13.8889" y2="26.7857" gradientUnits="userSpaceOnUse">
<stop stop-color="#3F94F8"/>
<stop offset="1" stop-color="#183AB3"/>
</linearGradient>
</defs>
</svg>
