<svg width="61" height="35" viewBox="0 0 61 35" fill="none" xmlns="http://www.w3.org/2000/svg">
<path d="M14.4788 12.7344C13.8879 14.6605 12.8526 15.8915 11.373 16.4272C9.89733 16.9502 8.16749 16.8655 6.18352 16.173C4.75792 15.6753 3.61408 15.0095 2.752 14.1755C1.9057 13.333 1.34181 12.4487 1.06034 11.5227C0.790751 10.6009 0.772587 9.75985 1.00585 8.99953C1.04084 8.88548 1.10564 8.80288 1.20024 8.75173C1.31062 8.69205 1.41926 8.68087 1.52618 8.7182L5.55352 10.124C5.66044 10.1613 5.73788 10.2304 5.78584 10.3313C5.84567 10.4364 5.87397 10.5585 5.87073 10.6977C5.86319 11.5368 6.3168 12.116 7.23157 12.4353C7.78993 12.6302 8.27226 12.6442 8.67855 12.4774C9.09672 12.3147 9.3855 11.9736 9.5449 11.4541L10.857 7.17727L4.35266 4.90686C4.22198 4.86124 4.12467 4.77116 4.06073 4.63661C3.99679 4.50206 3.9862 4.36509 4.02897 4.22569L4.90953 1.35547C4.95229 1.21608 5.03674 1.11229 5.16289 1.04408C5.28903 0.975882 5.41744 0.964589 5.54812 1.0102L16.3827 4.79214C16.5134 4.83776 16.6107 4.92784 16.6747 5.06239C16.7386 5.19694 16.7492 5.33391 16.7064 5.47331L14.4788 12.7344Z" fill="#355698" fill-opacity="0.09"/>
<path d="M19.62 19.9372C19.3334 20.3141 19 20.4363 18.6198 20.3036L15.2518 19.1279C15.1449 19.0906 15.0615 19.0194 15.0017 18.9144C14.9576 18.8008 14.9531 18.687 14.9881 18.5729L15.0409 18.4651L22.652 7.67494C22.7501 7.52679 22.8839 7.41217 23.0535 7.33106C23.223 7.24995 23.4206 7.2488 23.6464 7.32759L28.6004 9.05683C28.8261 9.13562 28.9848 9.26118 29.0766 9.43352C29.1684 9.60585 29.2128 9.78268 29.2098 9.96401L29.3683 23.4662L29.3511 23.5865C29.3161 23.7005 29.2434 23.7874 29.133 23.847C29.0384 23.8982 28.9377 23.9051 28.8307 23.8678L25.4628 22.6922C25.0826 22.5595 24.8814 22.2507 24.8591 21.766L24.8218 20.2799L20.4737 18.7621L19.62 19.9372ZM24.9979 11.8608L22.5197 15.3728L25.0501 16.2561L24.9979 11.8608Z" fill="#355698" fill-opacity="0.09"/>
<path d="M47.9995 15.8283C48.1064 15.8656 48.1819 15.9411 48.226 16.0547C48.2858 16.1597 48.2982 16.2693 48.2632 16.3833L48.2046 16.5102L40.3854 27.2066C40.2716 27.3633 40.1299 27.4822 39.9604 27.5633C39.7947 27.6317 39.6049 27.6286 39.3911 27.554L35.239 26.1047C35.0252 26.03 34.8704 25.9129 34.7747 25.7532C34.6829 25.5809 34.6346 25.4167 34.6299 25.2607L34.2336 11.6334L34.2566 11.4942C34.2916 11.3801 34.3564 11.2975 34.451 11.2464C34.5614 11.1867 34.67 11.1755 34.777 11.2128L38.537 12.5253C38.7508 12.6 38.9017 12.7298 38.9896 12.9148C39.0933 13.0913 39.1456 13.2638 39.1465 13.4325L38.9623 21.4279L43.2451 14.8632C43.3431 14.715 43.477 14.6004 43.6465 14.5193C43.8161 14.4382 44.0137 14.437 44.2394 14.5158L47.9995 15.8283Z" fill="#355698" fill-opacity="0.09"/>
<path d="M50.2566 30.6312C49.97 31.0082 49.6366 31.1303 49.2565 30.9976L45.8885 29.822C45.7815 29.7846 45.6982 29.7135 45.6383 29.6084C45.5943 29.4948 45.5897 29.381 45.6247 29.2669L45.6775 29.1591L53.2887 18.369C53.3867 18.2208 53.5205 18.1062 53.6901 18.0251C53.8596 17.944 54.0573 17.9428 54.283 18.0216L59.237 19.7509C59.4627 19.8297 59.6215 19.9552 59.7133 20.1276C59.8051 20.2999 59.8495 20.4767 59.8464 20.658L60.0049 34.1602L59.9877 34.2805C59.9527 34.3945 59.88 34.4814 59.7697 34.5411C59.6751 34.5922 59.5743 34.5991 59.4674 34.5618L56.0994 33.3862C55.7192 33.2535 55.518 32.9448 55.4957 32.46L55.4585 30.9739L51.1103 29.4562L50.2566 30.6312ZM55.6345 22.5548L53.1563 26.0668L55.6868 26.9501L55.6345 22.5548Z" fill="#355698" fill-opacity="0.09"/>
</svg>
