<svg width="202" height="166" viewBox="0 0 202 166" fill="none" xmlns="http://www.w3.org/2000/svg">
<g filter="url(#filter0_d)">
<path d="M6.00559 95.5307L8.45535 97.0732L112.993 33.7913L192.364 84.1954L195.987 83.0522V87.5827C196.034 88.051 195.951 88.5236 195.748 88.9426C195.544 89.3617 195.23 89.7089 194.842 89.9417L94.7461 150.677C93.3284 151.537 91.7238 151.993 90.0894 152C88.455 152.007 86.8467 151.566 85.4221 150.719L8.07186 104.749C7.33291 104.313 6.74205 103.643 6.38263 102.834C6.0232 102.024 5.91335 101.116 6.06856 100.237L6.00559 95.5307Z" fill="#112E7C"/>
<path d="M6.00559 95.5307L8.45535 97.0732L112.993 33.7913L192.364 84.1954L195.987 83.0522V87.5827C196.034 88.051 195.951 88.5236 195.748 88.9426C195.544 89.3617 195.23 89.7089 194.842 89.9417L94.7461 150.677C93.3284 151.537 91.7238 151.993 90.0894 152C88.455 152.007 86.8467 151.566 85.4221 150.719L8.07186 104.749C7.33291 104.313 6.74205 103.643 6.38263 102.834C6.0232 102.024 5.91335 101.116 6.06856 100.237L6.00559 95.5307Z" fill="#112E7C"/>
<path opacity="0.39" d="M6.00559 95.5307L8.45535 97.0732L112.993 33.7913L192.364 84.1954L195.987 83.0522V87.5827C196.034 88.051 195.951 88.5236 195.748 88.9426C195.544 89.3617 195.23 89.7089 194.842 89.9417L94.7461 150.677C93.3284 151.537 91.7238 151.993 90.0894 152C88.455 152.007 86.8467 151.566 85.4221 150.719L8.07186 104.749C7.33291 104.313 6.74205 103.643 6.38263 102.834C6.0232 102.024 5.91335 101.116 6.06856 100.237L6.00559 95.5307Z" fill="#124577"/>
<path d="M194.848 84.3473L94.7464 145.083C93.3287 145.942 91.7242 146.398 90.0897 146.406C88.4553 146.413 86.8471 145.972 85.4225 145.125L8.07216 99.1546C7.44716 98.7807 6.92725 98.2383 6.56551 97.5826C6.20378 96.9269 6.01318 96.1815 6.01318 95.4226C6.01318 94.6636 6.20378 93.9182 6.56551 93.2625C6.92725 92.6068 7.44716 92.0644 8.07216 91.6905L113.017 28.1787L194.911 80.1979C195.247 80.4185 195.523 80.7273 195.713 81.0942C195.902 81.4611 195.998 81.8736 195.992 82.2914C195.985 82.7093 195.877 83.1183 195.676 83.4786C195.476 83.8389 195.191 84.1382 194.848 84.3473Z" fill="#112E7C"/>
<path d="M182.977 81.8189L96.8983 134.007L20.5955 88.6781L107.865 34.5177L182.977 81.8189Z" fill="white"/>
<path opacity="0.39" d="M49.3741 116.084C51.4763 116.084 53.1804 115.101 53.1804 113.888C53.1804 112.675 51.4763 111.692 49.3741 111.692C47.272 111.692 45.5679 112.675 45.5679 113.888C45.5679 115.101 47.272 116.084 49.3741 116.084Z" fill="#124577"/>
<path d="M100.246 115.551C100.935 115.094 101.499 114.456 101.884 113.699C102.269 112.942 102.462 112.093 102.444 111.234C102.427 110.375 102.198 109.536 101.782 108.797C101.366 108.059 100.776 107.448 100.069 107.023L61.7201 83.9287C60.3106 83.0789 58.7141 82.6366 57.0913 82.6461C55.4686 82.6557 53.8769 83.1168 52.4763 83.9831C51.7706 84.4271 51.1872 85.0587 50.7841 85.815C50.381 86.5712 50.1722 87.4258 50.1786 88.2938C50.185 89.1617 50.4062 90.0128 50.8204 90.7623C51.2345 91.5119 51.8272 92.1338 52.5393 92.5663L90.7394 115.733C92.1906 116.617 93.842 117.067 95.5167 117.035C97.1915 117.003 98.8264 116.49 100.246 115.551Z" fill="#9EE8E1"/>
<path d="M119.112 92.899C138.932 92.899 155 85.1294 155 75.5451C155 65.9609 138.932 58.1913 119.112 58.1913C99.2916 58.1913 83.2241 65.9609 83.2241 75.5451C83.2241 85.1294 99.2916 92.899 119.112 92.899Z" stroke="#29ABE2" stroke-miterlimit="10"/>
<path d="M38.5107 21.1119L39.4207 55.1784C39.4524 55.5424 39.5661 55.8931 39.7525 56.201C39.9388 56.5089 40.1923 56.7652 40.4916 56.9482C40.791 57.1313 41.1275 57.2358 41.473 57.2531C41.8185 57.2704 42.1628 57.1999 42.4772 57.0475L68.3484 41.8894C68.7866 41.6587 69.1541 41.3018 69.4083 40.8597C69.6625 40.4176 69.7932 39.9085 69.7851 39.3912L69.2127 6.49212C69.2062 6.1126 69.1086 5.74105 68.9289 5.41241C68.7491 5.08376 68.4933 4.80882 68.1853 4.61344C67.8774 4.41806 67.5275 4.30866 67.1685 4.29553C66.8095 4.2824 66.4533 4.36597 66.1333 4.53838L39.9301 18.6198C39.496 18.8526 39.1327 19.2097 38.8817 19.6504C38.6306 20.0911 38.5021 20.5976 38.5107 21.1119Z" fill="#F3DC0A"/>
<path d="M52.1217 39.8163C50.8357 37.4573 49.6204 35.0801 48.4757 32.6848C48.2968 32.318 48.0306 32.0066 47.7034 31.7815C47.3761 31.5563 46.999 31.4251 46.6091 31.4006C46.2193 31.3762 45.8302 31.4595 45.48 31.6422C45.1299 31.825 44.8308 32.1009 44.6122 32.4429L44.5835 32.4913C44.3613 32.8462 44.2316 33.2567 44.2075 33.6815C44.1834 34.1063 44.2657 34.5303 44.4462 34.9108C45.6539 37.3787 46.8959 39.8344 48.1952 42.2539C49.6204 44.9456 53.5755 42.5201 52.1217 39.8163Z" fill="white"/>
<path d="M48.3496 39.8751C53.03 32.177 57.3101 24.2152 61.1708 16.0249C62.4815 13.2486 66.4137 15.6862 65.1087 18.4444C61.2479 26.6346 56.9679 34.5965 52.2875 42.2946C50.7021 44.9077 46.7584 42.4942 48.3496 39.8751Z" fill="white"/>
<path style="mix-blend-mode:multiply" opacity="0.46" d="M99.8341 74.7469L71.1641 91.3326L99.8341 107.652L142.218 82.8825" fill="url(#paint0_linear)"/>
<path d="M142.219 82.889C142.219 82.889 141.584 72.1948 141.349 69.5454C141.137 67.1259 140.382 56.6435 134.16 53.3227C126.295 49.1249 117.235 43.681 108.861 46.2154C102.073 48.272 99.7603 73.096 99.8347 74.7534C99.9893 77.7233 121.024 93.444 142.219 82.889Z" fill="#9FE30F"/>
<path d="M126.141 54.5926C126.141 55.0765 120.589 61.7604 119.272 60.8954C117.956 60.0305 117.321 54.0543 116.496 54.5926C115.672 55.131 112.644 58.9961 112.209 58.6937C111.774 58.3912 112.862 48.1447 113.755 46.4268C114.648 44.709 126.141 50.794 126.141 54.5926Z" fill="#2B415D"/>
<path d="M112.186 29.7201C112.186 29.7201 112.221 36.6701 112.186 39.2529C112.152 41.9748 113.239 49.3301 117.475 49.0942C121.711 48.8583 126.061 43.6503 126.061 42.4406C126.061 42.4406 130.342 39.6279 127.921 37.4625C125.5 35.297 125.317 38.9626 125.317 38.9626C125.317 38.9626 124.006 36.9483 123.914 31.5408C123.908 31.5529 117.864 32.563 112.186 29.7201Z" fill="#FFAC73"/>
<path d="M125.854 49.6699C123.697 51.7749 120.182 52.1681 116.931 51.6721C116.688 51.6532 116.458 51.546 116.28 51.3685C116.103 51.191 115.989 50.9542 115.958 50.6982C115.907 49.6457 115.844 48.5933 115.758 47.5468L126.925 41.7582L126.061 49.2768C126.061 49.2768 125.992 49.4461 125.854 49.6699Z" fill="#FFAC73"/>
<path d="M118.196 51.8107C117.761 51.7744 117.326 51.726 116.897 51.6655C116.662 51.648 116.44 51.545 116.269 51.374C116.098 51.2031 115.988 50.9748 115.958 50.728C115.958 50.1775 115.906 49.6332 115.872 49.0888C118.236 49.0888 122.443 48.4839 124.664 43.8748C124.376 45.6964 123.621 47.3998 122.481 48.7991C121.34 50.1985 119.858 51.2402 118.196 51.8107Z" fill="#E5894A"/>
<path d="M112.203 33.6765C112.203 33.6765 109.519 31.8619 109.84 27.658C110.16 23.4541 114.579 21.0407 120.594 21.3975C126.61 21.7544 133.547 24.8877 134.52 35.3097C135.493 45.7316 137.634 51.7864 134.137 53.3107C130.64 54.835 125.053 56.5589 119.255 55.827C119.255 55.827 124.927 43.9836 124.338 36.0113C123.748 28.0391 123.611 34.1241 122.953 35.4427C122.294 36.7614 112.203 33.6765 112.203 33.6765Z" fill="#4B1B13"/>
<path d="M129.603 86.4267C129.391 86.4267 129.185 86.4267 128.974 86.463C129.035 81.9909 129.046 77.5209 129.008 73.0529C129.024 72.8695 129.104 72.699 129.232 72.5748C129.361 72.4506 129.529 72.3817 129.703 72.3817C129.878 72.3817 130.046 72.4506 130.174 72.5748C130.303 72.699 130.383 72.8695 130.399 73.0529C130.437 77.4887 130.426 81.9244 130.364 86.3602L129.603 86.4267Z" fill="#5F8B00"/>
<path d="M106.663 80.819C106.617 80.7904 106.569 80.7661 106.52 80.7465L106.142 80.5287L105.701 80.2746L105.335 80.0629C105.335 74.7481 105.484 69.4393 105.781 64.1366C105.833 63.193 107.224 63.187 107.172 64.1366C106.882 69.6047 106.732 75.0747 106.72 80.5468C106.718 80.6406 106.698 80.733 106.663 80.819Z" fill="#5F8B00"/>
<path d="M129.26 18.6865L139.219 24.5236C139.589 24.7404 139.896 25.0578 140.111 25.4429C140.325 25.8279 140.438 26.2665 140.438 26.7132V42.8573" stroke="#29ABE2" stroke-width="4" stroke-miterlimit="10"/>
<path d="M140.439 69.0667V83.3538C140.439 83.6819 140.358 84.0045 140.204 84.2891C140.049 84.5738 139.827 84.8106 139.558 84.9759C139.29 85.1412 138.985 85.2293 138.675 85.2312C138.364 85.2331 138.059 85.1489 137.789 84.9869L129.329 79.9181" stroke="#29ABE2" stroke-width="4" stroke-miterlimit="10"/>
<path d="M112.347 8.54352L101.884 2.1621C101.709 2.05545 101.511 1.99953 101.309 2C101.107 2.00048 100.909 2.05732 100.734 2.16479C100.56 2.27226 100.416 2.42652 100.316 2.61194C100.216 2.79737 100.165 3.00736 100.167 3.22063V17.9372" stroke="#29ABE2" stroke-width="4" stroke-miterlimit="10"/>
<path d="M108.374 70.1864L101.076 66.1035C100.52 65.7922 100.054 65.3264 99.7293 64.7562C99.4046 64.186 99.2331 63.5329 99.2334 62.8674V49.4937" stroke="#29ABE2" stroke-width="4" stroke-miterlimit="10"/>
<path d="M58.3146 91.9131L58.1028 90.7699L60.5811 90.6307L59.4364 89.4936L61.3767 88.9855L62.3555 90.1952L64.0726 89.1246L65.6066 89.9472L63.6147 90.8606L65.9042 91.3868L64.9483 92.4212L62.8248 91.8163L62.573 93.141L60.4323 93.0321L60.9303 91.659L58.3146 91.9131Z" fill="black"/>
<path d="M66.7914 97.3087L66.5796 96.1655L69.058 96.0264L67.9132 94.8892L69.8536 94.3811L70.8323 95.5909L72.5494 94.5202L74.0834 95.3429L72.0915 96.2562L74.381 96.7825L73.4251 97.8168L71.3017 97.2119L71.0498 98.5366L68.9091 98.4277L69.4071 97.0546L66.7914 97.3087Z" fill="black"/>
<path d="M77.2889 103.454L77.0771 102.311L79.5555 102.172L78.4108 101.034L80.3511 100.526L81.3299 101.736L83.047 100.665L84.5809 101.488L82.5891 102.401L84.8786 102.928L83.9227 103.962L81.7992 103.357L81.5016 104.664L79.3609 104.555L79.8589 103.182L77.2889 103.454Z" fill="black"/>
<path d="M87.0707 109.454L86.8589 108.311L89.3373 108.172L88.1925 107.035L90.1329 106.527L91.1116 107.736L92.8287 106.666L94.3627 107.488L92.3708 108.402L94.6603 108.928L93.7045 109.962L91.5809 109.357L91.3291 110.682L89.1884 110.573L89.6864 109.2L87.0707 109.454Z" fill="black"/>
</g>
<defs>
<filter id="filter0_d" x="0" y="0" width="202" height="166" filterUnits="userSpaceOnUse" color-interpolation-filters="sRGB">
<feFlood flood-opacity="0" result="BackgroundImageFix"/>
<feColorMatrix in="SourceAlpha" type="matrix" values="0 0 0 0 0 0 0 0 0 0 0 0 0 0 0 0 0 0 127 0"/>
<feOffset dy="8"/>
<feGaussianBlur stdDeviation="3"/>
<feColorMatrix type="matrix" values="0 0 0 0 0.0610937 0 0 0 0 0.0546875 0 0 0 0 0.375 0 0 0 0.25 0"/>
<feBlend mode="normal" in2="BackgroundImageFix" result="effect1_dropShadow"/>
<feBlend mode="normal" in="SourceGraphic" in2="effect1_dropShadow" result="shape"/>
</filter>
<linearGradient id="paint0_linear" x1="96.5773" y1="101.7" x2="108.394" y2="86.4327" gradientUnits="userSpaceOnUse">
<stop offset="0.01" stop-color="white" stop-opacity="0"/>
<stop offset="1" stop-color="#B3B3B3" stop-opacity="0.97"/>
</linearGradient>
</defs>
</svg>
