<svg width="19" height="18" viewBox="0 0 19 18" fill="none" xmlns="http://www.w3.org/2000/svg">
<path d="M9.00472 1.23745e-06C7.5645 -0.00075393 6.14512 0.34414 4.86584 1.00571C3.58655 1.66728 2.48472 2.6262 1.65289 3.80192C0.821072 4.97764 0.283558 6.33582 0.0855047 7.76236C-0.112548 9.1889 0.0346456 10.6421 0.514721 12L1.44472 11.63C1.02492 10.424 0.89991 9.13508 1.08014 7.8709C1.26036 6.60673 1.74059 5.40407 2.48067 4.36345C3.22075 3.32283 4.19919 2.47449 5.33419 1.88935C6.46919 1.3042 7.72777 0.999257 9.00472 1C10.3284 0.999923 11.6315 1.32831 12.7971 1.95574C13.9627 2.58316 14.9543 3.49 15.6832 4.59498C16.4121 5.69996 16.8554 6.96853 16.9734 8.28698C17.0913 9.60543 16.8803 10.9326 16.3592 12.1494C15.8381 13.3662 15.0232 14.4347 13.9875 15.2591C12.9518 16.0835 11.7278 16.638 10.4251 16.873C9.12239 17.1079 7.78175 17.0159 6.52334 16.6053C5.26493 16.1946 4.12809 15.4781 3.21472 14.52L2.21472 14.91C3.20382 16.046 4.4622 16.9155 5.87455 17.439C7.2869 17.9625 8.80804 18.1231 10.2986 17.9062C11.7891 17.6892 13.2014 17.1017 14.4059 16.1973C15.6104 15.293 16.5688 14.1008 17.193 12.73C17.8173 11.3592 18.0875 9.85369 17.9789 8.35137C17.8704 6.84905 17.3865 5.398 16.5717 4.1312C15.7568 2.8644 14.6371 1.82237 13.315 1.10059C11.993 0.378823 10.511 0.000398184 9.00472 1.23745e-06Z" fill="white"/>
<path d="M9.00473 3.28998C8.55785 3.29258 8.11589 3.38352 7.70428 3.55756C7.29268 3.73159 6.91954 3.9853 6.60634 4.30407C6.29314 4.62285 6.04607 5.0004 5.87932 5.41501C5.71257 5.82963 5.62945 6.27312 5.63473 6.71998C5.63473 7.60845 5.98767 8.46054 6.61592 9.08879C7.24417 9.71703 8.09625 10.07 8.98473 10.07C9.8732 10.07 10.7253 9.71703 11.3535 9.08879C11.9818 8.46054 12.3347 7.60845 12.3347 6.71998C12.3454 5.82429 12.0012 4.96077 11.3773 4.31808C10.7533 3.67539 9.90034 3.30577 9.00473 3.28998ZM9.00473 9.50998C8.63721 9.51018 8.2734 9.43643 7.93496 9.29314C7.59652 9.14985 7.29037 8.93994 7.03473 8.6759C6.77908 8.41185 6.57917 8.09908 6.44689 7.75619C6.3146 7.4133 6.25266 7.0473 6.26473 6.67998C6.26341 6.31932 6.33331 5.96194 6.47042 5.62835C6.60753 5.29477 6.80915 4.99153 7.06371 4.73604C7.31827 4.48055 7.62077 4.27782 7.95386 4.1395C8.28695 4.00118 8.64406 3.92998 9.00473 3.92998C9.73065 3.94831 10.4203 4.25096 10.9253 4.77278C11.4303 5.2946 11.7102 5.99384 11.7047 6.71998C11.7128 7.44688 11.4338 8.14761 10.9282 8.66999C10.4227 9.19237 9.7315 9.49422 9.00473 9.50998Z" fill="white"/>
<path d="M15.2847 15.43C15.3521 15.1991 15.389 14.9604 15.3947 14.72C15.3947 11.84 12.3947 9.51001 8.79473 9.51001C5.19473 9.51001 2.20473 11.84 2.20473 14.72C2.20473 14.78 2.20473 14.85 2.20473 14.91L3.20473 14.52C3.61473 12.2 5.94473 10.52 8.82473 10.52C11.9947 10.52 14.5647 12.68 14.5647 15.33C14.5681 15.5974 14.531 15.8637 14.4547 16.12" fill="white"/>
</svg>
