<svg width="28" height="27" viewBox="0 0 28 27" fill="none" xmlns="http://www.w3.org/2000/svg">
<ellipse cx="13.8889" cy="13.3929" rx="13.8889" ry="13.3929" fill="url(#paint0_linear)"/>
<path d="M17.1378 12.9215C17.0402 11.0142 15.6479 9.86746 13.9705 9.86746H13.9072C11.9599 9.86746 10.8831 11.4196 10.8831 13.1814C10.8831 15.1531 12.1854 16.3989 13.8945 16.3989C15.7949 16.3989 17.0504 14.9832 17.1416 13.3101L17.1378 12.9215ZM13.911 8.15964C15.1989 8.17977 16.4263 8.71805 17.324 9.65639C17.324 9.21753 17.6141 8.88421 18.017 8.88421H18.1184C18.7518 8.88421 18.8785 9.49037 18.8785 9.68213V16.4903C18.8651 16.5811 18.8799 16.674 18.9209 16.7559C18.9619 16.8378 19.027 16.9046 19.1072 16.9471C19.1874 16.9896 19.2787 17.0057 19.3683 16.993C19.4578 16.9803 19.5413 16.9395 19.607 16.8764C20.6826 15.7528 21.9698 11.1004 18.9381 8.40545C16.1141 5.90228 12.321 6.31668 10.3053 7.7285C8.16047 9.23169 6.78841 12.556 8.12499 15.6782C9.57814 19.0848 13.7349 20.1002 16.2053 19.0874C17.457 18.5726 18.0347 20.292 16.7349 20.8531C14.7725 21.7025 9.30828 21.6176 6.75547 17.1209C5.02614 14.0926 5.11862 8.75551 9.69216 5.99108C13.1914 3.87528 17.8004 4.46086 20.5876 7.40675C23.4951 10.4955 23.3254 16.2702 20.4887 18.516C19.2041 19.5365 17.2949 18.5443 17.3075 17.0565L17.2936 16.57C16.8502 17.0228 16.3231 17.382 15.7426 17.6272C15.1621 17.8723 14.5396 17.9985 13.911 17.9986C11.348 17.9986 9.09671 15.7078 9.09671 13.1081C9.09671 10.4788 11.3518 8.16092 13.911 8.16092" fill="#DAE7FB"/>
<defs>
<linearGradient id="paint0_linear" x1="13.8889" y1="0" x2="13.8889" y2="26.7857" gradientUnits="userSpaceOnUse">
<stop stop-color="#3F94F8"/>
<stop offset="1" stop-color="#183AB3"/>
</linearGradient>
</defs>
</svg>
