<svg width="161" height="164" viewBox="0 0 161 164" fill="none" xmlns="http://www.w3.org/2000/svg">
<g filter="url(#filter0_d)">
<path d="M10.5879 107.347L71.9484 141.536C72.7411 141.978 73.6427 142.211 74.5607 142.211C75.479 142.211 76.3806 141.978 77.1733 141.536L150.401 101.185C151.191 100.752 151.847 100.128 152.303 99.3751C152.76 98.6228 153 97.7687 153 96.899C153 96.0295 152.76 95.1755 152.303 94.4228C151.847 93.6702 151.191 93.0461 150.401 92.6129L88.2795 58.8118C87.4951 58.382 86.6063 58.1558 85.7018 58.1558C84.7973 58.1558 83.9086 58.382 83.1242 58.8118L10.6111 98.7749C9.81993 99.2059 9.1618 99.8285 8.70344 100.58C8.24509 101.331 8.00226 102.185 8.00002 103.055C7.99777 103.924 8.23578 104.779 8.68995 105.532C9.14445 106.286 9.79906 106.912 10.5879 107.347Z" fill="#7AC11F"/>
<path d="M65.5217 0.302518C57.481 4.85184 37.5849 16.0893 31.6341 19.3919C31.1266 19.6733 30.7064 20.078 30.4158 20.5645C30.1251 21.051 29.9747 21.6025 29.9792 22.1626V100.132C29.8575 101.723 31.7211 103.197 33.277 102.349L66.7352 84.1684C68.0819 83.4314 68.9415 82.3952 68.9415 80.9157V2.15881C68.9408 1.77747 68.8348 1.40303 68.6338 1.07353C68.4327 0.744004 68.1439 0.47113 67.7964 0.282592C67.4492 0.0940536 67.0557 -0.00340406 66.6565 9.07919e-05C66.2569 0.00358564 65.8653 0.107941 65.5217 0.302518Z" fill="#172D51"/>
<path d="M68.7144 1.25083L58.0901 7.09124V9.26335C58.0901 9.4464 58.04 9.62626 57.9439 9.78482C57.8482 9.94338 57.7104 10.075 57.5444 10.1666L49.4164 14.6605C49.3069 14.7207 49.1832 14.7524 49.057 14.7525C48.9307 14.7526 48.8068 14.7211 48.6972 14.661C48.588 14.601 48.4971 14.5145 48.4338 14.4104C48.3702 14.3062 48.3368 14.188 48.3365 14.0676V12.4772L33.0034 21.0327C32.8582 21.1149 32.7381 21.2314 32.6546 21.3715C32.571 21.5113 32.5274 21.6698 32.5274 21.8307V99.7619C32.5261 99.8735 32.5559 99.9832 32.6134 100.08C32.6709 100.177 32.7544 100.258 32.8553 100.314C32.9562 100.37 33.0705 100.4 33.1874 100.4C33.3043 100.401 33.419 100.372 33.5202 100.316L68.9351 80.7223C68.9913 81.3238 68.8766 81.9284 68.6027 82.4728C68.329 83.017 67.9063 83.4805 67.3792 83.8144C65.5445 84.9226 33.2764 102.355 33.2764 102.355C33.2764 102.355 30.7277 103.463 29.9786 100.549V22.1575C29.9767 21.6456 30.1033 21.1404 30.3477 20.6842C30.5921 20.2283 30.9474 19.8347 31.3839 19.5367C32.8643 18.5116 65.5445 0.281128 65.5445 0.281128C65.8185 0.142039 66.1188 0.0567521 66.4278 0.0303261C66.7371 0.00390012 67.0484 0.0368563 67.3439 0.127232C67.6394 0.217638 67.913 0.363625 68.1485 0.556608C68.3839 0.749591 68.5763 0.985647 68.7144 1.25083Z" fill="#112E7C"/>
<path d="M104.407 96.3417C104.471 96.6532 104.463 96.9748 104.383 97.2829C104.302 97.5913 104.152 97.8788 103.943 98.1259C103.235 98.8519 100.541 101.129 100.285 101.622C100.03 102.116 99.6699 103.462 100.285 103.927C100.9 104.393 102.097 104.448 103.56 103.927C105.586 103.041 107.485 101.909 109.209 100.559C109.859 99.8825 109.209 92.9394 109.209 92.9394C109.209 92.9394 105.429 92.0584 104.158 92.9394L104.407 96.3417Z" fill="#F96156"/>
<path d="M99.9949 102.57C99.9233 102.799 99.9127 103.042 99.9644 103.276C100.016 103.51 100.128 103.729 100.291 103.911C100.906 104.376 102.102 104.431 103.565 103.911C105.592 103.024 107.491 101.892 109.214 100.541C109.439 100.048 109.534 99.5099 109.493 98.9734C107.043 101.206 101.864 104.93 99.9949 102.57Z" fill="#391A3A"/>
<path d="M105.958 98.9847C105.733 98.6625 105.42 98.4056 105.052 98.2423C104.622 98.1025 104.163 98.0571 103.711 98.1095C103.34 98.1095 103.34 98.6635 103.711 98.6635C104.031 98.5969 104.364 98.6178 104.672 98.7235C104.98 98.8293 105.251 99.016 105.453 99.2619C105.697 99.5445 106.185 99.2674 105.958 98.9847Z" fill="#391A3A"/>
<path d="M105.116 99.944C104.817 99.6074 104.43 99.3529 103.995 99.207C103.559 99.0608 103.09 99.0283 102.637 99.1129C102.271 99.1849 102.428 99.7168 102.794 99.6672C103.148 99.6095 103.512 99.6433 103.847 99.765C104.183 99.887 104.479 100.092 104.704 100.36C104.976 100.598 105.389 100.205 105.116 99.944Z" fill="#391A3A"/>
<path d="M113.371 100.593C113.435 100.904 113.426 101.226 113.346 101.534C113.266 101.842 113.116 102.13 112.906 102.377C112.198 103.103 109.504 105.38 109.249 105.874C108.993 106.367 108.633 107.713 109.249 108.179C109.864 108.644 111.06 108.7 112.523 108.179C114.55 107.292 116.449 106.16 118.172 104.809C118.822 104.134 118.172 97.1904 118.172 97.1904C118.172 97.1904 114.393 96.3093 113.121 97.1904L113.371 100.593Z" fill="#F96156"/>
<path d="M108.96 106.814C108.888 107.044 108.878 107.286 108.929 107.521C108.981 107.755 109.093 107.973 109.256 108.155C109.871 108.621 111.067 108.676 112.53 108.155C114.557 107.269 116.456 106.137 118.179 104.786C118.41 104.29 118.509 103.748 118.47 103.207C116.008 105.451 110.829 109.18 108.96 106.814Z" fill="#391A3A"/>
<path d="M114.922 103.236C114.697 102.914 114.384 102.657 114.017 102.494C113.585 102.354 113.127 102.309 112.675 102.361C112.304 102.361 112.304 102.915 112.675 102.915C112.995 102.848 113.328 102.869 113.637 102.975C113.945 103.081 114.215 103.267 114.417 103.514C114.644 103.796 115.149 103.519 114.922 103.236Z" fill="#391A3A"/>
<path d="M114.097 104.194C113.799 103.857 113.412 103.602 112.976 103.456C112.541 103.31 112.072 103.278 111.618 103.362C111.253 103.434 111.409 103.966 111.775 103.916C112.129 103.859 112.493 103.893 112.829 104.015C113.165 104.136 113.46 104.342 113.685 104.609C113.941 104.87 114.353 104.454 114.097 104.194Z" fill="#391A3A"/>
<path d="M105.168 53.304C103.148 57.7151 102.035 62.4556 101.888 67.2677C101.76 74.9034 102.707 95.4225 102.707 95.4225C102.707 95.4225 104.924 97.4562 109.795 96.7413V68.2708C109.795 68.2708 111.502 68.8527 111.502 70.0771C111.502 71.3018 113.058 100.41 113.058 100.41C113.058 100.41 113.929 101.955 120.303 99.5952C120.303 99.5952 121.174 61.4663 116.495 53.9799" fill="#5B434D"/>
<path d="M81.7604 65.7712V109.657L94.9916 116.883L109.935 108.46V64.5688" fill="#112E7C"/>
<path d="M81.7604 65.772L97.1166 57.427L109.935 64.5694L94.9916 72.9978L81.7604 65.772Z" fill="#112E7C"/>
<path d="M94.9906 72.9969V116.883L109.934 108.46V64.5688L94.9906 72.9969Z" fill="#112E7C"/>
<path opacity="0.1" d="M81.7604 65.7712V109.657L94.9916 116.883L109.935 108.46V64.5688" fill="#2E90A0"/>
<path d="M81.7604 65.772L97.1166 57.427L109.935 64.5694L94.9916 72.9978L81.7604 65.772Z" fill="#112E7C"/>
<path opacity="0.47" d="M94.9906 72.9969V116.883L109.934 108.46V64.5688L94.9906 72.9969Z" fill="#2E90A0"/>
<path d="M94.736 65.3779L87.2581 68.7747V112.661L49.8987 93.372" stroke="#1B1464" stroke-miterlimit="10"/>
<path d="M101.848 70.6759L112.995 64.4311L95.2817 54.9224L84.9185 61.1726L101.848 70.6759Z" fill="#6C7F91"/>
<path d="M104.5 55.3213C107.548 56.3299 110.66 56.3854 113.848 56.2079C115.113 54.9378 116.176 53.4963 117 51.9301C119.723 46.5553 120.704 37.523 120.704 37.523C120.704 37.523 116.64 34.5254 113.946 33.805C111.252 33.0845 105.301 34.3592 104.326 35.9163C103.351 37.4733 102.991 44.4774 104.326 54.4347C104.367 54.6122 104.471 55.1496 104.5 55.3213Z" fill="#FFE70D"/>
<path d="M109.638 34.747C108.686 34.9411 108.507 32.4251 108.913 32.1924C109.319 31.9597 113.778 31.9321 114.463 32.2258C115.967 32.8629 114.463 34.9962 114.463 34.9962" fill="#FFE70D"/>
<path d="M115.369 24.2244C114.509 24.0806 114.539 22.7118 112.942 22.0913C111.346 21.4705 109.459 22.3626 108.762 22.8448C108.065 23.3268 107.555 22.3461 106.788 23.0996C106.022 23.8531 106.509 25.0058 106.062 25.416L105.999 25.4602C105.805 25.7704 105.698 26.1223 105.687 26.4829C105.676 26.8437 105.761 27.2011 105.935 27.5215C106.285 27.9694 106.697 28.3701 107.16 28.7128L114.324 32.2816C115.189 31.6997 116.843 26.1861 116.75 25.5267C116.718 25.1891 116.561 24.8737 116.308 24.6355C116.055 24.3973 115.723 24.2517 115.369 24.2244Z" fill="#200904"/>
<path d="M107.507 26.3132C107.182 26.6455 108.256 33.2395 110.352 33.4725C112.448 33.7051 114.927 31.0564 115.148 30.2694C115.368 29.4828 115.24 25.2825 114.387 24.8613C113.534 24.4401 109.475 24.2905 107.507 26.3132Z" fill="#F9B16F"/>
<path d="M108.489 24.4119C108.489 24.4119 108.077 25.9469 110.585 26.235C113.093 26.5232 113.267 27.0606 113.563 27.8972C114.144 29.4767 115.885 31.3105 116.466 26.5729C116.495 26.3457 114.69 23.0986 112.739 22.8438C110.788 22.5887 108.489 24.4119 108.489 24.4119Z" fill="#200904"/>
<path d="M113.789 28.7404C113.789 28.7404 114.578 27.4436 115.188 28.0586C115.798 28.6739 115.356 30.1199 114.532 30.5743" fill="#F1A056"/>
<path d="M94.7704 56.1079C94.7704 56.1079 92.7269 57.6484 92.187 57.9586C91.6471 58.2689 94.5093 59.1555 94.5558 59.4602C94.6021 59.7649 97.3541 57.3933 97.3541 57.3933L94.7704 56.1079Z" fill="#F9B16F"/>
<path d="M101.848 70.6757L97.4881 59.987L80.5587 50.4448L84.9186 61.1728L101.848 70.6757Z" fill="#8BAADC"/>
<path d="M104.327 35.9153C104.327 35.9153 103.224 37.4224 102.713 41.3955C102.202 45.3685 100.733 48.826 99.8854 50.0783C99.0381 51.3306 93.4123 56.351 93.6445 56.8497C93.8767 57.3485 95.3861 58.2351 96.3673 58.5674C99.1104 56.9282 101.564 54.884 103.636 52.5109C106.539 48.9814 106.44 42.7253 106.44 42.7253" fill="#FFE70D"/>
<path d="M106.224 66.5747C106.234 66.1544 106.325 65.7393 106.491 65.35C106.644 65.148 106.842 64.9815 107.072 64.8623C107.351 64.6943 107.619 64.5091 107.873 64.3083L109.847 62.3135L106.869 61.8867C106.212 62.3024 105.534 62.6853 104.836 63.0339C104.703 63.0339 102.804 64.1421 102.897 64.419C102.99 64.6961 104.267 63.7654 104.267 63.7654C103.557 64.0679 102.873 64.4254 102.224 64.8347C101.992 65.0953 101.69 66.4196 101.899 66.6023C102.108 66.7854 102.433 66.6023 102.648 66.5027C102.863 66.4028 102.502 67.0567 102.834 67.1621C103.082 67.2449 103.343 67.2878 103.606 67.2894C103.734 67.3537 103.88 67.3779 104.024 67.3592C104.168 67.3402 104.301 67.2792 104.407 67.1842C104.795 66.7345 105.083 66.2142 105.254 65.6547C105.254 65.6547 105.179 67.2452 105.655 67.1397C105.823 67.0787 106.027 66.8571 106.224 66.5747Z" fill="#F9B16F"/>
<path d="M104.136 64.2305C103.775 64.3828 103.443 64.5925 103.155 64.8509C102.789 65.2927 102.563 65.8255 102.505 66.3859C102.47 66.541 102.731 66.5744 102.76 66.4193C102.805 65.8626 103.046 65.3368 103.445 64.9285C103.736 64.7078 104.053 64.5217 104.392 64.3746C104.3 64.3381 104.214 64.2896 104.136 64.2305Z" fill="#5B434D"/>
<path d="M104.837 64.5129C104.546 64.7125 104.277 64.9412 104.036 65.1944C103.641 65.6766 103.6 66.5522 103.455 67.1282C103.415 67.2833 103.676 67.3168 103.711 67.1616C103.891 66.4467 103.949 65.6377 104.518 65.1113C104.727 64.9173 104.947 64.7291 105.174 64.5571C105.061 64.5485 104.948 64.5335 104.837 64.5129Z" fill="#5B434D"/>
<path d="M120.71 37.523C120.71 37.523 121.871 37.7615 121.72 41.7898C121.569 45.8184 120.524 53.8088 118.608 55.7481C116.692 57.6874 107.903 64.614 107.903 64.614C107.903 64.614 105.18 63.5057 105.395 62.525C105.609 61.5443 114.916 52.7836 114.916 52.7836C114.916 52.7836 116.321 34.9632 120.71 37.523Z" fill="#FFE70D"/>
<path d="M104.918 38.9303L104.268 55.2105C104.268 55.5652 104.848 55.5652 104.848 55.2105L105.499 38.9303C105.516 38.598 104.936 38.6035 104.918 38.9303Z" fill="#C7B623"/>
<path d="M114.956 43.0746L114.062 48.3052C113.76 50.0784 113.69 52.1453 112.773 53.7523C111.856 55.3593 110.451 56.6006 109.255 57.9249L105.301 62.3579C105.057 62.6292 105.47 63.0228 105.713 62.7512L109.853 58.1187C111.014 56.8222 112.407 55.5475 113.272 54.046C114.137 52.5444 114.248 50.6658 114.532 48.9925L115.513 43.2352C115.566 42.8695 115.014 42.7199 114.956 43.0746Z" fill="#C7B623"/>
<path d="M36.8186 32.2644V34.4698L63.6816 19.5585V17.7466L36.8186 32.2644Z" fill="#8CC63F"/>
<path d="M50.9264 30.9724L36.8186 38.597V40.8024L50.9264 32.9672V30.9724Z" fill="#F7931E"/>
<path d="M52.9048 29.9041V31.8714L55.9296 30.1923V28.2695L52.9048 29.9041Z" fill="#00A99D"/>
<path d="M57.9047 27.1992V29.0941L63.6815 25.8914V24.0737L57.9047 27.1992Z" fill="#F15A24"/>
<path d="M49.295 37.3176L36.8186 44.0612V46.2666L49.295 39.34V37.3176Z" fill="#F15A24"/>
<path d="M37.1661 50.1849V52.3904L64.029 37.479V35.6614L37.1661 50.1849Z" fill="#8CC63F"/>
<path d="M45.8634 51.8187V53.8965L52.3542 50.2892V48.3054L45.8634 51.8187Z" fill="#00A99D"/>
<path d="M43.8834 52.8887L37.1661 56.5184V58.7239L43.8834 54.9945V52.8887Z" fill="#F15A24"/>
<path d="M54.3335 47.2361V49.1923L64.0289 43.8063V41.9941L54.3335 47.2361Z" fill="#F7931E"/>
<path d="M59.5994 49.8518L37.1661 61.9817V64.1871L59.5994 51.7304V49.8518Z" fill="#F7931E"/>
<path d="M61.5793 48.7824V50.6331L64.0291 49.2701V47.458L61.5793 48.7824Z" fill="#00A99D"/>
<path d="M37.1661 68.6146V70.8145L64.029 55.9031V54.0913L37.1661 68.6146Z" fill="#00A99D"/>
<path d="M47.088 69.5849V71.6462L64.0291 62.2374V60.4253L47.088 69.5849Z" fill="#F7931E"/>
<path d="M45.1084 70.6533L37.1661 74.9422V77.1476L45.1084 72.7423V70.6533Z" fill="#F15A24"/>
<path d="M53.7821 71.429L37.1661 80.4058V82.6113L53.7821 73.3907V71.429Z" fill="#00A99D"/>
<path d="M55.7614 70.3595V72.2933L64.0287 67.6997V65.8879L55.7614 70.3595Z" fill="#8CC63F"/>
<path d="M72.0872 122.209L76.3661 127.135L75.8027 127.656L71.5241 122.736L72.0872 122.209Z" fill="white"/>
<path d="M61.1489 124.763C61.2633 125.041 61.4666 125.277 61.7293 125.439C61.6281 125.548 61.5546 125.677 61.5144 125.818C61.4743 125.958 61.4682 126.105 61.4971 126.248L61.1489 124.763Z" fill="#A68D0B"/>
<path d="M70.6179 124.758L71.692 125.462L71.1174 127.584L73.6834 126.758L74.7575 127.457L70.4496 128.798L69.7124 128.315L70.6179 124.758Z" fill="white"/>
<path d="M88.124 125.228C88.1327 125.354 88.115 125.48 88.0723 125.598C88.0296 125.717 87.9621 125.827 87.8744 125.921C87.7858 126.018 87.682 126.102 87.5667 126.17L77.1164 132.432C76.7252 132.648 76.2711 132.738 75.822 132.687C75.4986 132.659 75.1844 132.568 74.8989 132.421L61.8883 125.533L61.7255 125.439C61.4628 125.277 61.2594 125.041 61.1451 124.763C61.0606 124.539 61.0625 124.294 61.1509 124.071C61.2392 123.849 61.4082 123.663 61.6269 123.549L71.4967 117.454C71.8899 117.231 72.3485 117.138 72.803 117.188C73.1043 117.214 73.3979 117.295 73.668 117.426L87.259 124.12C87.4925 124.216 87.6955 124.369 87.8474 124.563C87.9994 124.758 88.0947 124.987 88.124 125.228ZM75.7986 127.655L76.3793 127.134L72.1064 122.214L71.5256 122.735L75.8043 127.655H75.7986ZM70.4515 128.797L74.7595 127.456L73.6854 126.752L71.1193 127.589L71.6997 125.467L70.6256 124.763L69.7025 128.315L70.44 128.797H70.4515ZM77.4068 124.973L78.3184 121.421L77.5751 120.939L73.2733 122.28L74.3471 122.978L76.9192 122.147L76.3385 124.275L77.4126 124.979" fill="#FFD600"/>
<path d="M77.5795 120.94L73.2776 122.275L74.3456 122.973L76.9236 122.142L76.3371 124.27L77.4112 124.973L78.3227 121.416L77.5795 120.94Z" fill="white"/>
<path d="M87.8784 125.927C87.9661 125.833 88.0335 125.723 88.0763 125.604C88.1193 125.486 88.1367 125.36 88.1283 125.234L88.4823 126.658C88.375 126.355 88.1617 126.097 87.8784 125.927Z" fill="#A68D0B"/>
<path d="M87.8794 125.927C88.1541 126.101 88.359 126.359 88.4602 126.658C88.4721 126.697 88.4817 126.735 88.4891 126.775C88.5222 126.981 88.4875 127.192 88.3898 127.379C88.2922 127.565 88.1361 127.718 87.9434 127.817L77.4931 134.078C77.1025 134.296 76.6483 134.388 76.1987 134.339C75.8746 134.309 75.5604 134.217 75.2755 134.067L62.265 127.179C62.0706 127.089 61.8994 126.96 61.7633 126.8C61.6267 126.64 61.5285 126.454 61.4751 126.254C61.4462 126.111 61.4523 125.964 61.4925 125.824C61.5326 125.683 61.6062 125.554 61.7074 125.445L61.8699 125.539L74.927 132.421C75.2126 132.569 75.5267 132.66 75.8502 132.687C76.2992 132.738 76.7537 132.649 77.1449 132.432L87.5952 126.171C87.7015 126.103 87.7972 126.021 87.8794 125.927Z" fill="#A68D0B"/>
<path d="M110.644 28.4062L111.737 28.7018" stroke="black"/>
<path d="M109.159 28.3647L108.251 28.6551" stroke="black"/>
<path d="M109.182 31.2366L109.543 31.38C109.809 31.4858 110.104 31.5033 110.381 31.4297L111.109 31.2366" stroke="black"/>
<path d="M109.204 29.011L108.609 29.0851" stroke="black"/>
<path d="M111.27 29.124L110.789 29.0898" stroke="black"/>
</g>
<defs>
<filter id="filter0_d" x="0" y="0" width="161" height="163.211" filterUnits="userSpaceOnUse" color-interpolation-filters="sRGB">
<feFlood flood-opacity="0" result="BackgroundImageFix"/>
<feColorMatrix in="SourceAlpha" type="matrix" values="0 0 0 0 0 0 0 0 0 0 0 0 0 0 0 0 0 0 127 0"/>
<feOffset dy="13"/>
<feGaussianBlur stdDeviation="4"/>
<feColorMatrix type="matrix" values="0 0 0 0 0 0 0 0 0 0 0 0 0 0 0 0 0 0 0.25 0"/>
<feBlend mode="normal" in2="BackgroundImageFix" result="effect1_dropShadow"/>
<feBlend mode="normal" in="SourceGraphic" in2="effect1_dropShadow" result="shape"/>
</filter>
</defs>
</svg>
