<svg width="1404" height="688" viewBox="0 0 1404 688" fill="none" xmlns="http://www.w3.org/2000/svg">
<rect width="134.456" height="117.151" transform="matrix(0.885951 0.463779 -0.449615 0.893222 756.673 330)" fill="url(#paint0_linear)" fill-opacity="0.08"/>
<rect width="56.1834" height="50.2176" transform="matrix(0.801608 0.59785 -0.582778 0.812632 444.266 613)" fill="url(#paint1_linear)" fill-opacity="0.13"/>
<rect width="53.7588" height="55.6482" transform="matrix(-0.349789 0.936828 -0.932191 -0.361968 1403.68 264.143)" fill="url(#paint2_linear)" fill-opacity="0.1"/>
<rect width="36.1346" height="33.8654" transform="matrix(-0.824495 0.565869 -0.550808 -0.834632 1084.45 149.265)" fill="url(#paint3_linear)" fill-opacity="0.1"/>
<rect width="52.3355" height="61.3579" transform="matrix(0.578616 0.8156 -0.804692 0.593693 49.3743 0)" fill="url(#paint4_linear)" fill-opacity="0.06"/>
<defs>
<linearGradient id="paint0_linear" x1="67.2281" y1="0" x2="109.842" y2="118.709" gradientUnits="userSpaceOnUse">
<stop stop-color="#FEE5A5"/>
<stop offset="0.9375" stop-color="#FFD600"/>
</linearGradient>
<linearGradient id="paint1_linear" x1="28.0917" y1="0" x2="46.7194" y2="50.5829" gradientUnits="userSpaceOnUse">
<stop stop-color="#FEE5A5"/>
<stop offset="0.9375" stop-color="#FFD600"/>
</linearGradient>
<linearGradient id="paint2_linear" x1="26.8794" y1="0" x2="49.8494" y2="53.8582" gradientUnits="userSpaceOnUse">
<stop stop-color="#FEE5A5"/>
<stop offset="0.9375" stop-color="#FFD600"/>
</linearGradient>
<linearGradient id="paint3_linear" x1="18.0673" y1="0" x2="31.0845" y2="33.7114" gradientUnits="userSpaceOnUse">
<stop stop-color="#FEE5A5"/>
<stop offset="0.9375" stop-color="#FFD600"/>
</linearGradient>
<linearGradient id="paint4_linear" x1="26.1677" y1="0" x2="53.6564" y2="56.9078" gradientUnits="userSpaceOnUse">
<stop stop-color="#FEE5A5"/>
<stop offset="0.9375" stop-color="#FFD600"/>
</linearGradient>
</defs>
</svg>
