<svg width="255" height="290" viewBox="0 0 255 290" fill="none" xmlns="http://www.w3.org/2000/svg">
<path d="M221.962 220.914C222.631 221.318 223.185 221.887 223.573 222.566C223.961 223.245 224.169 224.011 224.177 224.793C224.185 225.575 223.994 226.346 223.621 227.033C223.248 227.72 222.706 228.3 222.046 228.719L116.65 287.872C114.532 289.058 112.14 289.672 109.712 289.651C107.284 289.631 104.903 288.978 102.805 287.756L3.37638 230.085C2.61305 229.642 1.97936 229.007 1.53882 228.243C1.09829 227.479 0.866394 226.612 0.866394 225.73C0.866394 224.848 1.09829 223.982 1.53882 223.217C1.97936 222.453 2.61305 221.818 3.37638 221.376L109.15 160.448C110.245 159.819 111.485 159.489 112.748 159.489C114.01 159.489 115.251 159.819 116.346 160.448L221.962 220.914Z" fill="#E8C300"/>
<path style="mix-blend-mode:multiply" d="M99.5483 221.04C84.0746 230.063 73.013 236.125 49.209 249.718C67.2248 260.664 81.1858 270.728 83.2132 271.925L136.683 240.484C132.523 238.383 118.783 230.568 99.5483 221.04Z" fill="url(#paint0_linear)"/>
<path d="M246.994 202.372V85.0121C247.007 84.164 246.794 83.3279 246.376 82.5895C245.959 81.851 245.353 81.2369 244.62 80.8101C234.872 75.148 124.424 12.5916 102.983 0.448034C102.547 0.200932 102.04 0.108396 101.544 0.185413C101.517 0.174865 101.487 0.174865 101.46 0.185413C99.7484 0.910864 98.0821 1.73874 96.4701 2.66456C97.387 3.31172 98.5035 3.61318 99.6216 3.51545V12.8963L99.8947 124.059C99.8947 126.286 192.337 177.234 194.26 178.348L240.859 204.872C239.347 206.028 238.517 207.866 239.441 208.024C240.681 208.255 243.37 206.721 244.841 205.807C245.206 205.65 245.544 205.434 245.839 205.167C246.227 204.816 246.532 204.383 246.732 203.9C246.932 203.416 247.021 202.895 246.994 202.372Z" fill="#021E6A"/>
<path d="M246.994 202.372V85.0121C247.007 84.164 246.794 83.3279 246.376 82.5895C245.959 81.851 245.353 81.2369 244.62 80.8101C234.872 75.148 124.424 12.5916 102.983 0.448034C102.547 0.200932 102.04 0.108396 101.544 0.185413C101.517 0.174865 101.487 0.174865 101.46 0.185413C99.7484 0.910864 98.0821 1.73874 96.4701 2.66456C97.387 3.31172 98.5035 3.61318 99.6216 3.51545V12.8963L99.8947 124.059C99.8947 126.286 192.337 177.234 194.26 178.348L240.859 204.872C239.347 206.028 238.517 207.866 239.441 208.024C240.681 208.255 243.37 206.721 244.841 205.807C245.206 205.65 245.544 205.434 245.839 205.167C246.227 204.816 246.532 204.383 246.732 203.9C246.932 203.416 247.021 202.895 246.994 202.372Z" fill="#3D53A3"/>
<path d="M95.5873 4.33475C95.6142 3.94977 95.7379 3.57783 95.9471 3.25347C96.1562 2.92912 96.4439 2.66288 96.7835 2.47947C97.123 2.29607 97.5034 2.20145 97.8893 2.20441C98.2752 2.20737 98.6542 2.30781 98.9909 2.4964C120.442 14.6295 230.858 77.1964 240.638 82.8586C241.371 83.2853 241.977 83.8995 242.395 84.6379C242.812 85.3763 243.025 86.2125 243.012 87.0605V204.358C243.191 206.753 240.481 208.969 238.275 207.709L190.226 180.396C188.293 179.293 95.8604 128.334 95.8604 126.107L95.5873 14.9447V4.33475Z" fill="#021E6A"/>
<path d="M110.095 78.4996V122.305L164.836 153.903V110.056L110.095 78.4996Z" fill="white"/>
<path d="M167.714 112.073V155.878L222.444 187.477V143.64L167.714 112.073Z" fill="white"/>
<path d="M110.095 30.4078V74.213L164.836 105.812V61.9644L110.095 30.4078Z" fill="white"/>
<path d="M167.714 63.0989V106.904L222.444 138.503V94.666L167.714 63.0989Z" fill="white"/>
<path d="M168.736 56.4438C170.022 56.108 170.604 54.0748 170.036 51.9024C169.469 49.7301 167.967 48.2413 166.681 48.5771C165.396 48.9128 164.814 50.9461 165.381 53.1184C165.949 55.2908 167.451 56.7796 168.736 56.4438Z" fill="#34323D"/>
<path d="M140.598 74.3264C143.899 73.1515 145.177 68.2688 143.451 63.4206C141.726 58.5724 137.651 55.5946 134.35 56.7695C131.048 57.9444 129.771 62.8271 131.496 67.6753C133.221 72.5235 137.296 75.5013 140.598 74.3264Z" fill="#8A9FD7"/>
<path d="M122.112 81.1463C122.112 81.1463 125.694 68.9397 134.823 71.5974C143.952 74.2551 149.708 81.8291 149.708 97.2818" fill="#8A9FD7"/>
<path d="M197.464 106.945C200.766 105.77 202.043 100.888 200.318 96.0393C198.592 91.1911 194.517 88.2133 191.216 89.3883C187.914 90.5632 186.637 95.4459 188.362 100.294C190.088 105.142 194.163 108.12 197.464 106.945Z" fill="#8A9FD7"/>
<path d="M178.996 113.754C178.996 113.754 182.578 101.547 191.707 104.205C200.836 106.863 206.592 114.426 206.592 129.9" fill="#8A9FD7"/>
<path d="M138.516 120.962C141.817 119.787 143.095 114.905 141.369 110.056C139.644 105.208 135.569 102.23 132.268 103.405C128.966 104.58 127.689 109.463 129.414 114.311C131.139 119.159 135.214 122.137 138.516 120.962Z" fill="#8A9FD7"/>
<path d="M120.043 127.778C120.043 127.778 123.625 115.571 132.754 118.229C141.883 120.886 147.639 128.46 147.639 143.913" fill="#8A9FD7"/>
<path d="M193.661 153.342C196.962 152.167 198.24 147.284 196.514 142.436C194.789 137.588 190.714 134.61 187.412 135.785C184.111 136.96 182.833 141.842 184.559 146.691C186.284 151.539 190.359 154.517 193.661 153.342Z" fill="#8A9FD7"/>
<path d="M175.183 160.164C175.183 160.164 178.765 147.957 187.894 150.615C197.023 153.273 202.779 160.847 202.779 176.299" fill="#8A9FD7"/>
<path d="M112.301 185.491C107.774 182.34 102.448 180.596 96.691 181.867C90.5562 183.212 85.2512 187.12 79.0009 188.012C78.0134 188.159 74.0741 187.907 73.4648 188.475C56.0793 204.925 104.675 203.181 104.675 203.181C109.391 199.316 113.835 195.513 118.51 191.626C117.102 188.433 114.728 187.193 112.301 185.491Z" fill="#F8997C"/>
<path d="M89.4209 209.348L87.6981 258.984C87.6351 260.864 90.5555 260.864 90.6185 258.984L92.3413 209.348C92.4148 207.457 89.4945 207.468 89.4209 209.348Z" fill="#F8997C"/>
<path d="M125.862 235.904C117.01 227.241 108.554 218.203 100.493 208.791C99.2638 207.362 97.2049 209.432 98.3919 210.892C106.446 220.297 114.902 229.335 123.761 238.005C125.137 239.287 127.217 237.217 125.862 235.904Z" fill="#F8997C"/>
<path d="M79.2839 204.767C72.4137 217.737 65.9427 230.903 59.8709 244.266C59.0935 245.967 61.6147 247.417 62.3921 245.747C68.4639 232.385 74.9349 219.218 81.805 206.249C82.74 204.568 80.1663 203.087 79.2839 204.767Z" fill="#F8997C"/>
<path d="M122.91 173.757C122.91 173.757 129.213 175.049 130.653 176.467C132.092 177.886 134.392 183.821 133.751 185.617C133.111 187.414 131.304 184.567 130.526 183.432C129.608 182.226 128.619 181.076 127.564 179.987C125.487 180.306 123.362 180.026 121.44 179.178" fill="#FCBF81"/>
<path d="M125.022 227.51C125.936 226.575 126.524 225.546 126.209 224.527C125.652 222.699 123.173 221.964 121.482 222.058C119.791 222.153 118.026 223.014 116.314 223.529C114.518 224.173 112.602 224.41 110.704 224.222C110.397 224.181 110.116 224.028 109.916 223.792C109.389 223.666 108.904 223.407 108.506 223.039C108.109 222.671 107.813 222.206 107.647 221.691L102.027 219.674C102.027 219.674 100.598 231.565 100.598 232.406C101.019 238.814 110.589 235.158 110.589 235.158C110.589 235.158 110.925 232.259 111.019 231.87C111.114 231.481 114.78 232.616 116.272 232.385C116.972 232.19 117.636 231.881 118.236 231.471C119.371 230.851 120.474 230.179 121.577 229.506C122.68 228.834 123.877 228.193 125.022 227.51Z" fill="#E55600"/>
<path d="M104.055 183.664C101.954 183.874 99.8529 184.147 97.752 184.441C98.6274 197.929 99.5973 211.407 100.662 224.874C106.124 227.112 108.341 226.072 111.734 222.605C112.375 209.747 113.509 196.28 113.467 183.296C110.316 183.432 107.185 183.569 104.055 183.664Z" fill="#34323D"/>
<path d="M81.3217 179.966C81.3217 179.966 80.4183 194.725 87.8347 198.024C95.2512 201.322 110.473 199.673 117.952 195.282C121.823 192.925 125.885 190.897 130.096 189.221C130.096 189.221 132.018 182.76 127.354 179.966C122.69 177.171 112.374 173.726 103.193 179.966" fill="#34323D"/>
<path d="M113.866 139.427C114.098 138.872 114.372 138.335 114.685 137.82C114.694 137.853 114.712 137.882 114.738 137.904C114.746 137.946 114.767 137.985 114.798 138.014C114.829 138.044 114.868 138.064 114.91 138.071C114.952 138.078 114.996 138.071 115.034 138.053C115.073 138.034 115.105 138.004 115.126 137.967L115.725 137.064C115.705 137.182 115.705 137.303 115.725 137.421C115.773 137.642 115.902 137.837 116.087 137.967C116.272 138.097 116.499 138.154 116.723 138.125C116.855 138.115 116.982 138.077 117.097 138.012C117.212 137.948 117.311 137.859 117.388 137.751C117.464 137.644 117.515 137.521 117.539 137.391C117.562 137.261 117.556 137.128 117.521 137.001L117.795 136.686C117.781 136.776 117.781 136.868 117.795 136.959C117.836 137.085 117.909 137.199 118.006 137.29C118.103 137.381 118.222 137.445 118.351 137.478C118.48 137.51 118.615 137.51 118.744 137.476C118.872 137.442 118.99 137.376 119.087 137.284C119.192 137.2 119.286 137.095 119.381 137.001C119.464 137.037 119.553 137.055 119.643 137.055C119.734 137.055 119.823 137.037 119.906 137.001C120.677 136.738 121.431 136.43 122.165 136.076C122.113 136.054 122.068 136.02 122.033 135.977C121.997 135.934 121.973 135.883 121.962 135.828C121.95 135.773 121.952 135.717 121.968 135.663C121.983 135.609 122.011 135.56 122.049 135.52C122.915 134.819 123.831 134.184 124.791 133.618C124.825 133.59 124.864 133.568 124.906 133.555L124.959 133.461C125.184 132.732 125.131 131.947 124.812 131.255C125.043 130.973 125.208 130.642 125.294 130.287C125.379 129.932 125.383 129.563 125.306 129.206C125.228 129.201 125.155 129.172 125.095 129.122C124.959 129.005 124.842 128.867 124.749 128.712C124.58 128.502 124.448 128.264 124.36 128.009C124.339 127.945 124.338 127.875 124.359 127.811C124.38 127.747 124.421 127.691 124.476 127.651C124.118 127.179 123.698 126.727 123.331 126.307C124.231 124.773 124.658 123.008 124.56 121.233C124.551 121.067 124.49 120.908 124.385 120.78C124.28 120.651 124.137 120.559 123.976 120.518C123.815 120.477 123.645 120.489 123.491 120.551C123.337 120.614 123.207 120.724 123.121 120.865C122.767 121.423 122.448 122.002 122.165 122.599C122.072 122.659 121.996 122.742 121.944 122.84C120.425 125.958 118.739 128.992 116.891 131.927C116.576 132.421 112.689 137.715 113.172 137.841C113.141 138.083 109.989 145.342 113.866 139.427ZM116.135 137.19C116.135 137.19 116.135 137.19 116.135 137.137C116.155 137.16 116.179 137.178 116.206 137.19C116.233 137.202 116.263 137.208 116.292 137.208C116.322 137.208 116.352 137.202 116.379 137.19C116.406 137.178 116.43 137.16 116.45 137.137C116.544 137.205 116.653 137.252 116.767 137.274C116.881 137.295 116.999 137.292 117.112 137.263C117.103 137.403 117.04 137.533 116.936 137.626C116.831 137.718 116.694 137.765 116.555 137.757C116.416 137.749 116.285 137.685 116.193 137.581C116.1 137.477 116.053 137.34 116.061 137.2L116.135 137.19Z" fill="#FCBF81"/>
<path d="M114.254 137.736C115.097 137.091 115.81 136.293 116.355 135.383C116.458 135.192 116.598 135.024 116.768 134.888C116.937 134.753 117.132 134.653 117.34 134.594C117.549 134.535 117.768 134.519 117.983 134.546C118.198 134.573 118.405 134.644 118.593 134.753C118.653 134.328 118.685 133.9 118.687 133.471C118.687 131.286 122.122 131.255 122.08 133.471C122.158 135.186 121.699 136.882 120.767 138.324C119.739 139.625 118.487 140.731 117.07 141.591C116.82 141.732 116.539 141.808 116.252 141.814C115.966 141.82 115.682 141.755 115.427 141.625C115.171 141.495 114.952 141.304 114.788 141.069C114.623 140.835 114.52 140.563 114.485 140.278L114.338 140.163C114.173 140.009 114.039 139.825 113.946 139.619C113.852 139.414 113.8 139.192 113.792 138.967C113.784 138.741 113.821 138.517 113.9 138.305C113.98 138.094 114.1 137.901 114.254 137.736Z" fill="#FCBF81"/>
<path d="M95.4724 145.888C95.4724 145.888 105.378 146.361 107.963 143.987C110.547 141.613 114.266 134.144 114.266 134.144C114.266 134.144 121.094 138.535 121.43 141.056C121.766 143.577 114.297 155.763 110.978 156.614" fill="#BA3E00"/>
<path d="M142.156 236.755C143.07 235.82 143.658 234.791 143.343 233.772C142.786 231.944 140.307 231.208 138.616 231.303C136.925 231.398 135.16 232.259 133.447 232.774C131.652 233.418 129.736 233.655 127.838 233.467C127.531 233.426 127.25 233.272 127.05 233.036C126.523 232.911 126.037 232.651 125.64 232.283C125.243 231.915 124.947 231.451 124.781 230.935L119.15 228.929C119.15 228.929 117.711 240.81 117.764 241.64C118.184 248.048 127.754 244.392 127.754 244.392C127.754 244.392 128.09 241.493 128.184 241.104C128.279 240.715 131.945 241.85 133.437 241.619C134.137 241.424 134.801 241.115 135.401 240.705C136.536 240.085 137.639 239.413 138.742 238.74C139.845 238.068 141.021 237.438 142.156 236.755Z" fill="#E55600"/>
<path d="M120.558 180.323C118.625 179.409 116.598 179.504 114.255 179.514C114.581 184.262 114.402 185.975 114.696 190.723L114.78 191.984C115.684 206.039 116.713 220.084 117.806 234.119C123.268 236.356 125.485 235.316 128.878 231.849C129.634 216.891 131.042 201.091 130.496 186.206C127.313 183.086 124.508 182.204 120.558 180.323Z" fill="#34323D"/>
<path d="M81.185 176.909C81.185 177.276 81.2585 178.495 81.311 179.966C84.3784 184.01 88.1392 186.384 94.0324 186.206C98.8016 186.069 102.783 183.979 106.523 181.405C106.06 172.759 104.663 158 102.478 147.705C102.289 146.833 100.031 146.256 99.3268 145.888C97.7721 145.037 98.686 143.577 97.1628 142.663C94.9544 141.379 92.6546 140.259 90.2822 139.312H90.2191C86.4164 139.259 79.8719 142.18 79.4832 147.264C78.8844 155.09 79.7458 159.796 80.3551 167.602C80.6387 170.753 80.9224 173.852 81.185 176.909Z" fill="#E55600"/>
<path d="M94.4108 124.51C94.915 124.637 99.1274 134.343 97.4782 140.268C95.8289 146.192 85.8178 140.1 83.2966 135.614C80.7755 131.128 84.9459 122.052 94.4108 124.51Z" fill="#FCBF81"/>
<path d="M94.2958 125.866C94.2958 125.866 94.2958 129.069 91.5015 130.067C88.7072 131.065 86.3751 131.801 86.5222 133.093C86.6693 134.385 91.5855 132.914 91.6065 135.877C91.6095 137.875 91.3409 139.865 90.8082 141.791C90.5035 143.241 82.0891 138.786 79.3159 131.191C76.5426 123.596 83.5178 121.58 83.8224 121.527C84.1271 121.474 84.7889 119.426 88.1925 118.67C91.596 117.913 92.552 119.247 92.552 119.247C93.3249 118.781 94.2293 118.581 95.1266 118.678C96.024 118.775 96.865 119.163 97.5208 119.783C100.672 122.273 99.8633 126.821 96.3127 128.67L94.2958 125.866Z" fill="#34323D"/>
<path d="M96.018 155.952C96.018 155.952 106.428 174.965 112.185 176.604C116.315 177.683 120.534 178.386 124.791 178.705C124.791 178.705 125.505 173.453 124.791 171.163C124.791 171.163 115.578 167.013 114.675 164.523C113.771 162.034 106.008 144.564 97.1945 142.715" fill="#E55600"/>
<path d="M105.598 170.732C104.958 169.913 97.7407 161.74 97.7407 161.74L106.418 179.556L105.598 170.732Z" fill="#34323D"/>
<path d="M117.847 191.279C115.143 195.056 111.311 197.877 106.901 199.337C100.714 201.217 91.7112 200.334 88.4652 193.863C82.551 182.088 88.108 167.36 81.8577 155.909C81.1369 154.462 80.1187 153.184 78.8696 152.157C77.6205 151.131 76.1687 150.38 74.6093 149.953C70.5544 149.071 67.7812 152.107 66.3105 155.689C63.6738 162.107 63.7683 170.112 63.9049 176.94C63.9104 182.466 64.3106 187.985 65.1024 193.454C65.1024 193.454 68.8842 216.396 98.4028 210.262C103.512 209.334 108.419 207.517 112.899 204.894C115.202 203.555 117.212 201.769 118.814 199.641C120.558 197.046 119.402 193.927 117.847 191.279Z" fill="#021E6A"/>
<path d="M19.7851 199.589C15.6909 204.836 13.6918 211.418 14.1755 218.056C14.9214 228.834 20.9932 231.964 20.9932 231.964L28.2205 232.364C28.2205 232.364 36.8135 229.559 35.6895 215.556C34.639 202.393 30.353 199.305 30.353 199.305" fill="#021E6A"/>
<path d="M25.1107 201.469C28.0463 201.469 30.4261 200.627 30.4261 199.589C30.4261 198.55 28.0463 197.708 25.1107 197.708C22.175 197.708 19.7952 198.55 19.7952 199.589C19.7952 200.627 22.175 201.469 25.1107 201.469Z" fill="#003B94"/>
<path d="M25.1107 232.7C28.0463 232.7 30.4261 231.858 30.4261 230.82C30.4261 229.781 28.0463 228.94 25.1107 228.94C22.175 228.94 19.7952 229.781 19.7952 230.82C19.7952 231.858 22.175 232.7 25.1107 232.7Z" fill="#021E6A"/>
<path d="M22.9253 200.156L16.4859 163.221C16.3493 162.412 15.1202 162.759 15.2568 163.557L21.6963 200.492C21.8118 201.301 23.0619 200.965 22.9253 200.156Z" fill="#C3EA75"/>
<path d="M24.0916 200.282C24.2858 200.244 24.4856 200.244 24.6798 200.282C24.935 200.347 25.1652 200.486 25.3416 200.681C25.8529 190.365 25.9439 180.043 25.6148 169.713C25.6148 168.893 24.3227 168.893 24.3437 169.713C24.6728 179.91 24.5888 190.099 24.0916 200.282Z" fill="#C3EA75"/>
<path d="M38.5677 164.44C33.7696 176.029 29.6174 187.876 26.13 199.925C26.1049 200.081 26.1383 200.241 26.2239 200.374C26.3094 200.507 26.4411 200.603 26.5936 200.645C26.746 200.687 26.9085 200.671 27.0498 200.6C27.1911 200.529 27.3012 200.408 27.359 200.261C30.8464 188.212 34.9987 176.366 39.7968 164.776C40.1014 164.03 38.8723 163.694 38.5677 164.44Z" fill="#C3EA75"/>
<path d="M17.8626 178.506C17.8626 178.506 17.1693 178.422 14.1334 175.228C11.0975 172.035 14.9317 169.629 13.1774 166.036C11.4231 162.444 13.9023 157.716 14.459 154.124C14.8006 156.643 15.7133 159.05 17.1273 161.162C19.4173 164.44 20.6989 167.402 20.4573 171.562C20.2877 174.187 19.8369 176.786 19.1127 179.314" fill="#C3EA75"/>
<path d="M24.375 184.158C24.375 184.158 23.7237 183.905 21.5492 180.061C19.3747 176.216 23.6501 174.808 22.8518 170.911C22.0534 167.014 25.5725 163.022 26.9907 159.66C26.7108 162.188 27.0127 164.746 27.8731 167.14C29.3018 170.879 29.8165 174.052 28.5769 178.033C27.7864 180.537 26.7299 182.95 25.4255 185.229" fill="#C3EA75"/>
<path d="M33.4518 177.455C33.4518 177.455 32.8635 177.077 31.5294 172.875C30.1953 168.673 34.6808 168.19 34.6808 164.177C34.6808 160.164 38.9563 157.013 40.9838 154.019C40.1909 156.435 39.9609 159.001 40.3114 161.519C40.9417 165.469 40.8052 168.684 38.7672 172.329C37.4665 174.616 35.924 176.758 34.1661 178.716" fill="#C3EA75"/>
<path d="M254.778 62.1646V94.4671C254.774 94.9578 254.643 95.4391 254.397 95.8637C254.151 96.2883 253.799 96.6414 253.375 96.8884C252.951 97.1354 252.469 97.2677 251.979 97.2724C251.488 97.277 251.005 97.1537 250.576 96.9147L217.36 77.7643C216.929 77.517 216.571 77.1605 216.322 76.7308C216.073 76.3011 215.942 75.8133 215.942 75.3167V42.9933C215.945 42.5025 216.076 42.0212 216.322 41.5966C216.569 41.1721 216.921 40.8189 217.345 40.5719C217.769 40.3249 218.25 40.1926 218.741 40.188C219.231 40.1834 219.715 40.3066 220.143 40.5456L253.318 59.696C253.759 59.9397 254.128 60.2972 254.384 60.7313C254.641 61.1654 254.777 61.6603 254.778 62.1646Z" fill="#A6B4F5"/>
<path d="M215.942 69.4126V84.256L225.995 78.4993L215.942 69.4126Z" fill="#A6B4F5"/>
<path d="M102.352 64.6545V96.9464C102.349 97.4372 102.218 97.9185 101.972 98.343C101.725 98.7676 101.373 99.1208 100.949 99.3678C100.525 99.6148 100.044 99.7471 99.5532 99.7517C99.0625 99.7563 98.5791 99.6331 98.1505 99.3941L64.9446 80.2542C64.514 80.0068 64.1562 79.6503 63.9072 79.2206C63.6583 78.7909 63.5269 78.3032 63.5265 77.8066V45.5042C63.53 45.0135 63.6613 44.5321 63.9074 44.1076C64.1535 43.683 64.5059 43.3298 64.9299 43.0828C65.3539 42.8358 65.835 42.7035 66.3257 42.6989C66.8164 42.6943 67.2998 42.8176 67.7284 43.0566L100.903 62.2069C101.339 62.4503 101.703 62.805 101.958 63.235C102.213 63.665 102.349 64.1548 102.352 64.6545Z" fill="#A6B4F5"/>
<path d="M94.4633 97.2928L108.687 105.129L101.575 88.5737" fill="#A6B4F5"/>
<path d="M222.58 58.3717L247.172 72.3011C247.528 72.4494 247.925 72.4624 248.289 72.3378C248.653 72.2132 248.959 71.9595 249.15 71.6247C249.34 71.2899 249.4 70.8971 249.321 70.5205C249.241 70.1438 249.026 69.8094 248.717 69.5804L224.177 55.651C223.818 55.4584 223.397 55.4128 223.004 55.5239C222.612 55.6349 222.278 55.8939 222.072 56.2464C221.867 56.5989 221.806 57.0174 221.903 57.4138C221.999 57.8102 222.246 58.1536 222.591 58.3717H222.58Z" fill="#F2F2F2"/>
<path d="M221.961 66.6398L246.553 80.5587C246.913 80.7513 247.333 80.7969 247.726 80.6858C248.118 80.5748 248.453 80.3157 248.658 79.9632C248.864 79.6107 248.924 79.1923 248.828 78.7959C248.731 78.3995 248.484 78.0561 248.139 77.838L223.505 63.919C223.146 63.7264 222.725 63.6809 222.333 63.7919C221.94 63.903 221.606 64.162 221.4 64.5145C221.195 64.867 221.134 65.2855 221.231 65.6819C221.327 66.0783 221.574 66.4217 221.919 66.6398H221.961Z" fill="#F2F2F2"/>
<path d="M69 59.5061L95.9765 74.7697C96.3362 74.9623 96.7566 75.0078 97.1493 74.8968C97.5419 74.7857 97.8761 74.5267 98.0816 74.1742C98.2871 73.8217 98.3479 73.4032 98.2511 73.0068C98.1543 72.6104 97.9076 72.267 97.5628 72.0489L70.5863 56.7854C70.2266 56.5928 69.8062 56.5472 69.4135 56.6583C69.0209 56.7693 68.6867 57.0284 68.4812 57.3808C68.2757 57.7333 68.2149 58.1518 68.3117 58.5482C68.4085 58.9446 68.6552 59.288 69 59.5061Z" fill="#F2F2F2"/>
<path d="M68.3168 68.5619L95.2932 83.8359C95.6529 84.0285 96.0734 84.0741 96.466 83.963C96.8586 83.852 97.1928 83.5929 97.3983 83.2404C97.6039 82.8879 97.6646 82.4695 97.5678 82.0731C97.4711 81.6767 97.2243 81.3333 96.8795 81.1152L69.903 65.8411C69.5433 65.6485 69.1229 65.6029 68.7303 65.714C68.3376 65.825 68.0034 66.0841 67.7979 66.4366C67.5924 66.7891 67.5316 67.2075 67.6284 67.6039C67.7252 68.0003 67.9719 68.3437 68.3168 68.5619Z" fill="#F2F2F2"/>
<defs>
<linearGradient id="paint0_linear" x1="109.517" y1="235.221" x2="69.893" y2="258.889" gradientUnits="userSpaceOnUse">
<stop stop-color="#808080"/>
<stop offset="1" stop-color="white"/>
</linearGradient>
</defs>
</svg>
