<svg width="60" height="60" viewBox="0 0 60 60" fill="none" xmlns="http://www.w3.org/2000/svg">
<path d="M29.9846 60H30.0154C37.9676 59.9994 45.5939 56.8401 51.217 51.217C56.8401 45.5939 59.9994 37.9676 60 30.0154V29.9988C60 22.0426 56.8394 14.4123 51.2136 8.78645C45.5877 3.16058 37.9574 9.31958e-08 30.0012 9.31958e-08C26.0615 -0.000310437 22.1603 0.775403 18.5204 2.28285C14.8805 3.79029 11.5732 5.99994 8.78729 8.78561C6.00139 11.5713 3.79148 14.8784 2.28375 18.5182C0.776021 22.158 -1.22381e-08 26.0591 0 29.9988L0 30.0154C0.000627024 37.9676 3.15991 45.5939 8.78299 51.217C14.4061 56.8401 22.0324 59.9994 29.9846 60Z" fill="#881F12"/>
<path d="M30.8075 13.3267C21.399 13.3267 16.6558 20.0727 16.6558 25.6979C16.6558 29.1028 17.9468 32.1318 20.7109 33.2644C20.8069 33.3149 20.9136 33.3419 21.0221 33.3431C21.1306 33.3442 21.2378 33.3195 21.3349 33.2709C21.432 33.2224 21.5161 33.1515 21.5802 33.064C21.6444 32.9765 21.6869 32.875 21.704 32.7678C21.7939 32.4203 22.0114 31.5454 22.1084 31.1789C22.2408 30.6823 22.1888 30.5097 21.8223 30.077C21.0254 29.1312 20.5147 27.9182 20.5147 26.1921C20.5147 21.1887 24.2601 16.7103 30.2636 16.7103C35.5815 16.7103 38.504 19.9592 38.504 24.2981C38.504 30.0061 35.9764 34.825 32.2262 34.825C30.1549 34.825 28.6037 33.1131 29.1003 31.011C29.6962 28.5022 30.8477 25.7948 30.8477 23.986C30.8477 22.3639 29.9775 21.0114 28.1781 21.0114C26.05 21.0114 24.3594 23.2033 24.3594 26.1377C24.3461 27.2149 24.5613 28.2827 24.9907 29.2707C24.9907 29.2707 22.8248 38.4522 22.4441 40.0601C21.6875 43.264 22.3306 47.1891 22.385 47.5864C22.3932 47.6378 22.4165 47.6857 22.452 47.7238C22.4875 47.762 22.5335 47.7887 22.5842 47.8006C22.6349 47.8126 22.688 47.8091 22.7368 47.7907C22.7855 47.7724 22.8277 47.7399 22.8579 47.6975C23.0518 47.4445 25.5748 44.3304 26.4331 41.2187C26.6696 40.3367 27.8258 35.7803 27.8258 35.7803C28.5139 37.0926 30.5237 38.2488 32.6613 38.2488C39.0266 38.2488 43.3466 32.4463 43.3466 24.6788C43.3442 18.7982 38.3693 13.3267 30.8075 13.3267Z" fill="white"/>
</svg>
