<svg width="35" height="49" viewBox="0 0 35 49" fill="none" xmlns="http://www.w3.org/2000/svg">
<path d="M16.598 23.898L13.1154 19.5874C8.96074 14.413 4.80385 9.23581 0.644744 4.05587C0.377465 3.76387 0.182523 3.38298 0.0827699 2.95785C-0.016983 2.53272 -0.0174132 2.08097 0.0815304 1.65554C0.163264 1.25458 0.335874 0.891406 0.578751 0.609373C0.821628 0.327341 1.12451 0.138368 1.45124 0.0650133C1.77037 -0.0324179 2.10474 -0.0201442 2.41872 0.100523C2.7327 0.22119 3.01453 0.445731 3.23419 0.750226C5.01158 2.96506 6.78343 5.17989 8.54972 7.39473C12.5 12.3227 16.4536 17.2466 20.4105 22.1663C20.6021 22.3869 20.7555 22.654 20.8613 22.9511C20.9671 23.2482 21.0231 23.5691 21.0259 23.8941C21.0288 24.2191 20.9783 24.5415 20.8776 24.8413C20.7769 25.1412 20.6282 25.4123 20.4405 25.638C14.7217 32.7643 9.00184 39.8905 3.28085 47.0167C2.52101 47.9636 1.57454 48.1131 0.791379 47.432C0.56463 47.2357 0.376179 46.9784 0.239948 46.6791C0.103716 46.3799 0.0231879 46.0463 0.00431204 45.703C-0.0145639 45.3598 0.0286942 45.0156 0.130892 44.696C0.23309 44.3764 0.391616 44.0895 0.594754 43.8564C1.81783 42.3074 3.06089 40.7792 4.29396 39.2385L14.4118 26.6389C15.115 25.7502 15.8382 24.8532 16.598 23.898Z" fill="url(#paint0_linear)"/>
<path d="M30.5664 24.1725C29.9765 23.4499 29.3966 22.7439 28.8234 22.0296C26.0262 18.5413 23.2301 15.0515 20.4352 11.5604C18.5023 9.15175 16.5671 6.74865 14.6298 4.35109C13.8166 3.34196 13.7599 1.90093 14.4965 0.970704C15.233 0.0404719 16.406 0.0529329 17.2325 1.08283L34.3089 22.3577C35.2287 23.508 35.232 24.8951 34.3089 26.0454L17.2325 47.3203C16.406 48.3502 15.2596 48.3958 14.4965 47.4324C13.7333 46.4689 13.8299 45.0653 14.6298 44.052L30.2931 24.5338C30.3764 24.4383 30.4531 24.3261 30.5664 24.1725Z" fill="url(#paint1_linear)"/>
<defs>
<linearGradient id="paint0_linear" x1="17.5" y1="1.00637e-08" x2="17.0357" y2="49.6618" gradientUnits="userSpaceOnUse">
<stop stop-color="#99BAED"/>
<stop offset="1" stop-color="#1E58B1"/>
</linearGradient>
<linearGradient id="paint1_linear" x1="17.5" y1="1.00637e-08" x2="17.0357" y2="49.6618" gradientUnits="userSpaceOnUse">
<stop stop-color="#99BAED"/>
<stop offset="1" stop-color="#1E58B1"/>
</linearGradient>
</defs>
</svg>
