<svg width="141" height="158" viewBox="0 0 141 158" fill="none" xmlns="http://www.w3.org/2000/svg">
<path d="M0.68457 120.809L65.1042 157.253L140.331 113.447V83.9927L65.1042 127.798L0.68457 90.9742V120.809Z" fill="#001F6F"/>
<path d="M0.68457 90.9741L77.3487 46.9949L140.331 83.9926L65.1042 127.798L0.68457 90.9741Z" fill="#0A297C"/>
<path d="M65.104 127.798V157.253L140.331 113.447V83.9927L65.104 127.798Z" fill="#021955"/>
<path d="M18.0596 51.6465V81.0679L82.6031 117.793L111.132 101.318V71.5334" fill="#A0D700"/>
<path d="M81.9424 88.7764L82.6034 117.793L140.331 83.9926L140.752 54.0425L81.9424 88.7764Z" fill="#93BC00"/>
<path d="M81.9422 88.7765L140.752 54.0426L78.4308 17.3423L18.0596 51.6466L81.9422 88.7765Z" fill="#CBED4F"/>
<path d="M87.3705 39.9804L84.5945 41.294L86.3047 42.1202L84.14 43.1365L82.4133 42.3103L78.9266 43.9627C78.654 44.0949 78.5135 44.2519 78.5135 44.4254C78.5135 44.5989 78.6623 44.7641 78.968 44.9046C79.1255 44.9776 79.2885 45.0383 79.4554 45.0863C79.5934 45.1314 79.7341 45.1672 79.8768 45.1938H80.0173L77.9517 46.1687C77.3416 46.0505 76.7479 45.8591 76.1836 45.5986H76.134C74.366 44.7779 74.4954 43.8883 76.5224 42.9299L80.0999 41.2775L78.6457 40.6L80.8022 39.5838L81.5705 39.9391C81.8863 40.0709 82.2292 40.1247 82.5702 40.096C82.9561 40.0846 83.3356 39.9946 83.6856 39.8316L85.2967 39.0715L87.3705 39.9804Z" fill="white"/>
<path d="M91.7745 48.4077L90.7087 48.8291L84.6196 45.9952C84.4542 46.0776 84.3186 46.2093 84.2312 46.372C84.1439 46.5348 84.1093 46.7207 84.1321 46.904C84.1982 47.2428 84.5287 47.5567 85.1401 47.8376C85.6107 48.0506 86.1083 48.1979 86.619 48.2755C87.0551 48.3553 87.4976 48.394 87.9409 48.3912H88.4532L88.0401 49.7049H87.7261H86.8999C86.4951 49.7049 86.0737 49.6388 85.7019 49.5892C85.2416 49.5192 84.7863 49.4198 84.3387 49.2918C83.8485 49.162 83.3703 48.9906 82.9093 48.7795C81.6783 48.2094 81.0751 47.5071 81.0916 46.6809C81.1082 45.8547 81.7526 45.1442 83.0167 44.5493C84.4396 43.9211 85.9808 43.6056 87.5361 43.6239C89.0582 43.5636 90.5745 43.846 91.9728 44.4502C93.1708 45.0037 93.7574 45.673 93.7161 46.4331C93.6748 47.1932 93.0221 47.8128 91.7745 48.4077ZM86.3133 45.202L90.1717 46.9949C90.5518 46.7305 90.7253 46.4496 90.6922 46.1687C90.6592 45.8878 90.3865 45.6069 89.866 45.3425C89.3303 45.1027 88.7509 44.9761 88.164 44.9707C87.5262 44.9498 86.8888 45.0221 86.272 45.1855" fill="white"/>
<path d="M79.4389 34.9571C79.8821 35.1559 80.3008 35.4054 80.6865 35.7007C80.9613 35.8995 81.2014 36.1424 81.397 36.4195C81.5167 36.6044 81.6111 36.8045 81.6779 37.0143C81.7305 37.1483 81.7448 37.2941 81.7192 37.4357V37.5927L78.4722 37.6836C78.4722 37.6092 78.4722 37.5183 78.4722 37.4109C78.421 37.1987 78.3221 37.0009 78.1831 36.8326C77.9561 36.526 77.6507 36.2863 77.299 36.1386C76.8011 35.909 76.2609 35.7852 75.7127 35.775C75.235 35.7454 74.7569 35.8274 74.3164 36.0146C73.895 36.2129 73.7628 36.4691 73.9116 36.7748C74.1216 37.1523 74.4021 37.486 74.7378 37.7579C75.1333 38.1021 75.5085 38.469 75.8614 38.8568C76.0265 39.0122 76.1455 39.2101 76.2053 39.4288C76.2651 39.6474 76.2633 39.8784 76.2002 40.0961C76.068 40.5423 75.597 40.9223 74.7626 41.3437C73.4915 41.9127 72.1055 42.1785 70.7141 42.1203C69.1763 42.0929 67.6616 41.741 66.2691 41.0876C65.7693 40.8698 65.2977 40.5924 64.8646 40.2614C64.5586 40.0343 64.2957 39.7545 64.0879 39.4351C63.958 39.2163 63.8606 38.9797 63.7988 38.7329C63.7598 38.5699 63.7598 38.4001 63.7988 38.2371V38.0389H66.9631C66.9562 38.1461 66.9562 38.2538 66.9631 38.3611C67.016 38.6303 67.1385 38.881 67.3184 39.0881C67.6172 39.4857 68.0164 39.7965 68.4751 39.9887C69.0732 40.271 69.7226 40.4285 70.3836 40.4514C70.95 40.481 71.5156 40.3792 72.0361 40.154C72.4574 39.9557 72.5896 39.6995 72.4492 39.3938C72.2407 39.0129 71.9601 38.6761 71.623 38.4024C71.2215 38.0618 70.8434 37.6947 70.4911 37.3035C70.3295 37.1477 70.214 36.9504 70.1572 36.7332C70.1004 36.5161 70.1044 36.2875 70.1688 36.0725C70.301 35.6263 70.772 35.2463 71.5982 34.8249C72.786 34.315 74.0746 34.0833 75.3657 34.1474C76.7652 34.1285 78.153 34.4043 79.4389 34.9571Z" fill="white"/>
<path d="M119.593 53.6048C120.816 54.1556 121.435 54.8056 121.452 55.5547C121.468 56.3038 120.918 56.9372 119.8 57.4549C119.126 57.7675 118.411 57.9818 117.676 58.0911C116.895 58.216 116.104 58.2658 115.313 58.2398C114.487 58.2398 113.752 58.1737 113 58.1076C112.248 58.0415 111.447 58.0002 110.596 57.9672C109.854 57.9307 109.111 57.9501 108.373 58.025L113.52 60.4128L111.042 61.5943L102.639 57.6863C103.573 57.2477 104.555 56.9178 105.564 56.7031C106.495 56.4978 107.444 56.3844 108.398 56.3643C109.224 56.3643 110.133 56.3643 111.025 56.4222C111.918 56.48 112.678 56.5213 113.405 56.5874C114.081 56.6396 114.761 56.6396 115.437 56.5874C116.006 56.5723 116.567 56.449 117.09 56.2239C117.585 55.9843 117.833 55.7282 117.825 55.4555C117.817 55.1829 117.544 54.9185 116.999 54.6293C116.522 54.4179 116.008 54.3027 115.487 54.2906C115.023 54.2588 114.557 54.281 114.099 54.3567L113.586 54.4723L112.413 53.0512L112.851 52.9438C113.033 52.9438 113.405 52.8529 113.975 52.7951C114.523 52.736 115.075 52.7112 115.627 52.7208C116.271 52.7448 116.913 52.8222 117.544 52.9521C118.251 53.0838 118.94 53.303 119.593 53.6048Z" fill="white"/>
<path d="M104.201 51.3077C104.118 52.1009 103.438 52.7977 102.16 53.398C100.762 54.0289 99.2482 54.361 97.7149 54.373C96.303 54.459 94.8901 54.2216 93.5838 53.6789C93.1785 53.5132 92.8227 53.2457 92.551 52.9023C92.3787 52.7092 92.2844 52.4589 92.2866 52.2L92.3527 51.9274L87.5111 54.2077L85.1978 53.1337L97.7479 47.2097L100.061 48.2838L98.979 48.7961H99.2103H99.7639C100.061 48.7961 100.359 48.796 100.648 48.8456C100.985 48.8843 101.319 48.945 101.648 49.0274C102 49.108 102.343 49.2243 102.672 49.3744C103.774 49.8756 104.283 50.5201 104.201 51.3077ZM97.4174 52.8197C98.226 52.8008 99.0221 52.6152 99.7556 52.2744C100.466 51.9439 100.838 51.5721 100.896 51.1755C100.954 50.7789 100.689 50.4485 100.111 50.1758C99.4348 49.8928 98.7022 49.7711 97.971 49.8205C97.1624 49.8394 96.3663 50.025 95.6328 50.3658C94.9305 50.6963 94.5422 51.0681 94.4926 51.4647C94.4431 51.8613 94.6992 52.2 95.2693 52.4644C95.9449 52.7489 96.6779 52.8706 97.4091 52.8197" fill="white"/>
<path style="mix-blend-mode:multiply" opacity="0.63" d="M36.5502 108.953C41.4083 105.747 40.8713 107.391 45.3906 104.07C42.5319 102.574 33.9476 97.2121 32.1713 96.1133L22.0254 100.054L31.1137 105.367C31.2376 105.375 36.4758 108.961 36.5502 108.953Z" fill="url(#paint0_linear)"/>
<path d="M34.5839 21.7212L30.5933 43.0374L42.3007 29.6363" fill="#F9CE9B"/>
<path d="M63.7163 75.9289C62.7497 75.6315 58.5938 75.8628 58.5938 75.8628C58.5938 75.8628 58.3625 72.4671 58.4616 72.3101L54.1736 72.1614C54.1736 72.1614 52.9921 78.3001 52.9012 79.1181C52.7442 80.6218 54.5536 81.2827 54.9668 81.2662C55.2695 81.197 55.5675 81.1087 55.8591 81.0018C55.7833 80.2132 55.7833 79.4192 55.8591 78.6306C55.9169 78.2753 56.016 78.0275 56.3796 77.9283C57.0323 77.7548 58.1642 78.2175 58.7921 78.4075C59.42 78.5976 60.271 78.8867 61.0146 79.1016C62.7827 78.391 64.3195 77.6887 64.4434 77.3582C64.8317 76.5403 65.1952 76.3833 63.7163 75.9289Z" fill="#F9CE9B"/>
<path d="M65.1127 76.3338L65.0631 76.1851C64.774 75.8381 63.9147 75.772 63.5098 75.7224C61.8835 75.5634 60.2439 75.6022 58.6269 75.8381C58.6269 75.8381 62.5432 75.7142 62.6175 76.4247C62.6512 76.7095 62.618 76.9982 62.5204 77.2678C62.4229 77.5375 62.2638 77.7806 62.0557 77.978C60.2876 79.2421 57.9247 77.3996 56.4457 76.5569L53.6614 74.9954L53.2235 77.3501C53.0098 78.4251 52.8964 79.5176 52.8848 80.6136C53.05 80.9689 54.6859 82.0594 55.066 81.9107C55.446 81.762 56.6606 81.2002 56.6606 81.2002L56.7349 78.3085C56.7349 78.3085 59.04 79.6056 60.205 79.4238C61.0477 79.3247 65.972 77.7879 65.1127 76.3338Z" fill="#56403D"/>
<path d="M30.5603 96.2455C29.9241 95.9481 28.974 95.6672 28.5691 95.031C28.2708 94.3005 28.2017 93.4966 28.3708 92.7258C28.4259 91.9933 28.5003 91.2634 28.5939 90.5364C28.557 90.4999 28.5283 90.456 28.5098 90.4076C28.4913 90.3591 28.4833 90.3072 28.4865 90.2555C28.5124 89.6596 28.5787 89.0661 28.6848 88.4791L25.7187 87.876C25.7187 87.876 23.8514 92.8332 23.8762 93.4446C23.901 94.056 26.3549 98.2201 27.7594 98.6333C29.164 99.0464 33.3364 98.2036 33.7247 97.6914V97.6418C32.6836 97.1956 31.6178 96.7412 30.5603 96.2455Z" fill="#F9CE9B"/>
<path d="M26.6443 93.8082C26.6443 93.8082 27.6936 98.8646 28.2307 99.2446C28.7677 99.6247 34.9808 98.3358 34.2042 97.0965C33.7084 96.2703 30.0731 95.9315 29.7674 95.8076C29.7674 95.8076 31.6099 96.6338 31.5768 96.9395C31.5438 97.2452 29.0238 98.1045 28.9247 97.8649C28.8255 97.6253 26.6526 93.0646 26.6526 93.0646L24.2814 91.9409L21.8027 96.2289L23.4552 97.146C23.4552 97.146 23.8352 98.5671 24.017 98.5837C24.6894 97.8432 25.3053 97.0533 25.8594 96.2207C25.9058 96.8537 26.0421 97.4769 26.2643 98.0714C26.4873 98.2697 28.3133 100.129 29.3626 98.9637L27.8754 96.8982" fill="#56403D"/>
<path d="M43.8044 46.6315C45.7212 40.3606 45.7708 41.4759 47.0266 36.3039L34.4848 32.999C28.0899 42.5831 22.1494 88.8674 22.1494 88.8674C22.1494 88.8674 28.3377 93.8247 33.7164 92.321C33.7164 92.321 40.9623 54.1418 40.9788 54.1005C42.0033 51.5144 42.0446 51.0187 43.8044 46.6315Z" fill="#999A1C"/>
<path d="M62.2455 49.0358C60.4278 43.1036 45.2091 35.8164 45.2091 35.8164L39.9048 51.8779C40.1692 51.0517 49.6788 53.5304 50.5794 54.4888C52.7523 56.7939 51.7361 61.4785 51.4056 64.3207C51.4056 64.3207 50.4968 68.9061 49.9184 72.1531C53.6033 74.9953 60.6096 72.1531 60.6096 72.1531C60.6096 72.1531 64.0632 54.968 62.2455 49.0358Z" fill="#999A1C"/>
<path d="M41.8135 51.8697C41.8135 51.8697 38.4343 51.3327 36.5588 49.7959L35.873 78.4819L41.8135 51.8697Z" fill="#7A770E"/>
<path d="M54.8262 26.3811L56.4786 40.1209C56.4786 40.1209 62.3612 43.9793 62.7908 46.9867L62.1794 48.2674L52.0418 40.1457L48.8774 25.2739" fill="#F9CE9B"/>
<path d="M54.8262 26.3809C54.1983 21.7128 52.9424 17.4083 49.588 13.8142C48.8737 13.1116 48.0744 12.5009 47.2085 11.9966L45.3413 27.4385L54.8262 26.3809Z" fill="#B05800"/>
<path d="M37.4921 12.6165C35.3109 12.6165 30.2958 21.6222 30.6098 22.8119C30.9238 24.0016 35.3274 26.8108 35.3274 26.8108" fill="#B05800"/>
<path d="M49.3649 14.5827H48.8774C46.3575 14.5827 43.5732 11.1622 43.5732 11.1622C43.5732 11.1622 42.6643 3.31318 38.1945 9.6337C34.8897 14.3596 33.9809 27.7277 33.7495 34.197C35.5424 35.5189 37.8806 35.965 40.0618 36.2129C41.5104 36.4035 42.9721 36.4754 44.4324 36.4277C45.3309 36.3891 46.2116 36.164 47.0185 35.7668L48.8939 25.3152C48.8693 21.732 49.0265 18.1499 49.3649 14.5827Z" fill="#B05800"/>
<path d="M49.1996 3.84204C49.1996 3.84204 51.9509 10.7079 48.4147 12.1868C44.8785 13.6657 42.5403 10.3856 42.3338 9.57594C42.1272 8.76625 42.7551 2.72665 49.1996 3.84204Z" fill="#F9CE9B"/>
<path d="M49.5549 2.89189C48.7503 2.25255 47.8164 1.79579 46.8177 1.55326C45.8191 1.31074 44.7796 1.28823 43.7714 1.48732C42.0261 1.6296 40.3658 2.30121 39.0125 3.4124C38.6063 3.07214 38.1149 2.84931 37.5914 2.76795C36.9609 2.65752 36.3116 2.75001 35.737 3.03211C35.1624 3.31421 34.6921 3.77136 34.3939 4.33775C34.1406 4.86924 34.0738 5.47055 34.2042 6.04468C34.3346 6.6188 34.6547 7.13224 35.1127 7.50214C35.8442 7.98073 36.7354 8.15006 37.5914 7.97308C37.5914 8.02266 37.5914 8.07222 37.5914 8.13006C37.5914 9.36938 36.3521 9.88163 35.7985 10.8731C35.5298 11.3289 35.414 11.8587 35.468 12.385C35.5341 12.9138 36.0133 13.517 35.9472 14.0375C35.8227 14.4194 35.6072 14.7653 35.3193 15.0454C35.0433 15.3773 34.8076 15.7406 34.617 16.1278C36.9304 17.6893 39.9874 17.9868 42.6973 17.6976C45.6662 17.4757 48.4835 16.2989 50.7281 14.3432C50.6365 14.0603 50.4843 13.8009 50.282 13.5831C49.8563 13.231 49.3937 12.9263 48.9022 12.6742C48.2164 12.1868 49.0922 11.0218 49.1335 10.303C49.2079 9.12152 48.3982 8.55143 47.4811 8.0557C46.8119 7.70043 46.8201 7.22949 46.8862 6.54374C46.8819 5.97237 47.0583 5.41425 47.3902 4.94915C47.5982 5.00012 47.8174 4.97674 48.0099 4.88305C48.3962 4.69979 48.8044 4.56652 49.2244 4.48647C49.4333 4.4336 49.6133 4.30121 49.726 4.11754C49.8386 3.93387 49.8751 3.71345 49.8276 3.50328C49.8381 3.38657 49.8186 3.26909 49.7709 3.16205C49.7232 3.05502 49.6488 2.96201 49.5549 2.89189Z" fill="#56403D"/>
<path d="M46.7129 5.2383C47.8455 5.10658 48.9563 4.82887 50.0177 4.41209C50.0177 4.30468 50.753 0.281035 43.408 0.96679C36.063 1.65255 38.6243 10.65 38.6243 10.65" fill="#56403D"/>
<defs>
<linearGradient id="paint0_linear" x1="36.7154" y1="107.218" x2="33.1627" y2="101.12" gradientUnits="userSpaceOnUse">
<stop stop-color="white" stop-opacity="0"/>
<stop offset="0.99" stop-color="#7DAA63"/>
</linearGradient>
</defs>
</svg>
