<svg width="374" height="292" viewBox="0 0 374 292" fill="none" xmlns="http://www.w3.org/2000/svg">
<g filter="url(#filter0_d)">
<path d="M9.71887 187.435L160.041 275.038C162.272 276.337 164.806 277.014 167.382 277C169.958 276.985 172.483 276.279 174.7 274.954C208.066 255.021 344.141 174.921 366.389 161.197C367.369 160.593 366.925 158.957 366.719 158.071C366.306 156.269 362.765 153.716 360.349 152.538C356.808 150.808 353.463 148.579 350.077 146.557L338.618 139.763L325.301 131.823L310.652 123.091L295.166 113.879L279.443 104.501L263.958 95.2898L249.309 86.5265L235.888 78.5654L224.315 71.6986L215.096 66.2488L211.37 64.0606C209.604 63.0272 207.597 62.4873 205.556 62.4965C203.514 62.5056 201.512 63.0635 199.756 64.1127L9.66725 177.932C8.8499 178.423 8.17384 179.122 7.70603 179.958C7.23821 180.794 6.99487 181.739 7.00008 182.699C7.0053 183.659 7.25889 184.601 7.73576 185.432C8.21263 186.263 8.89623 186.953 9.71887 187.435Z" fill="#FFD15B"/>
<path d="M96.7259 37.7706C96.7259 37.7706 82.5 41.8136 86.6914 67.864L117.869 47.7531C117.869 47.7531 105.253 35.2906 96.7259 37.7706Z" fill="#0A297C"/>
<path opacity="0.39" d="M96.7259 37.7706C96.7259 37.7706 82.5 41.8136 86.6914 67.864L117.869 47.7531C117.869 47.7531 105.253 35.2906 96.7259 37.7706Z" fill="#06489E"/>
<path d="M205.754 150.548C161.279 126.217 177.044 88.7043 177.25 52.0045C177.302 40.2714 177.085 28.0381 173.926 16.5759C172.77 12.4078 171.221 8.03137 168.382 4.70734C166.792 2.84213 164.5 0.674733 162.043 0.112044C159.297 -0.513167 156.706 1.62297 154.507 2.93591L146.857 7.51037L126.675 19.629L110.302 29.4136L107.411 31.1433L95.3324 38.3645C97.6242 36.989 102.621 41.6364 103.849 43.0848C106.678 46.4089 108.237 50.7958 109.393 54.9534C112.552 66.3322 112.769 78.6072 112.717 90.382C112.552 127.113 92.0702 173.65 136.596 197.949C161.372 211.496 199.332 234.628 199.332 234.628L273.404 190.197C265.537 185.393 227.113 162.219 205.754 150.548Z" fill="#0A297C"/>
<path d="M191.125 84.6717L186.593 81.2434C186.586 81.0965 186.543 80.9535 186.47 80.8265C186.396 80.6996 186.293 80.5924 186.17 80.514C181.841 77.4713 177.519 74.4147 173.203 71.3443C173.067 71.2388 172.908 71.1691 172.739 71.1414C172.569 71.1138 172.396 71.1291 172.234 71.186C172.072 71.2428 171.927 71.3395 171.812 71.4672C171.696 71.5948 171.614 71.7496 171.572 71.9174C171.118 72.7093 171.696 73.5325 172.429 74.1473C173.162 74.7621 174.07 75.5123 174.896 76.2313C174.789 76.3103 174.698 76.4093 174.628 76.5231C173.967 77.5651 172.863 79.0448 172.852 80.3473C172.842 81.6498 173.885 82.2959 174.69 83.0044V83.192C174.525 84.7967 175.227 85.276 176.486 86.0367C176.607 86.1194 176.745 86.1752 176.889 86.2004C177.033 86.2255 177.181 86.2195 177.322 86.1826C178.196 86.7569 179.119 87.2521 180.079 87.6622L183.898 89.6212C184.869 90.1214 185.571 88.9439 185.179 88.152C185.943 88.2145 186.263 87.3705 186.066 86.714C186.164 86.618 186.238 86.5002 186.283 86.3701V86.318L187.605 87.3601C188.637 88.2041 189.938 86.5264 188.874 85.6824L187.935 84.9322L189.866 86.391C190.091 86.5596 190.374 86.6307 190.652 86.5886C190.93 86.5466 191.18 86.3949 191.347 86.167C191.514 85.939 191.584 85.6533 191.543 85.3729C191.501 85.0925 191.351 84.8402 191.125 84.6717Z" fill="#FEC877"/>
<path d="M221.136 218.665L222.767 217.623V199.085L214.704 198.793C214.704 198.793 214.549 206.702 212.639 208.505C210.73 210.308 206.022 209.016 205.557 209.172C205.093 209.328 201.924 208.401 200.499 209.881C199.074 211.36 205.33 215.632 208.654 216.414C210.931 216.878 213.267 216.966 215.571 216.674C215.571 216.674 216.294 211.933 217.45 212.402C218.606 212.871 218.689 217.883 218.689 217.883L221.136 218.665Z" fill="#FF6753"/>
<path d="M227.206 120.527C228.34 126.881 229.01 133.31 229.209 139.763C229.343 147.057 226.793 205.348 226.793 205.348C226.793 205.348 222.003 211.016 210.337 207.598C208.644 207.109 208.107 150.715 208.107 150.715L212.144 124.852" fill="#A03DFF"/>
<path d="M221.838 91.0906C221.198 91.0906 199.735 90.5279 185.23 77.4089C185.23 77.4089 178.282 84.2862 181.101 89.5484C181.101 89.5484 201.665 109.545 217.347 105.45" fill="#FC9C54"/>
<path d="M204.835 84.9009C204.806 84.8557 204.766 84.8186 204.719 84.7929C204.672 84.7672 204.62 84.7538 204.566 84.7538C204.513 84.7538 204.461 84.7672 204.414 84.7929C204.367 84.8186 204.327 84.8557 204.298 84.9009C202.231 88.0583 201.488 91.9142 202.233 95.6233C202.316 96.0192 202.915 95.8525 202.842 95.4565C202.183 92.0989 202.798 88.6138 204.566 85.6928C206.333 89.0246 207.242 92.751 207.209 96.5298C207.209 96.6141 207.242 96.6949 207.301 96.7545C207.36 96.8141 207.441 96.8476 207.524 96.8476C207.608 96.8476 207.688 96.8141 207.747 96.7545C207.806 96.6949 207.839 96.6141 207.839 96.5298C207.866 92.4546 206.83 88.4441 204.835 84.9009Z" fill="#42A200"/>
<path d="M199.053 232.972L200.685 231.93V213.392L192.622 213.1C192.622 213.1 192.467 221.009 190.557 222.812C188.647 224.615 183.94 223.323 183.475 223.479C183.011 223.635 179.841 222.708 178.417 224.187C176.992 225.667 183.248 229.939 186.572 230.721C188.849 231.185 191.185 231.273 193.489 230.981C193.489 230.981 194.212 226.24 195.368 226.709C196.524 227.178 196.607 232.19 196.607 232.19L199.053 232.972Z" fill="#FF6753"/>
<path d="M201.944 123.226C201.944 123.226 194.511 150.923 191.486 175.713C190.764 181.663 184.662 217.154 184.662 217.154C184.662 217.154 194.718 220.863 203.658 217.956C203.658 217.956 214.291 172.67 214.745 171.784C215.2 170.899 222.374 141.566 223.2 120.517" fill="#A03DFF"/>
<path d="M224.666 87.9854L220.403 86.3702C219.319 86.4432 209.666 89.6318 205.279 96.0818C204.662 98.1 204.196 100.162 203.885 102.251C203.327 105.033 202.853 107.825 202.502 110.587C202.101 113.647 201.928 116.733 201.985 119.819C201.985 121.142 202.058 121.809 202.192 123.122C202.664 123.604 203.216 123.999 203.823 124.289C216.5 129.791 226.535 123.112 227.041 122.08C227.547 121.049 229.219 105.96 230.138 96.978C230.33 95.0808 229.898 93.1725 228.909 91.5474C227.92 89.9223 226.429 88.6706 224.666 87.9854Z" fill="#FFAF68"/>
<path d="M214.312 71.5527C214.312 71.5527 210.327 86.141 215.623 88.1521C220.919 90.1632 227.732 84.4321 228.414 81.4206C229.095 78.4092 222.251 67.1658 214.312 71.5527Z" fill="#FEC877"/>
<path d="M240.461 67.1971C239.77 65.7326 238.582 64.5662 237.113 63.9087C235.644 63.2513 233.99 63.1462 232.45 63.6125C229.529 64.5712 227.763 67.1033 226.907 69.9272C224.274 67.6035 220.351 66.426 215.375 67.9682C215.375 67.9682 210.492 70.0522 211.38 73.1783C212.268 76.3043 215.974 76.3043 219.081 76.9191C222.189 77.5339 219.67 80.2848 219.825 83.3796C219.979 86.4744 221.363 86.985 222.653 87.2559C223.944 87.5268 229.807 86.2139 230.633 79.2636C230.683 78.8384 230.704 78.4101 230.695 77.9819C231.501 78.0666 232.312 78.091 233.121 78.0549C234.947 78.1145 236.747 77.613 238.283 76.6169C239.629 75.5126 240.574 73.988 240.968 72.2829C241.362 70.5778 241.184 68.7888 240.461 67.1971Z" fill="#653200"/>
<path d="M209.212 87.5478C209.616 86.9736 209.79 86.2661 209.697 85.568C209.668 85.3591 209.577 85.164 209.436 85.0084C209.295 84.8529 209.11 84.7442 208.907 84.6968C208.703 84.6494 208.49 84.6654 208.296 84.7428C208.101 84.8202 207.935 84.9554 207.818 85.1303L207.364 85.7555C207.292 84.9532 207.209 84.1508 207.096 83.3485C207.086 83.0721 206.968 82.8109 206.768 82.6223C206.567 82.4338 206.301 82.3333 206.027 82.3429C205.753 82.3526 205.495 82.4717 205.308 82.6739C205.121 82.8762 205.021 83.1451 205.031 83.4214C205.031 83.6715 204.969 83.932 204.948 84.1821C204.862 84.4498 204.804 84.7256 204.773 85.0053C203.648 85.1512 202.305 85.568 202.109 86.8705C202.109 86.8705 202.109 86.933 202.109 86.9539C201.242 86.9539 200.396 87.2977 200.365 88.3397C200.349 88.5374 200.349 88.736 200.365 88.9337C199.487 89.1942 198.847 89.6423 198.971 90.7989C199.158 92.1453 199.505 93.4641 200.003 94.7273C200.075 94.8842 200.184 95.0206 200.321 95.1243C200.458 95.228 200.619 95.2957 200.788 95.3212C200.912 95.8839 201.056 96.4362 201.211 96.9885C201.326 97.2255 201.498 97.4295 201.711 97.5815C201.925 97.7334 202.173 97.8284 202.432 97.8575C202.692 97.8866 202.955 97.849 203.196 97.748C203.437 97.6471 203.65 97.4862 203.813 97.2802C203.918 97.2731 204.022 97.252 204.122 97.2177C204.246 97.3034 204.387 97.3609 204.535 97.3861C204.683 97.4113 204.835 97.4036 204.979 97.3636C205.107 97.4552 205.254 97.5163 205.409 97.5421C205.563 97.568 205.722 97.5579 205.872 97.5127C206.022 97.4675 206.16 97.3884 206.276 97.2813C206.391 97.1742 206.481 97.042 206.538 96.8947C206.659 96.786 206.753 96.6501 206.812 96.498C206.871 96.346 206.894 96.182 206.879 96.0194C206.879 95.7797 206.879 95.5401 206.879 95.3108C207.705 92.7266 208.482 90.139 209.212 87.5478Z" fill="#FEC877"/>
<path d="M207.447 92.9455C207.116 93.0288 202.471 88.7253 198.95 90.205C198.95 90.205 185.53 113.046 198.052 119.09C204.246 122.091 209.067 112.838 209.067 112.838L205.506 105.731L207.447 92.9455Z" fill="#FFAF68"/>
<path d="M128.192 65.853C131.305 65.853 133.829 62.3587 133.829 58.0482C133.829 53.7378 131.305 50.2435 128.192 50.2435C125.079 50.2435 122.556 53.7378 122.556 58.0482C122.556 62.3587 125.079 65.853 128.192 65.853Z" fill="white"/>
<path d="M137.38 50.0247L167.752 32.0499C168.048 31.8758 168.263 31.5903 168.35 31.2561C168.437 30.922 168.389 30.5666 168.217 30.2681C168.044 29.9696 167.762 29.7525 167.43 29.6646C167.099 29.5767 166.747 29.6251 166.452 29.7992L136.08 47.774C135.933 47.8602 135.805 47.9747 135.702 48.1109C135.6 48.2471 135.525 48.4023 135.482 48.5678C135.439 48.7333 135.428 48.9057 135.451 49.0752C135.474 49.2447 135.53 49.408 135.615 49.5558C135.7 49.7036 135.814 49.833 135.949 49.9365C136.084 50.0401 136.238 50.1158 136.401 50.1593C136.565 50.2029 136.736 50.2134 136.904 50.1903C137.072 50.1672 137.234 50.1109 137.38 50.0247Z" fill="#F2F2F2"/>
<path d="M139.879 55.985L159.112 44.8562C159.407 44.6821 159.622 44.3966 159.709 44.0624C159.797 43.7282 159.749 43.3728 159.576 43.0744C159.404 42.7759 159.121 42.5588 158.79 42.4709C158.459 42.3829 158.106 42.4313 157.811 42.6055L138.537 53.7342C138.241 53.9138 138.028 54.2047 137.945 54.5427C137.862 54.8808 137.915 55.2384 138.093 55.5369C138.271 55.8354 138.559 56.0502 138.894 56.1343C139.229 56.2183 139.583 56.1646 139.879 55.985Z" fill="#F2F2F2"/>
<path d="M132.908 93.2746C133.762 89.0513 131.982 85.118 128.932 84.4894C125.882 83.8609 122.717 86.7749 121.862 90.9982C121.008 95.2215 122.788 99.1547 125.838 99.7833C128.888 100.412 132.054 97.4979 132.908 93.2746Z" fill="white"/>
<path d="M136.544 86.1514L166.864 68.1662C167.16 67.992 167.375 67.7065 167.462 67.3723C167.549 67.0382 167.502 66.6828 167.329 66.3843C167.157 66.0858 166.874 65.8688 166.543 65.7808C166.211 65.6929 165.859 65.7413 165.564 65.9154L135.243 83.9006C135.097 83.9868 134.969 84.1013 134.866 84.2375C134.764 84.3737 134.689 84.529 134.645 84.6944C134.602 84.8599 134.592 85.0323 134.615 85.2018C134.638 85.3714 134.693 85.5347 134.779 85.6825C134.864 85.8302 134.978 85.9596 135.112 86.0632C135.247 86.1667 135.401 86.2424 135.565 86.2859C135.729 86.3295 135.9 86.34 136.068 86.3169C136.236 86.2938 136.398 86.2376 136.544 86.1514Z" fill="#F2F2F2"/>
<path d="M139.001 92.1118L158.234 80.983C158.53 80.8089 158.745 80.5234 158.832 80.1892C158.919 79.8551 158.871 79.4997 158.699 79.2012C158.526 78.9027 158.243 78.6856 157.912 78.5977C157.581 78.5098 157.229 78.5582 156.933 78.7323L137.7 89.861C137.405 90.0351 137.19 90.3207 137.102 90.6548C137.015 90.989 137.063 91.3444 137.236 91.6429C137.408 91.9413 137.691 92.1584 138.022 92.2464C138.353 92.3343 138.705 92.2859 139.001 92.1118Z" fill="#F2F2F2"/>
<path d="M129.116 126.087C130.318 121.951 128.871 117.881 125.884 116.996C122.897 116.112 119.501 118.748 118.299 122.884C117.096 127.02 118.543 131.09 121.531 131.975C124.518 132.859 127.914 130.223 129.116 126.087Z" fill="white"/>
<path d="M132.848 119.485L163.169 101.5C163.315 101.414 163.443 101.3 163.546 101.163C163.648 101.027 163.723 100.872 163.767 100.706C163.81 100.541 163.82 100.369 163.797 100.199C163.774 100.03 163.719 99.8662 163.633 99.7184C163.548 99.5706 163.434 99.4413 163.299 99.3377C163.165 99.2342 163.011 99.1585 162.847 99.1149C162.683 99.0714 162.512 99.0609 162.344 99.0839C162.176 99.107 162.014 99.1633 161.868 99.2495L131.547 117.235C131.401 117.321 131.273 117.435 131.17 117.572C131.068 117.708 130.993 117.863 130.95 118.029C130.906 118.194 130.896 118.366 130.919 118.536C130.942 118.705 130.998 118.869 131.083 119.017C131.168 119.164 131.282 119.294 131.417 119.397C131.552 119.501 131.705 119.577 131.869 119.62C132.033 119.664 132.204 119.674 132.372 119.651C132.54 119.628 132.702 119.572 132.848 119.485Z" fill="#F2F2F2"/>
<path d="M133.488 126.123L152.721 114.994C152.868 114.908 152.996 114.794 153.098 114.658C153.201 114.521 153.276 114.366 153.319 114.201C153.362 114.035 153.373 113.863 153.35 113.693C153.327 113.524 153.271 113.36 153.186 113.213C153.1 113.065 152.987 112.935 152.852 112.832C152.717 112.728 152.563 112.653 152.399 112.609C152.235 112.566 152.065 112.555 151.897 112.578C151.729 112.601 151.567 112.657 151.42 112.744L132.188 123.872C131.892 124.046 131.677 124.332 131.59 124.666C131.503 125 131.551 125.356 131.723 125.654C131.896 125.953 132.178 126.17 132.51 126.258C132.841 126.346 133.193 126.297 133.488 126.123Z" fill="#F2F2F2"/>
<path d="M127.284 162.51C130.397 162.51 132.921 159.016 132.921 154.706C132.921 150.395 130.397 146.901 127.284 146.901C124.171 146.901 121.647 150.395 121.647 154.706C121.647 159.016 124.171 162.51 127.284 162.51Z" fill="white"/>
<path d="M136.142 148.276L166.462 130.291C166.758 130.117 166.973 129.832 167.06 129.497C167.147 129.163 167.099 128.808 166.927 128.509C166.841 128.362 166.728 128.232 166.593 128.129C166.458 128.025 166.304 127.949 166.14 127.906C165.809 127.818 165.457 127.866 165.161 128.041L134.841 146.015C134.694 146.102 134.566 146.216 134.464 146.352C134.361 146.488 134.286 146.644 134.243 146.809C134.2 146.975 134.189 147.147 134.212 147.317C134.235 147.486 134.291 147.649 134.376 147.797C134.462 147.945 134.575 148.074 134.71 148.178C134.845 148.281 134.999 148.357 135.163 148.401C135.327 148.444 135.497 148.455 135.665 148.432C135.833 148.409 135.995 148.352 136.142 148.266V148.276Z" fill="#F2F2F2"/>
<path d="M138.846 153.841L158.079 142.712C158.375 142.538 158.59 142.252 158.677 141.918C158.764 141.584 158.716 141.229 158.544 140.93C158.458 140.782 158.345 140.653 158.21 140.55C158.075 140.446 157.921 140.37 157.757 140.327C157.426 140.239 157.074 140.287 156.778 140.461L137.545 151.59C137.25 151.764 137.035 152.05 136.948 152.384C136.86 152.718 136.908 153.073 137.081 153.372C137.253 153.67 137.536 153.887 137.867 153.975C138.198 154.063 138.551 154.015 138.846 153.841Z" fill="#F2F2F2"/>
<path d="M125.054 58.663L126.272 56.2768C126.272 56.2768 129.018 59.3299 129.018 59.0277C129.018 58.7255 131.62 47.0237 131.62 47.0237L133.684 48.7534L130.288 62.7581L125.054 58.663Z" fill="#4EB300"/>
<path d="M259.023 128.489C258.585 128.487 258.152 128.391 257.753 128.207L257.557 129.51L278.204 130.041V128.489H259.023Z" fill="#EF8A3F"/>
<path d="M257.743 128.301L257.557 129.551L268.924 136.158V134.553C265.124 132.657 261.408 130.5 257.743 128.301Z" fill="#EF8A3F"/>
<path d="M269.264 38.3333C268.589 38.4461 267.897 38.3441 267.282 38.0415L254.192 140.003C254.987 140.493 255.813 140.93 256.618 141.389L269.863 38.2291L269.264 38.3333Z" fill="#EF8A3F"/>
<path d="M272.279 38.2081C271.802 38.2609 271.321 38.2609 270.844 38.2081C270.462 38.2081 270.069 38.2081 269.688 38.2706L278.535 142.827C279.207 142.494 279.896 142.199 280.6 141.941L280.951 141.764H281.012L272.279 38.2081Z" fill="#EF8A3F"/>
<path d="M270.844 38.2186C270.315 38.2213 269.788 38.2596 269.264 38.3333C269.058 38.3497 268.851 38.3497 268.645 38.3333L267.778 148.787C268.221 148.628 268.698 148.588 269.161 148.672H269.956H270.389L271.257 38.2186H270.844Z" fill="#EF8A3F"/>
<path d="M256.535 39.9796V62.8206C256.535 62.8206 282.571 63.6021 282.571 62.8206V39.9796" fill="#FF6753"/>
<path d="M269.574 46.0233C276.764 46.0233 282.592 43.2988 282.592 39.9379C282.592 36.5771 276.764 33.8525 269.574 33.8525C262.384 33.8525 256.556 36.5771 256.556 39.9379C256.556 43.2988 262.384 46.0233 269.574 46.0233Z" fill="#D64338"/>
<path d="M269.574 69.25C276.764 69.25 282.592 66.5255 282.592 63.1646C282.592 59.8037 276.764 57.0792 269.574 57.0792C262.384 57.0792 256.556 59.8037 256.556 63.1646C256.556 66.5255 262.384 69.25 269.574 69.25Z" fill="#FF6753"/>
<path d="M206.332 93.9145C203.385 98.7591 201.362 104.117 200.365 109.711C200.251 110.368 201.242 110.649 201.397 109.993C202.373 104.487 204.362 99.2133 207.261 94.4459C207.571 93.8311 206.683 93.3101 206.332 93.9145Z" fill="#F04900"/>
<path d="M208.83 113.713C207.798 115.745 206.476 117.881 204.411 118.923C203.193 119.499 201.833 119.695 200.503 119.487C199.174 119.279 197.936 118.677 196.948 117.756C192.55 113.932 193.21 107.336 194.088 102.198C194.201 101.542 193.21 101.261 193.056 101.917C192.023 107.69 191.497 115.192 196.896 119.058C197.934 119.832 199.147 120.333 200.425 120.515C201.703 120.697 203.006 120.554 204.215 120.1C206.796 119.058 208.438 116.578 209.677 114.171C210.028 113.65 209.129 113.129 208.83 113.713Z" fill="#F04900"/>
<path d="M220.083 140.899C219.422 154.143 215.551 166.835 212.268 179.589C208.985 192.343 206.187 205.046 203.792 217.914L204.907 217.602C207.336 204.604 210.206 191.701 213.517 178.891C216.769 166.387 220.465 153.883 221.115 140.899C221.146 140.232 220.114 140.232 220.083 140.899Z" fill="#653200"/>
<path d="M289.468 124.331V159.457L316.412 175.161L338.37 161.989V129.353" fill="#FFAF68"/>
<path d="M316.412 175.16V140.503L338.37 130.687V161.989L316.412 175.16Z" fill="#F49E5D"/>
<path d="M338.37 127.53V130.687L336.285 131.333L334.902 129.187" fill="#EA8E50"/>
<path d="M311.653 114.223L289.457 127.488L317.207 143.66C318.033 144.14 338.36 130.687 338.36 130.687L311.653 114.223Z" fill="#EA8E50"/>
<path d="M289.468 127.488V124.331L293.452 122.33L292.967 127.947" fill="#EA8E50"/>
<path d="M311.653 111.066L289.457 124.331L317.207 140.503C318.033 140.982 338.36 127.53 338.36 127.53L311.653 111.066Z" fill="#FFB883"/>
<path d="M293.339 134.24V141.503L313.532 153.132V146.005L293.339 134.24Z" fill="#EA8E50"/>
<path d="M293.07 145.098V152.372L313.263 164.001V156.863L293.07 145.098Z" fill="#EA8E50"/>
<path d="M302.65 144.611C303.15 144.563 303.5 143.944 303.432 143.228C303.365 142.511 302.905 141.97 302.405 142.018C301.906 142.066 301.556 142.686 301.624 143.402C301.691 144.118 302.151 144.659 302.65 144.611Z" fill="#FFB883"/>
<path d="M301.813 155.096C302.313 155.047 302.663 154.428 302.595 153.712C302.527 152.996 302.068 152.454 301.568 152.502C301.069 152.55 300.719 153.17 300.786 153.886C300.854 154.602 301.314 155.144 301.813 155.096Z" fill="#FFB883"/>
<path d="M69.2654 149.443C56.5673 149.443 46.2644 152.84 46.2644 157.029H92.2663C92.2663 152.84 81.9634 149.443 69.2654 149.443Z" fill="#06489E"/>
<path d="M46.3367 157.623L46.2644 157.04C46.2663 157.236 46.2906 157.432 46.3367 157.623Z" fill="#06489E"/>
<path d="M92.2662 157.04L92.1733 157.707C92.233 157.489 92.2642 157.265 92.2662 157.04Z" fill="#06489E"/>
<path d="M69.2654 164.626C81.2923 164.626 91.1514 161.583 92.1734 157.696L92.2663 157.029H46.2644L46.3367 157.613C47.2451 161.541 57.1558 164.626 69.2654 164.626Z" fill="#06489E"/>
<path d="M78.0507 117.85H72.8785V171.732H78.0507V117.85Z" fill="#25B000"/>
<path d="M75.4698 118.954C76.9009 118.954 78.061 118.46 78.061 117.85C78.061 117.24 76.9009 116.745 75.4698 116.745C74.0387 116.745 72.8785 117.24 72.8785 117.85C72.8785 118.46 74.0387 118.954 75.4698 118.954Z" fill="#25B000"/>
<path d="M89.5562 128.139L84.4886 127.094L73.8092 179.888L78.8768 180.932L89.5562 128.139Z" fill="#FF8F02"/>
<path d="M89.5564 128.14C89.6773 127.542 88.6386 126.823 87.2364 126.534C85.8343 126.245 84.5996 126.495 84.4787 127.093C84.3578 127.691 85.3964 128.41 86.7986 128.699C88.2008 128.987 89.4355 128.737 89.5564 128.14Z" fill="#FF8F02"/>
<path d="M63.0197 158.228L58.3224 160.947C58.2291 160.98 58.1273 160.979 58.0347 160.944C57.9421 160.909 57.8646 160.843 57.8155 160.756C57.7665 160.669 57.749 160.568 57.7662 160.47C57.7833 160.372 57.834 160.282 57.9095 160.218L62.7099 157.477C62.7546 157.451 62.8036 157.434 62.8545 157.425L61.9047 152.215L57.1559 154.956C57.0625 154.989 56.9607 154.987 56.8681 154.953C56.7755 154.918 56.698 154.851 56.649 154.764C56.5999 154.678 56.5825 154.576 56.5996 154.478C56.6168 154.38 56.6675 154.291 56.7429 154.226L61.5744 151.434C61.6284 151.404 61.6883 151.386 61.7498 151.382L60.8723 146.609L56.2577 149.298C56.1644 149.33 56.0626 149.329 55.97 149.294C55.8774 149.259 55.7999 149.193 55.7508 149.106C55.7018 149.02 55.6843 148.918 55.7015 148.82C55.7186 148.722 55.7693 148.633 55.8448 148.568L60.6762 145.776H60.7691L59.7884 140.461L55.1324 143.15C55.0391 143.183 54.9373 143.181 54.8447 143.146C54.7521 143.112 54.6746 143.045 54.6255 142.958C54.5765 142.872 54.559 142.77 54.5762 142.672C54.5934 142.574 54.644 142.485 54.7195 142.42L59.5509 139.628H59.6232L58.6631 134.418L53.9349 137.148C53.8416 137.181 53.7398 137.179 53.6472 137.144C53.5546 137.109 53.477 137.043 53.428 136.956C53.379 136.87 53.3615 136.768 53.3787 136.67C53.3958 136.572 53.4465 136.483 53.5219 136.418L58.3224 133.511C58.367 133.485 58.416 133.467 58.4669 133.459L57.6411 128.947L52.9129 131.677C52.8195 131.71 52.7177 131.709 52.6251 131.674C52.5326 131.639 52.455 131.572 52.406 131.486C52.3569 131.399 52.3395 131.298 52.3566 131.2C52.3738 131.101 52.4245 131.012 52.4999 130.948L57.2901 128.197C57.3378 128.169 57.3904 128.152 57.4449 128.145L56.619 123.643L51.9011 126.363C51.8078 126.396 51.706 126.395 51.6134 126.36C51.5208 126.325 51.4433 126.258 51.3942 126.171C51.3452 126.085 51.3277 125.984 51.3449 125.885C51.3621 125.787 51.4128 125.698 51.4882 125.633L56.3196 122.841C56.3675 122.832 56.4163 122.832 56.4642 122.841L55.5867 117.881L50.9101 120.58C50.8167 120.612 50.7149 120.611 50.6224 120.576C50.5298 120.541 50.4522 120.475 50.4032 120.388C50.3541 120.302 50.3367 120.2 50.3538 120.102C50.371 120.004 50.4217 119.915 50.4971 119.85L55.3286 117.058H55.4215L54.9982 114.755L44.7366 121.174C44.7366 121.174 52.025 162.135 52.1799 162.219C56.4332 164.459 64.1759 164.719 64.1759 164.719L63.0197 158.228Z" fill="#FFAF68"/>
<path d="M50.5073 119.798C50.4318 119.863 50.3811 119.952 50.364 120.05C50.3468 120.148 50.3643 120.249 50.4133 120.336C50.4624 120.423 50.5399 120.489 50.6325 120.524C50.7251 120.559 50.8269 120.56 50.9202 120.527L55.5865 117.881L55.4316 117.016H55.3387L50.5073 119.798Z" fill="#CA4300"/>
<path d="M51.5294 125.633C51.4539 125.698 51.4032 125.787 51.3861 125.885C51.3689 125.984 51.3864 126.085 51.4354 126.171C51.4845 126.258 51.562 126.325 51.6546 126.36C51.7472 126.395 51.849 126.396 51.9423 126.363L56.6602 123.643L56.5053 122.789C56.4575 122.78 56.4086 122.78 56.3608 122.789L51.5294 125.633Z" fill="#CA4300"/>
<path d="M52.4998 130.989C52.4244 131.054 52.3737 131.143 52.3565 131.241C52.3394 131.339 52.3568 131.441 52.4059 131.527C52.4549 131.614 52.5325 131.681 52.625 131.716C52.7176 131.75 52.8194 131.752 52.9128 131.719L57.641 128.989L57.4861 128.145C57.4316 128.152 57.379 128.169 57.3313 128.197L52.4998 130.989Z" fill="#CA4300"/>
<path d="M53.4909 136.345C53.4155 136.41 53.3648 136.499 53.3476 136.597C53.3305 136.696 53.3479 136.797 53.397 136.883C53.446 136.97 53.5235 137.037 53.6161 137.072C53.7087 137.107 53.8105 137.108 53.9039 137.075L58.6321 134.345L58.4772 133.501C58.4254 133.495 58.3729 133.498 58.3223 133.511L53.4909 136.345Z" fill="#CA4300"/>
<path d="M54.678 142.368C54.6026 142.433 54.5519 142.522 54.5347 142.62C54.5176 142.718 54.535 142.82 54.5841 142.906C54.6331 142.993 54.7107 143.059 54.8033 143.094C54.8959 143.129 54.9976 143.13 55.091 143.098L59.7469 140.409L59.5817 139.534H59.5095L54.678 142.368Z" fill="#CA4300"/>
<path d="M55.793 148.568C55.7176 148.633 55.6669 148.722 55.6497 148.82C55.6326 148.918 55.65 149.02 55.6991 149.106C55.7481 149.193 55.8257 149.259 55.9182 149.294C56.0108 149.329 56.1126 149.33 56.206 149.298L60.8826 146.599L60.7277 145.734H60.6348L55.793 148.568Z" fill="#CA4300"/>
<path d="M61.5742 151.434L56.7427 154.226C56.6673 154.291 56.6166 154.38 56.5994 154.478C56.5823 154.577 56.5997 154.678 56.6488 154.764C56.6978 154.851 56.7754 154.918 56.868 154.953C56.9606 154.988 57.0623 154.989 57.1557 154.956L61.9045 152.215L61.7497 151.382C61.6881 151.386 61.6282 151.404 61.5742 151.434Z" fill="#CA4300"/>
<path d="M57.8785 160.218C57.803 160.282 57.7523 160.372 57.7352 160.47C57.718 160.568 57.7355 160.669 57.7845 160.756C57.8336 160.843 57.9111 160.909 58.0037 160.944C58.0963 160.979 58.1981 160.98 58.2914 160.947L63.0196 158.217L62.8648 157.373C62.8139 157.382 62.7649 157.399 62.7202 157.425L57.8785 160.218Z" fill="#CA4300"/>
<path d="M84.4823 127.092C84.4823 127.092 84.7404 128.457 86.7948 128.697C88.8492 128.937 89.5512 128.134 89.5512 128.134L88.8802 117.881L84.4823 127.092Z" fill="#FFD8BD"/>
<path d="M88.8801 117.881L86.8154 122.174C87.1068 122.496 87.5001 122.705 87.9278 122.766C88.3554 122.827 88.7908 122.735 89.1589 122.507L88.8801 117.881Z" fill="#653200"/>
<path d="M72.8785 117.537C72.8785 117.537 73.3534 118.85 75.4181 118.756C77.4829 118.662 78.0507 117.714 78.0507 117.714L75.7795 107.669L72.8785 117.537Z" fill="#FFD8BD"/>
<path d="M75.7898 107.721L74.4374 112.285C74.7702 112.562 75.1881 112.714 75.6194 112.714C76.0508 112.714 76.4687 112.562 76.8015 112.285L75.7898 107.721Z" fill="#653200"/>
<path d="M69.2654 164.626C57.1661 164.626 47.2451 161.5 46.3367 157.623C46.9354 162.312 51.0752 194.521 51.23 194.709C51.23 194.709 53.2948 203.795 69.2654 203.785C82.8202 203.785 86.6813 196.918 86.6813 196.918L92.1734 157.707C91.1514 161.583 81.2923 164.626 69.2654 164.626Z" fill="#0A297C"/>
</g>
<defs>
<filter id="filter0_d" x="0" y="0" width="374" height="292" filterUnits="userSpaceOnUse" color-interpolation-filters="sRGB">
<feFlood flood-opacity="0" result="BackgroundImageFix"/>
<feColorMatrix in="SourceAlpha" type="matrix" values="0 0 0 0 0 0 0 0 0 0 0 0 0 0 0 0 0 0 127 0"/>
<feOffset dy="8"/>
<feGaussianBlur stdDeviation="3.5"/>
<feColorMatrix type="matrix" values="0 0 0 0 0 0 0 0 0 0 0 0 0 0 0 0 0 0 0.21 0"/>
<feBlend mode="normal" in2="BackgroundImageFix" result="effect1_dropShadow"/>
<feBlend mode="normal" in="SourceGraphic" in2="effect1_dropShadow" result="shape"/>
</filter>
</defs>
</svg>
