<svg width="60" height="60" viewBox="0 0 60 60" fill="none" xmlns="http://www.w3.org/2000/svg">
<path d="M29.9846 60H30.0154C37.9676 59.9994 45.5939 56.8401 51.217 51.217C56.8401 45.5939 59.9994 37.9676 60 30.0154V29.9988C60 22.0426 56.8394 14.4123 51.2136 8.78645C45.5877 3.16058 37.9574 9.31958e-08 30.0012 9.31958e-08C26.0615 -0.000310437 22.1603 0.775403 18.5204 2.28285C14.8805 3.79029 11.5732 5.99994 8.78729 8.78561C6.00139 11.5713 3.79148 14.8784 2.28375 18.5182C0.776021 22.158 -1.22381e-08 26.0591 0 29.9988L0 30.0154C0.000627024 37.9676 3.15991 45.5939 8.78299 51.217C14.4061 56.8401 22.0324 59.9994 29.9846 60Z" fill="#55ACEE"/>
<path d="M47.5272 20.0987C46.2914 20.6447 44.9813 21.0041 43.6399 21.1651C45.0529 20.3181 46.1106 18.9873 46.6169 17.4197C45.29 18.2057 43.8386 18.759 42.3252 19.0559C41.3053 17.9681 39.955 17.2472 38.4837 17.005C37.0123 16.7628 35.5022 17.0128 34.1874 17.7163C32.8726 18.4197 31.8267 19.5374 31.2117 20.8958C30.5968 22.2543 30.4473 23.7776 30.7863 25.2297C28.0953 25.095 25.4627 24.396 23.0593 23.178C20.6559 21.96 18.5354 20.2503 16.8356 18.1598C15.9716 19.6497 15.7073 21.4127 16.0965 23.0904C16.4856 24.7682 17.499 26.2348 18.9306 27.1923C17.8528 27.1609 16.7985 26.8706 15.8567 26.3458C15.8567 26.3742 15.8567 26.4025 15.8567 26.4309C15.8576 27.995 16.3998 29.5106 17.391 30.7204C18.3823 31.9302 19.7617 32.7597 21.2951 33.0682C20.2987 33.3378 19.2541 33.3774 18.2401 33.184C18.6723 34.529 19.5142 35.7052 20.6479 36.5481C21.7816 37.3909 23.1504 37.8583 24.5629 37.8847C21.7223 40.1028 18.121 41.1097 14.542 40.6867C17.6367 42.6757 21.2388 43.7314 24.9176 43.7275C37.3668 43.7275 44.1743 33.4134 44.1743 24.4707C44.1743 24.1775 44.1743 23.8843 44.1554 23.5958C45.4774 22.6388 46.619 21.4547 47.5272 20.0987Z" fill="white"/>
</svg>
