<svg width="60" height="60" viewBox="0 0 60 60" fill="none" xmlns="http://www.w3.org/2000/svg">
<path d="M30.0012 9.31958e-08C26.0615 -0.000310437 22.1603 0.775403 18.5204 2.28285C14.8805 3.79029 11.5732 5.99994 8.78729 8.78561C6.00139 11.5713 3.79148 14.8784 2.28375 18.5182C0.776021 22.158 -1.22381e-08 26.0591 0 29.9988H0C-2.47232e-08 37.9515 3.15901 45.5784 8.78215 51.202C14.4053 56.8256 22.032 59.9852 29.9846 59.9858H30.0154C37.9676 59.9852 45.5939 56.8259 51.217 51.2028C56.8401 45.5798 59.9994 37.9534 60 30.0012C60.0003 26.0615 59.2246 22.1603 57.7172 18.5204C56.2097 14.8805 54.0001 11.5732 51.2144 8.78729C48.4287 6.00139 45.1216 3.79148 41.4818 2.28375C37.842 0.776021 33.9409 8.09577e-08 30.0012 9.31958e-08Z" fill="#665CAC"/>
<path d="M40.7787 18.1193C39.6209 17.1662 38.2592 16.4923 36.7992 16.1496C33.1663 15.1876 29.3791 14.9529 25.6552 15.4592C23.7505 15.6812 21.9052 16.2621 20.2167 17.1711C18.2282 18.2872 16.8591 19.8951 16.2538 22.1224C15.8433 23.7079 15.6055 25.3331 15.5444 26.9697C15.4238 29.3863 15.5019 31.7886 16.1214 34.1484C16.8236 36.8866 18.3819 38.8893 21.0443 39.9605C21.3352 40.0787 21.6095 40.2371 21.9003 40.3577C22.0162 40.3991 22.114 40.4796 22.177 40.5853C22.24 40.691 22.2642 40.8154 22.2455 40.937C22.2455 42.8286 22.2455 44.7202 22.2455 46.6828C22.9549 46.0066 23.4278 45.5005 23.7825 45.1128C24.8347 43.9305 25.8278 42.935 26.9226 41.8024C27.4782 41.2302 27.2465 41.2562 28.1048 41.2704C29.1192 41.287 30.7058 41.3272 31.7178 41.2491C33.6378 41.1376 35.5403 40.8205 37.3927 40.3033C39.7573 39.594 41.6347 38.336 42.5947 35.9549C42.861 35.3278 43.0815 34.6822 43.2544 34.0231C44.1742 30.2399 44.0513 26.4353 43.2828 22.645C42.9305 20.8787 42.1762 19.3134 40.7787 18.1193ZM29.0838 20.4176C29.1027 20.0535 29.3202 19.9116 29.656 19.9282C32.5809 20.0677 34.7823 20.9378 36.4753 23.2172C37.4684 24.5532 38.0028 26.3573 38.0572 28.0314C38.0572 28.2679 38.069 28.5303 38.0572 28.7786C38.0453 29.0269 37.92 29.2657 37.6079 29.2704C37.2958 29.2751 37.135 29.1025 37.1184 28.7833C37.05 27.5535 36.7825 26.3429 36.3263 25.1987C35.4113 22.9737 33.6591 21.7749 31.4081 21.1955C30.8147 21.0353 30.2088 20.9254 29.5969 20.8669C29.306 20.8456 29.053 20.7865 29.0838 20.4176ZM32.0347 23.5246C31.4437 23.3084 30.8332 23.15 30.2116 23.0517C29.909 23.0068 29.6914 22.846 29.7387 22.4913C29.7421 22.4211 29.7611 22.3525 29.7943 22.2905C29.8275 22.2286 29.8741 22.1748 29.9308 22.1331C29.9874 22.0914 30.0526 22.0629 30.1216 22.0496C30.1907 22.0363 30.2618 22.0386 30.3299 22.0562C32.3705 22.2501 33.9642 23.002 35.0589 24.7613C35.5779 25.6303 35.844 26.6269 35.8274 27.6389C35.7967 28.2608 35.7021 28.4215 35.3545 28.4121C34.8367 28.3979 34.9123 27.9723 34.8816 27.6578C34.8189 27.1781 34.7201 26.7039 34.586 26.2391C34.4271 25.6054 34.1081 25.023 33.6598 24.5477C33.2114 24.0725 32.6486 23.7202 32.0252 23.5246H32.0347ZM33.7608 26.9674C33.752 27.1029 33.7363 27.2378 33.7135 27.3717C33.6984 27.4769 33.6449 27.5729 33.5632 27.641C33.4816 27.7091 33.3776 27.7446 33.2713 27.7406C33.165 27.7451 33.0607 27.7109 32.9777 27.6444C32.8946 27.5779 32.8385 27.4835 32.8197 27.3788C32.7748 27.2298 32.763 27.0714 32.7322 26.9059C32.6794 26.5268 32.5128 26.1726 32.2544 25.8901C31.996 25.6077 31.6581 25.4103 31.2851 25.324C31.1858 25.298 31.0818 25.2838 30.9801 25.2554C30.7224 25.1845 30.4008 25.1774 30.3913 24.8015C30.3913 24.4893 30.6278 24.3025 31.0487 24.2765C31.398 24.2876 31.7407 24.3739 32.0536 24.5295C33.1176 25.0639 33.6189 25.8017 33.7513 26.9674H33.7608ZM38.0595 35.6334C37.8037 36.2474 37.4093 36.794 36.9073 37.2304C36.4052 37.6669 35.809 37.9813 35.1653 38.1492C34.6868 38.2591 34.1849 38.1981 33.7466 37.9766C27.5586 35.3425 23.0849 30.9965 20.5525 24.7211C20.3693 24.2931 20.2767 23.8317 20.2806 23.3662C20.2806 21.7488 21.6993 20.2545 23.2552 20.1693C23.4563 20.1569 23.6577 20.1862 23.8469 20.2554C24.0362 20.3246 24.209 20.4321 24.3547 20.5713C25.438 21.585 26.3205 22.7939 26.9557 24.1347C27.3033 24.8677 27.1567 25.3831 26.5301 25.9081C26.4307 25.9932 26.322 26.0665 26.2156 26.1445C25.3833 26.7522 25.1965 27.3741 25.5961 28.3341C26.2284 29.8743 27.3295 31.1764 28.7433 32.0558C29.2726 32.4216 29.8514 32.7098 30.4623 32.9118C30.7147 32.9942 30.987 32.9926 31.2385 32.9074C31.4899 32.8221 31.7071 32.6578 31.8574 32.4389C31.8999 32.3869 31.9377 32.3348 31.9756 32.2805C32.7748 31.1762 33.6308 30.9847 34.7846 31.7035C35.7736 32.3236 36.7142 33.0176 37.5984 33.7796C38.2132 34.3092 38.3669 34.9145 38.0501 35.6334H38.0595Z" fill="white"/>
</svg>
