<svg width="68" height="68" viewBox="0 0 68 68" fill="none" xmlns="http://www.w3.org/2000/svg">
<path d="M33.9826 68H34.0174C43.0299 67.9993 51.6731 64.4188 58.046 58.046C64.4188 51.6731 67.9993 43.0299 68 34.0174V33.9987C68 24.9817 64.418 16.334 58.042 9.95798C51.666 3.58199 43.0183 1.05622e-07 34.0013 1.05622e-07C29.5363 -0.000351829 25.115 0.87879 20.9898 2.58722C16.8646 4.29566 13.1163 6.79993 9.95893 9.95703C6.80157 13.1141 4.29701 16.8622 2.58825 20.9873C0.87949 25.1124 -1.38699e-08 29.5337 0 33.9987L0 34.0174C0.000710627 43.0299 3.58124 51.6731 9.95405 58.046C16.3269 64.4188 24.9701 67.9993 33.9826 68Z" fill="#587EA3"/>
<path fill-rule="evenodd" clip-rule="evenodd" d="M32.7337 47.3867H35.3117C35.3117 47.3867 36.0888 47.301 36.4881 46.8722C36.8874 46.4435 36.8418 45.7413 36.8418 45.7413C36.8418 45.7413 36.7909 42.2817 38.3961 41.7726C40.0013 41.2634 42.0112 45.1143 44.1631 46.5962C45.7924 47.7137 47.0304 47.4698 47.0304 47.4698L52.7893 47.3894C52.7893 47.3894 55.8014 47.2018 54.3731 44.8356C54.2552 44.6399 53.5397 43.083 50.0854 39.8806C46.473 36.5282 46.9581 37.0722 51.3074 31.2731C53.9577 27.7438 55.0163 25.5892 54.684 24.6647C54.3704 23.7857 52.4222 24.0162 52.4222 24.0162L45.9371 24.0591C45.6499 24.024 45.3588 24.0753 45.101 24.2064C44.8548 24.3862 44.6576 24.6248 44.5275 24.9005C43.8561 26.6435 43.0552 28.3338 42.1318 29.9573C39.251 34.856 38.096 35.1052 37.6243 34.8104C36.5256 34.1003 36.8016 31.9618 36.8016 30.4397C36.8016 25.6884 37.5225 23.708 35.3974 23.2042C34.6926 23.0327 34.1728 22.9201 32.3719 22.9014C30.0566 22.8799 28.1003 22.9014 26.9909 23.4534C26.262 23.8045 25.6831 24.6111 26.0315 24.654C26.4603 24.7103 27.4304 24.922 27.9449 25.616C28.6095 26.5191 28.5854 28.5638 28.5854 28.5638C28.5854 28.5638 28.9686 34.1566 27.693 34.8506C26.8194 35.3276 25.6215 34.3549 23.0462 29.9064C22.1726 28.359 21.4001 26.7567 20.7335 25.1095C20.614 24.8305 20.4304 24.5835 20.1976 24.3887C19.8966 24.1891 19.5585 24.0523 19.2034 23.9867L13.0398 24.0242C13.0398 24.0242 12.1153 24.051 11.775 24.453C11.4748 24.8121 11.7508 25.5517 11.7508 25.5517C11.7508 25.5517 16.5745 36.8364 22.0386 42.5256C27.0472 47.7405 32.7337 47.3975 32.7337 47.3975V47.3867Z" fill="white"/>
</svg>
